<?xml version="1.0" standalone="no"?>
<!DOCTYPE svg PUBLIC "-//W3C//DTD SVG 1.1//EN" "http://www.w3.org/Graphics/SVG/1.1/DTD/svg11.dtd" >
<svg xmlns="http://www.w3.org/2000/svg" xmlns:xlink="http://www.w3.org/1999/xlink" version="1.1">
<metadata>
Created by FontForge 20170731 at Thu Nov 10 13:27:49 2016
 By Aleksey,,,
Copyright (c) 2016 by Mateusz Machalski. All rights reserved.
</metadata>
<defs>
<font id="NocturneSerif-Regular" horiz-adv-x="580" >
  <font-face 
    font-family="Nocturne Serif"
    font-weight="400"
    font-stretch="normal"
    units-per-em="1000"
    panose-1="0 0 5 0 0 0 0 0 0 0"
    ascent="800"
    descent="-200"
    x-height="480"
    cap-height="700"
    bbox="-580 -280 1270 1005"
    underline-thickness="50"
    underline-position="-150"
    unicode-range="U+000D-25CA"
  />
<missing-glyph horiz-adv-x="510" 
d="M418 -240h-323v1020h323v-1020zM171 712v-34h67v-38h-68v-33h170v33h-68v38h68v34h-169zM170 580v-106h170v35h-68v71h-102zM238 509h-34v36h34v-36zM170 446v-33h68v-38h-68v-34h102v72h68v33h-170zM306 385v-67h-136v-35h170v102h-34zM238 261v-57h34v23h34v-48h-102
v82h-34v-115h170v115h-102zM170 84v-115h170v115h-170zM306 3h-102v48h102v-48zM170 -54v-34h72l-72 -48v-34h170v34h-104l71 48h33v34h-170z" />
    <glyph glyph-name="T_T" unicode="TT" horiz-adv-x="1300" 
d="M1270 720v-199l-97 129h-163v-590l80 -60h-259l79 59v591h-212l-50 -129l-47 129h-211v-590l80 -60h-259l79 59v591h-163l-97 -129v199l88 -20h444l88 20l88 -20h444z" />
    <glyph glyph-name="f_b" unicode="fb" horiz-adv-x="910" 
d="M655 490q38 0 75.5 -15t67.5 -44.5t48.5 -74t18.5 -104.5q0 -64 -22 -113t-58 -82t-82.5 -50t-96.5 -17q-28 0 -67 6t-68 20l-61 -26v692l-80 58q-27 -2 -50.5 -16t-41 -38t-28 -57t-10.5 -74v-75h130l-31 -60h-99v-360l80 -60h-250l80 60v360h-100l100 75v30
q0 69 22 117t56.5 79t77.5 45t84 14q40 0 82 -8t68 -22v-259l-15 -85l5 -5q11 17 27.5 33t37.5 28.5t46.5 20t53.5 7.5zM613 30q66 0 109 53t43 147q0 87 -38 136t-104 49q-32 0 -64.5 -12.5t-58.5 -36.5v-244q0 -22 9.5 -39.5t25.5 -29t36.5 -17.5t41.5 -6z" />
    <glyph glyph-name="f_f_b" unicode="ffb" horiz-adv-x="1210" 
d="M955 490q38 0 75.5 -15t67.5 -44.5t48.5 -74t18.5 -104.5q0 -64 -22 -113t-58 -82t-82.5 -50t-96.5 -17q-28 0 -67 6t-68 20l-61 -26v692l-80 58q-27 -2 -50.5 -16t-41 -38t-28 -57t-10.5 -74v-75h130l-31 -60h-99v-360l80 -60h-250l80 60v360h-210v-360l80 -60h-250
l80 60v360h-100l100 75v10q0 69 21.5 117t57.5 79t82 45t95 14q38 0 74.5 -7.5t63.5 -19.5q32 25 70.5 36t75.5 11q40 0 82 -8t68 -22v-259l-15 -85l5 -5q11 17 27.5 33t37.5 28.5t46.5 20t53.5 7.5zM410 525q0 35 6 65t17 55l-87 75q-69 -5 -107.5 -54t-38.5 -131v-55h210
v45zM913 30q66 0 109 53t43 147q0 87 -38 136t-104 49q-32 0 -64.5 -12.5t-58.5 -36.5v-244q0 -22 9.5 -39.5t25.5 -29t36.5 -17.5t41.5 -6z" />
    <glyph glyph-name="f_f_f" unicode="fff" horiz-adv-x="930" 
d="M906 740q-54 -5 -80 -54t-26 -131v-75h160l-31 -60h-129v-360l120 -60h-290l80 60v360h-210v-360l80 -60h-250l80 60v360h-210v-360l80 -60h-250l80 60v360h-100l100 75q0 69 26.5 117t68 79t92 45t99.5 14q32 0 63 -5.5t57 -14.5q33 21 71.5 30.5t78.5 9.5
q38 0 74.5 -7.5t62.5 -19.5q27 20 58.5 28.5t64.5 8.5q40 0 74 -8t60 -22l-65 -87zM710 480v45q0 76 23 130l-87 75q-69 -5 -107.5 -55t-38.5 -140v-55h210zM410 480v25q0 45 8.5 81.5t24.5 65.5l-67 58q-34 -3 -66 -16.5t-56.5 -37.5t-39 -57t-14.5 -74v-45h210z" />
    <glyph glyph-name="f_f_h" unicode="ffh" horiz-adv-x="1225" 
d="M1205 0h-250l80 60v246q0 33 -7.5 54t-20.5 33.5t-31 17t-40 4.5q-24 0 -60 -9t-76 -40v-306l80 -60h-250l80 60v622l-80 58q-27 -2 -50.5 -16t-41 -38t-28 -57t-10.5 -74v-75h130l-31 -60h-99v-360l80 -60h-250l80 60v360h-210v-360l80 -60h-250l80 60v360h-100l100 75
v10q0 69 21.5 117t57.5 79t82 45t95 14q38 0 74.5 -7.5t63.5 -19.5q32 25 70.5 36t75.5 11q40 0 82 -8t68 -22v-259l-15 -85l5 -5q38 38 83.5 63.5t110.5 25.5q26 0 51 -6.5t45 -22.5t32.5 -43t12.5 -67v-291zM410 525q0 35 6 65t17 55l-87 75q-69 -5 -107.5 -54t-38.5 -131
v-55h210v45z" />
    <glyph glyph-name="f_f_j" unicode="ffj" horiz-adv-x="875" 
d="M500 480h300v-490q-1 -93 -37 -151.5t-118 -98.5l-5 5q40 51 55 110t15 145v420h-210v-360l80 -60h-250l80 60v360h-210v-360l80 -60h-250l80 60v360h-100l100 75v10q0 69 21.5 117t57.5 79t82 45t95 14q38 0 76.5 -7.5t64.5 -20.5q35 25 76 36.5t83 11.5q40 0 74 -8
t60 -22l-65 -87l-89 77q-30 -2 -57 -16t-46.5 -38t-31 -57t-11.5 -74v-75zM410 480v45q0 35 6.5 64.5t17.5 54.5l-88 76q-69 -5 -107.5 -54t-38.5 -131v-55h210z" />
    <glyph glyph-name="f_f_k" unicode="ffk" horiz-adv-x="1185" 
d="M800 60l80 -60h-250l80 60v622l-80 58q-27 -2 -50.5 -16t-41 -38t-28 -57t-10.5 -74v-75h130l-31 -60h-99v-360l80 -60h-250l80 60v360h-210v-360l80 -60h-250l80 60v360h-100l100 75v10q0 69 21.5 117t57.5 79t82 45t95 14q38 0 74.5 -7.5t63.5 -19.5q32 25 70.5 36
t75.5 11q40 0 82 -8t68 -22v-690zM410 525q0 35 6 65t17 55l-87 75q-69 -5 -107.5 -54t-38.5 -131v-55h210v45zM939 275q35 -57 62.5 -99t55 -74t58 -56.5t70.5 -45.5v-10q-59 -8 -100 0.5t-77.5 38.5t-74 85t-88.5 140l176 166l-111 60h241z" />
    <glyph glyph-name="f_h" unicode="fh" horiz-adv-x="925" 
d="M905 0h-250l80 60v246q0 33 -7.5 54t-20.5 33.5t-31 17t-40 4.5q-24 0 -60 -9t-76 -40v-306l80 -60h-250l80 60v622l-80 58q-27 -2 -50.5 -16t-41 -38t-28 -57t-10.5 -74v-75h130l-31 -60h-99v-360l80 -60h-250l80 60v360h-100l100 75v30q0 69 22 117t56.5 79t77.5 45
t84 14q40 0 82 -8t68 -22v-259l-15 -85l5 -5q38 38 83.5 63.5t110.5 25.5q26 0 51 -6.5t45 -22.5t32.5 -43t12.5 -67v-291z" />
    <glyph glyph-name="f_i" unicode="fi" horiz-adv-x="600" 
d="M580 0h-250l80 60v360h-210v-360l80 -60h-250l80 60v360h-100l100 75v30q0 69 23 117t60 79t82.5 45t90.5 14q40 0 74 -8t60 -22l-65 -87l-89 77q-30 -2 -57 -16t-46.5 -38t-31 -57t-11.5 -74v-75h300v-420z" />
    <glyph glyph-name="f_j" unicode="fj" horiz-adv-x="575" 
d="M200 480h300v-490q-1 -93 -37 -151.5t-118 -98.5l-5 5q40 51 55 110t15 145v420h-210v-360l80 -60h-250l80 60v360h-100l100 75v30q0 69 23 117t60 79t82.5 45t90.5 14q40 0 74 -8t60 -22l-65 -87l-89 77q-30 -2 -57 -16t-46.5 -38t-31 -57t-11.5 -74v-75z" />
    <glyph glyph-name="f_k" unicode="fk" horiz-adv-x="885" 
d="M500 60l80 -60h-250l80 60v622l-80 58q-27 -2 -50.5 -16t-41 -38t-28 -57t-10.5 -74v-75h130l-31 -60h-99v-360l80 -60h-250l80 60v360h-100l100 75v30q0 69 22 117t56.5 79t77.5 45t84 14q40 0 82 -8t68 -22v-690zM639 275q35 -57 62.5 -99t55 -74t58 -56.5t70.5 -45.5
v-10q-59 -8 -100 0.5t-77.5 38.5t-74 85t-88.5 140l176 166l-111 60h241z" />
    <glyph glyph-name="f_l" unicode="fl" horiz-adv-x="600" 
d="M580 0h-250l80 60v622l-80 58q-27 -2 -50.5 -16t-41 -38t-28 -57t-10.5 -74v-75h130l-31 -60h-99v-360l80 -60h-250l80 60v360h-100l100 75v30q0 69 22 117t56.5 79t77.5 45t84 14q40 0 82 -8t68 -22v-690z" />
    <glyph glyph-name="f_v" unicode="fv" horiz-adv-x="905" 
d="M825 420l-191 -450h-6l-227 450h-201v-360l120 -60h-290l80 60v360h-100l100 75v30q0 69 18.5 117t48.5 79t69 45t80 14q40 0 74 -8t60 -22l-65 -87l-89 77q-54 -5 -80 -54t-26 -131v-75h387l-80 -60l140 -285l118 285l-88 60h228z" />
    <glyph glyph-name="f_w" unicode="fw" horiz-adv-x="1180" 
d="M1180 480l-80 -60l-171 -450h-6l-157 338l-159 -338h-6l-203 450h-198v-360l120 -60h-290l80 60v360h-100l100 75v30q0 69 18.5 117t48.5 79t69 45t80 14q40 0 74 -8t60 -22l-65 -87l-89 77q-54 -5 -80 -54t-26 -131v-75h384l-80 -60l125 -280l107 232l-50 108h159
l-27 -60l124 -270l98 270l-88 60h228z" />
    <glyph glyph-name="f_y" unicode="fy" horiz-adv-x="900" 
d="M820 420l-257 -580l137 -80h-243l141 295l-194 365h-204v-360l120 -60h-290l80 60v360h-100l100 75v30q0 69 18.5 117t48.5 79t69 45t80 14q40 0 74 -8t60 -22l-65 -87l-89 77q-54 -5 -80 -54t-26 -131v-75h387l-80 -60l139 -265l114 265l-88 60h228z" />
    <glyph glyph-name=".notdef" horiz-adv-x="510" 
d="M418 -240h-323v1020h323v-1020zM171 712v-34h67v-38h-68v-33h170v33h-68v38h68v34h-169zM170 580v-106h170v35h-68v71h-102zM238 509h-34v36h34v-36zM170 446v-33h68v-38h-68v-34h102v72h68v33h-170zM306 385v-67h-136v-35h170v102h-34zM238 261v-57h34v23h34v-48h-102
v82h-34v-115h170v115h-102zM170 84v-115h170v115h-170zM306 3h-102v48h102v-48zM170 -54v-34h72l-72 -48v-34h170v34h-104l71 48h33v34h-170z" />
    <glyph glyph-name=".null" horiz-adv-x="0" 
 />
    <glyph glyph-name=".null" horiz-adv-x="0" 
 />
    <glyph glyph-name="nonmarkingreturn" unicode="&#xd;" horiz-adv-x="250" 
 />
    <glyph glyph-name="space" unicode=" " horiz-adv-x="210" 
 />
    <glyph glyph-name="exclam" unicode="!" horiz-adv-x="340" 
d="M190 220h-40l-30 530h100zM170 -10q-25 0 -42.5 17.5t-17.5 42.5t17.5 42.5t42.5 17.5t42.5 -17.5t17.5 -42.5t-17.5 -42.5t-42.5 -17.5z" />
    <glyph glyph-name="quotedbl" unicode="&#x22;" horiz-adv-x="260" 
d="M10 780h110l-52 -260h-5zM150 780h110l-52 -260h-5z" />
    <glyph glyph-name="numbersign" unicode="#" horiz-adv-x="666" 
d="M517 480l-23 -260h110l-4 -50h-110l-15 -170h-65l15 170h-215l-15 -170h-65l15 170h-110l4 50h110l23 260h-110l4 50h110l15 170h65l-15 -170h215l15 170h65l-15 -170h110l-4 -50h-110zM452 480h-215l-23 -260h215z" />
    <glyph glyph-name="dollar" unicode="$" 
d="M320 404q37 -15 74.5 -32.5t67.5 -42.5t49 -60.5t19 -86.5q0 -45 -18 -81t-49.5 -60.5t-75 -37.5t-94.5 -13h-9l-7 -81l-50 5l7 80q-46 7 -86 22t-78 35v159l67 -120q26 -17 50.5 -28t50.5 -17l25 283q-35 14 -69 30t-60.5 38.5t-43 54t-16.5 76.5q0 40 16 73.5t45 57.5
t70 37.5t91 14.5l7 81l50 -5l-7 -78q38 -5 73.5 -17t74.5 -32v-168l-77 140q-37 20 -75 26zM164 539q0 -43 31 -69t76 -46l21 235q-39 -2 -63.5 -15t-39 -30.5t-20 -37.5t-5.5 -37zM290 40q45 0 73.5 12t44 30t21.5 40t6 41q0 29 -10 51t-26.5 39.5t-39 30.5t-47.5 24
l-24 -268h2z" />
    <glyph glyph-name="percent" unicode="%" horiz-adv-x="902" 
d="M402 507q0 -42 -13.5 -79t-37 -64.5t-55.5 -43.5t-70 -16t-70 16t-55.5 43.5t-37 64.5t-13.5 79t13.5 79t37 64.5t55.5 43.5t70 16t70 -16t55.5 -43.5t37 -64.5t13.5 -79zM660 700l-358 -700h-60l358 700h60zM226 344q24 0 40.5 13t26.5 35.5t14.5 52t4.5 62.5t-4.5 62.5
t-14.5 52t-26.5 35.5t-40.5 13t-40.5 -13t-26.5 -35.5t-14.5 -52t-4.5 -62.5t4.5 -62.5t14.5 -52t26.5 -35.5t40.5 -13zM676 396q38 0 70 -16t55.5 -43.5t37 -64.5t13.5 -79t-13.5 -79t-37 -64.5t-55.5 -43.5t-70 -16t-70 16t-55.5 43.5t-37 64.5t-13.5 79t13.5 79t37 64.5
t55.5 43.5t70 16zM676 30q24 0 40.5 13t26.5 35.5t14.5 52t4.5 62.5t-4.5 62.5t-14.5 52t-26.5 35.5t-40.5 13t-40.5 -13t-26.5 -35.5t-14.5 -52t-4.5 -62.5t4.5 -62.5t14.5 -52t26.5 -35.5t40.5 -13z" />
    <glyph glyph-name="ampersand" unicode="&#x26;" horiz-adv-x="755" 
d="M597 139q34 -33 59 -54.5t48 -36.5t48 -25.5t58 -22.5v-10q-45 -7 -80.5 -8.5t-67 6t-63 25t-68.5 48.5q-43 -35 -96.5 -53t-113.5 -18q-54 0 -104 14.5t-88 43t-61 71.5t-23 99q0 75 40 131t106 98q-15 31 -23 62t-8 64q0 45 16.5 81t45.5 62t69 40t88 14q62 0 126 -30
l58 30v-219l-117 157q-16 7 -31 9.5t-33 2.5q-62 0 -94.5 -29.5t-32.5 -94.5q0 -40 14 -76t38.5 -71t57 -70t68.5 -73q38 -38 67.5 -69t55.5 -56q22 35 33 81t9 106l-144 72h266l-73 -71q3 -70 -10.5 -127.5t-39.5 -102.5zM338 70q38 0 74.5 9t67.5 28q-52 50 -125 128
q-45 47 -81.5 90t-62.5 86q-45 -42 -63 -83t-18 -82q0 -40 15 -73t42.5 -55.5t66 -35t84.5 -12.5z" />
    <glyph glyph-name="quotesingle" unicode="'" horiz-adv-x="190" 
d="M40 780h110l-52 -260h-5z" />
    <glyph glyph-name="parenleft" unicode="(" horiz-adv-x="330" 
d="M295 820q-90 -106 -125 -221t-35 -244t35 -244t125 -221l-5 -5q-240 183 -240 470t240 470z" />
    <glyph glyph-name="parenright" unicode=")" horiz-adv-x="330" 
d="M40 825q240 -183 240 -470t-240 -470l-5 5q90 106 125 221t35 244t-35 244t-125 221z" />
    <glyph glyph-name="asterisk" unicode="*" horiz-adv-x="399" 
d="M77 506l112 108l-169 21l42 73l137 -72l-32 171l81 -18l-29 -153l152 78l8 -83l-150 -17l122 -122l-76 -34l-66 142l-75 -157z" />
    <glyph glyph-name="plus" unicode="+" horiz-adv-x="590" 
d="M550 325h-230v-230h-50v230h-230v50h230v230h50v-230h230v-50z" />
    <glyph glyph-name="comma" unicode="," horiz-adv-x="230" 
d="M113 110q27 0 47 -18.5t20 -66.5q0 -34 -13.5 -63t-35.5 -52.5t-50.5 -41t-58.5 -28.5l-2 5q41 26 59 57.5t18 61.5q0 26 -12.5 49t-34.5 37q0 23 17 41.5t46 18.5z" />
    <glyph glyph-name="hyphen" unicode="-" horiz-adv-x="408" 
d="M375 315l5 -60l-345 -30l-5 60z" />
    <glyph glyph-name="period" unicode="." horiz-adv-x="220" 
d="M110 -10q-25 0 -42.5 17.5t-17.5 42.5t17.5 42.5t42.5 17.5t42.5 -17.5t17.5 -42.5t-17.5 -42.5t-42.5 -17.5z" />
    <glyph glyph-name="slash" unicode="/" horiz-adv-x="425" 
d="M80 -140h-60l325 880h60z" />
    <glyph glyph-name="zero" unicode="0" horiz-adv-x="590" 
d="M295 710q51 0 95.5 -24.5t78 -70.5t52.5 -113t19 -152t-19 -152t-52.5 -113t-78 -70.5t-95.5 -24.5t-95.5 24.5t-78 70.5t-52.5 113t-19 152t19 152t52.5 113t78 70.5t95.5 24.5zM295 40q36 0 61.5 21.5t42 62t24 97.5t7.5 129t-7.5 129t-24 97.5t-42 62t-61.5 21.5
t-61.5 -21.5t-42 -62t-24 -97.5t-7.5 -129t7.5 -129t24 -97.5t42 -62t61.5 -21.5z" />
    <glyph glyph-name="one" unicode="1" horiz-adv-x="510" 
d="M470 0h-420l160 60v519l-149 56l249 85v-660z" />
    <glyph glyph-name="two" unicode="2" horiz-adv-x="570" 
d="M510 179v-179h-480q111 103 181.5 179.5t111 134.5t55.5 102t15 81q0 64 -34.5 96t-95.5 32q-58 0 -108.5 -29.5t-88.5 -95.5l-5 5q25 102 89 153.5t156 51.5q91 0 139 -47.5t48 -127.5q0 -52 -21 -103.5t-59.5 -105.5t-92.5 -112t-121 -124h244z" />
    <glyph glyph-name="three" unicode="3" horiz-adv-x="573" 
d="M371 422q54 -28 88 -74.5t34 -113.5q0 -58 -26.5 -103t-69 -76.5t-95.5 -48t-107 -16.5q-50 0 -88 13t-67 35l60 80l105 -78q39 0 75 12.5t63 34.5t43.5 53.5t16.5 68.5q0 51 -31.5 93t-97.5 62q-38 -17 -86 -34l-15 40q53 20 86 40.5t51.5 41t25 41t6.5 40.5
q0 43 -24.5 70t-78.5 27q-39 0 -90 -20.5t-104 -79.5l-5 5q41 88 98 131.5t136 43.5q43 0 74.5 -12t52.5 -32.5t31 -47.5t10 -58q0 -40 -17 -74t-54 -64z" />
    <glyph glyph-name="four" unicode="4" horiz-adv-x="610" 
d="M457 177v-117l80 -60h-290l120 60v117h-307l-40 33l347 490l90 20v-463h113l-16 -80h-97zM367 257v356l-251 -356h251z" />
    <glyph glyph-name="five" unicode="5" horiz-adv-x="570" 
d="M168 494q168 -15 250 -84t82 -173q0 -64 -28.5 -110.5t-73 -77t-99 -45t-106.5 -14.5q-53 0 -93 13.5t-70 36.5l63 84l110 -84q40 0 77 10.5t66 32t46.5 54t17.5 75.5q0 38 -16 71.5t-53.5 59.5t-98.5 44t-150 25l59 288h345l-19 -90h-285z" />
    <glyph glyph-name="six" unicode="6" horiz-adv-x="575" 
d="M198 376q63 26 123 25t106.5 -25t74.5 -68.5t28 -105.5q0 -46 -16.5 -84.5t-46.5 -67t-72.5 -44.5t-95.5 -16q-52 0 -97 16.5t-79 50.5t-53.5 86.5t-19.5 123.5q0 84 28.5 160.5t82.5 138.5t132.5 107.5t178.5 66.5l15 -40q-166 -48 -249 -148.5t-83 -266.5
q0 -70 14 -117.5t35.5 -75.5t48.5 -40t52 -12q30 0 52.5 14t37.5 37t22.5 52t7.5 60q0 47 -16 78.5t-44.5 48t-67.5 18t-84 -11.5z" />
    <glyph glyph-name="seven" unicode="7" horiz-adv-x="550" 
d="M530 700q-61 -102 -105.5 -191t-73.5 -172.5t-43 -165.5t-14 -171h-105q6 89 28.5 171t55.5 158t73 146t79 135h-313l-82 -109v199h500z" />
    <glyph glyph-name="eight" unicode="8" horiz-adv-x="600" 
d="M391 381q29 -13 56 -29.5t47.5 -39t33 -52t12.5 -68.5q0 -50 -19.5 -88t-53 -63.5t-77.5 -38t-93 -12.5q-48 0 -91 11t-75.5 33.5t-51.5 56t-19 78.5q0 34 11 62.5t30 52.5t45 43.5t56 35.5q-24 12 -45.5 26.5t-37 34t-25 44t-9.5 57.5q0 45 18 80t48 58t69.5 35t83.5 12
q45 0 83.5 -11.5t67 -33.5t44.5 -52.5t16 -69.5q0 -60 -35 -99t-89 -63zM301 660q-34 0 -56.5 -11.5t-35.5 -29t-18.5 -37.5t-5.5 -38q0 -28 12 -48t32 -36t46 -28.5t55 -24.5q47 24 68.5 60t21.5 74q0 20 -6 41t-20 38t-36.5 28.5t-56.5 11.5zM303 40q35 0 60 13t41 32.5
t23.5 44t7.5 46.5q0 36 -15.5 61.5t-40.5 43.5t-57.5 32t-65.5 27q-54 -34 -75 -72.5t-21 -81.5q0 -27 8.5 -53t25.5 -47t44.5 -33.5t64.5 -12.5z" />
    <glyph glyph-name="nine" unicode="9" horiz-adv-x="575" 
d="M377 314q-63 -26 -122.5 -26t-106 22.5t-75 67t-28.5 108.5q0 47 18 88t50 71t76.5 47.5t98.5 17.5q51 0 94 -16.5t75 -50.5t50 -86.5t18 -123.5q0 -84 -28.5 -160.5t-82.5 -138.5t-132.5 -107.5t-178.5 -66.5l-15 40q166 48 249 148.5t83 266.5q0 71 -12.5 118t-32 75
t-44.5 40t-51 12q-30 0 -53.5 -14t-40 -37t-25.5 -53t-9 -62q0 -48 15.5 -81t43.5 -50.5t66.5 -19.5t84.5 11z" />
    <glyph glyph-name="colon" unicode=":" horiz-adv-x="220" 
d="M110 370q-25 0 -42.5 17.5t-17.5 42.5t17.5 42.5t42.5 17.5t42.5 -17.5t17.5 -42.5t-17.5 -42.5t-42.5 -17.5zM110 -10q-25 0 -42.5 17.5t-17.5 42.5t17.5 42.5t42.5 17.5t42.5 -17.5t17.5 -42.5t-17.5 -42.5t-42.5 -17.5z" />
    <glyph glyph-name="semicolon" unicode=";" horiz-adv-x="230" 
d="M115 370q-25 0 -42.5 17.5t-17.5 42.5t17.5 42.5t42.5 17.5t42.5 -17.5t17.5 -42.5t-17.5 -42.5t-42.5 -17.5zM113 110q27 0 47 -18.5t20 -66.5q0 -34 -13.5 -63t-35.5 -52.5t-50.5 -41t-58.5 -28.5l-2 5q41 26 59 57.5t18 61.5q0 26 -12.5 49t-34.5 37q0 23 17 41.5
t46 18.5z" />
    <glyph glyph-name="less" unicode="&#x3c;" horiz-adv-x="590" 
d="M550 545l-459 -225l459 -225v-50l-510 250v50l510 250v-50z" />
    <glyph glyph-name="equal" unicode="=" horiz-adv-x="590" 
d="M550 475v-50h-510v50h510zM550 275v-50h-510v50h510z" />
    <glyph glyph-name="greater" unicode="&#x3e;" horiz-adv-x="590" 
d="M550 345v-50l-510 -250v50l459 225l-459 225v50z" />
    <glyph glyph-name="question" unicode="?" horiz-adv-x="503" 
d="M204 220q-8 49 -0.5 85.5t23 66t35.5 54t38 49t30.5 51.5t12.5 61q0 55 -33.5 90.5t-86.5 42.5l-120 -94l-63 84q38 23 89 36.5t105 13.5q42 0 79.5 -9t66.5 -28.5t46 -49t17 -70.5q0 -39 -14.5 -69.5t-37 -58t-48 -54t-48 -56t-37 -65t-14.5 -80.5h-40zM225 -10
q-25 0 -42.5 17.5t-17.5 42.5t17.5 42.5t42.5 17.5t42.5 -17.5t17.5 -42.5t-17.5 -42.5t-42.5 -17.5z" />
    <glyph glyph-name="at" unicode="@" horiz-adv-x="883" 
d="M517 630q79 0 141.5 -22.5t105.5 -63.5t66 -97.5t23 -125.5q0 -58 -16 -111.5t-45 -94t-69.5 -65t-88.5 -24.5q-18 0 -38.5 4.5t-37 16.5t-26 34t-5.5 56l8 65h-4q-13 -35 -31.5 -67t-41.5 -56t-51.5 -38.5t-60.5 -14.5q-46 0 -77.5 31t-31.5 97q0 47 20 102.5
t66.5 101.5t122.5 72.5t188 15.5l-34 -299q-5 -46 10 -62.5t38 -16.5q29 0 57 19.5t50.5 53.5t36.5 79.5t14 97.5q0 62 -20.5 111.5t-59 84.5t-92.5 54t-121 19q-81 0 -156 -27.5t-132 -78.5t-91 -123t-34 -160q0 -95 39.5 -160t105 -102t151 -46.5t176.5 5.5l-3 -35
q-92 -17 -184.5 -7.5t-167 49t-121 111.5t-46.5 181q0 100 38.5 180.5t103 137.5t149 87.5t176.5 30.5zM368 96q24 0 52.5 21t55.5 60.5t50.5 97t36.5 129.5q-54 1 -98 -16.5t-75.5 -48.5t-48.5 -74t-17 -94q0 -35 9.5 -55t34.5 -20z" />
    <glyph glyph-name="A" unicode="A" horiz-adv-x="707" 
d="M717 0h-273l80 60l-84 205h-229l-86 -205l119 -60h-209l312 730h6l289 -674zM419 315l-93 226l-94 -226h187z" />
    <glyph glyph-name="B" unicode="B" horiz-adv-x="675" 
d="M469 364q74 -16 117.5 -57t43.5 -111q0 -45 -20.5 -81t-59 -61.5t-92.5 -39.5t-121 -14h-302l80 60v580l-80 60h297q119 0 188.5 -47.5t69.5 -131.5q0 -56 -32.5 -96t-88.5 -61zM215 650v-265h117q41 0 70 10.5t47.5 28t27 41t8.5 50.5q0 29 -8.5 53.5t-27 42.5
t-47.5 28.5t-70 10.5h-117zM337 50q97 0 140 38.5t43 101.5q0 67 -43 106t-140 39h-122v-285h122z" />
    <glyph glyph-name="C" unicode="C" horiz-adv-x="710" 
d="M670 173q-24 -54 -56 -89.5t-68.5 -56t-74.5 -29t-74 -8.5q-66 0 -128.5 24.5t-111 70.5t-78 112t-29.5 149q0 86 31.5 153.5t84.5 114t122.5 71.5t144.5 25q37 0 78.5 -6t81.5 -20l57 26v-235l-129 173q-23 7 -46 9.5t-44 2.5q-60 0 -110.5 -18.5t-87 -55.5t-57.5 -91
t-21 -125q0 -66 18.5 -121t52.5 -95t82.5 -62t108.5 -22q57 0 122.5 24t125.5 84z" />
    <glyph glyph-name="D" unicode="D" horiz-adv-x="775" 
d="M377 700q67 0 130 -19t111.5 -59.5t77.5 -104t29 -152.5q0 -85 -29 -152.5t-77.5 -115t-111.5 -72.5t-130 -25h-342l80 60v580l-80 60h342zM367 50q56 0 101.5 21t78 60t50.5 95.5t18 128.5q0 75 -18 130.5t-50.5 92t-78 54.5t-101.5 18h-152v-600h152z" />
    <glyph glyph-name="E" unicode="E" horiz-adv-x="620" 
d="M575 179v-179h-540l80 60v580l-80 60h510v-179l-97 129h-233v-265h179l68 90v-230l-68 90h-179v-285h263z" />
    <glyph glyph-name="F" unicode="F" horiz-adv-x="565" 
d="M535 521l-97 129h-223v-295h211l76 100v-250l-76 100h-211v-245l120 -60h-300l80 60v580l-80 60h500v-179z" />
    <glyph glyph-name="G" unicode="G" horiz-adv-x="725" 
d="M670 330v-330l-57 28q-46 -21 -95 -29.5t-94 -8.5q-79 0 -147.5 23.5t-118.5 68.5t-79 110.5t-29 150.5q0 90 31.5 158.5t84 115t121.5 70t143 23.5q39 0 81.5 -7t84.5 -21l54 28v-219l-114 153q-28 9 -54 12.5t-51 3.5q-60 0 -109.5 -18.5t-85.5 -54.5t-56 -90t-20 -125
q0 -70 19.5 -129t55.5 -102t86 -67t111 -24q26 0 65 5.5t83 21.5v165l-176 88h266z" />
    <glyph glyph-name="H" unicode="H" horiz-adv-x="830" 
d="M715 60l80 -60h-260l80 60v285h-400v-285l80 -60h-260l80 60v580l-80 60h260l-80 -60v-245h400v245l-80 60h260l-80 -60v-580z" />
    <glyph glyph-name="I" unicode="I" horiz-adv-x="340" 
d="M220 60l80 -60h-260l80 60v580l-80 60h260l-80 -60v-580z" />
    <glyph glyph-name="J" unicode="J" horiz-adv-x="335" 
d="M225 640v-640q-1 -93 -47 -150.5t-128 -89.5l-5 5q20 25 35 50.5t25 54.5t15 63t5 77v630l-80 60h260z" />
    <glyph glyph-name="K" unicode="K" horiz-adv-x="720" 
d="M215 60l80 -60h-260l80 60v580l-80 60h260l-80 -60v-580zM380 385q59 -84 102.5 -147.5t83 -109.5t81.5 -77t98 -51v-5q-79 -8 -133 5t-102.5 54.5t-102.5 116t-133 190.5l281 279l-106 60h247z" />
    <glyph glyph-name="L" unicode="L" horiz-adv-x="605" 
d="M575 179v-179h-540l80 60v580l-80 60h260l-80 -60v-590h263z" />
    <glyph glyph-name="M" unicode="M" horiz-adv-x="930" 
d="M895 0h-260l80 60v485l-267 -405l-268 385v-465l120 -60h-265l80 60v580l-80 60h138l296 -425l277 425h148l-79 -59v-581z" />
    <glyph glyph-name="N" unicode="N" horiz-adv-x="810" 
d="M705 640v-670h-6l-519 575v-485l120 -60h-265l80 60v580l-80 60h138l467 -520v460l-120 60h265z" />
    <glyph glyph-name="O" unicode="O" horiz-adv-x="800" 
d="M402 710q67 0 130 -24t111.5 -69.5t77.5 -112t29 -151.5t-29.5 -152.5t-78 -114t-112 -71.5t-132.5 -25q-67 0 -130 24t-111.5 69.5t-77.5 112t-29 151.5t29.5 152.5t78 114t112 71.5t132.5 25zM420 40q51 0 92 20t69.5 57.5t43.5 90.5t15 119q0 78 -20 139.5
t-55.5 104.5t-83 66t-101.5 23q-51 0 -92 -20t-69.5 -57.5t-43.5 -90.5t-15 -119q0 -78 20 -139.5t55.5 -104.5t83 -66t101.5 -23z" />
    <glyph glyph-name="P" unicode="P" horiz-adv-x="620" 
d="M215 290v-230l120 -60h-300l80 60v580l-80 60h292q60 0 109 -11t84.5 -33.5t55 -58t19.5 -85.5q0 -49 -19.5 -90t-55 -70.5t-84.5 -45.5t-109 -16h-112zM215 340h102q82 0 125 44t43 116t-43 111t-125 39h-102v-310z" />
    <glyph glyph-name="Q" unicode="Q" horiz-adv-x="800" 
d="M476 -2q14 -32 38.5 -60t56.5 -51.5t69 -41t76 -26.5v-5q-118 -5 -204.5 39t-152.5 139q-61 6 -117 33t-99 72t-68 108t-25 142q0 85 29.5 152.5t78 114t112 71.5t132.5 25q67 0 130 -24t111.5 -69.5t77.5 -112t29 -151.5q0 -73 -21.5 -133t-59 -105t-87.5 -75t-106 -42z
M160 373q0 -78 20 -139.5t55.5 -104.5t83 -66t101.5 -23q51 0 92 20t69.5 57.5t43.5 90.5t15 119q0 78 -20 139.5t-55.5 104.5t-83 66t-101.5 23q-51 0 -92 -20t-69.5 -57.5t-43.5 -90.5t-15 -119z" />
    <glyph glyph-name="R" unicode="R" horiz-adv-x="685" 
d="M407 342q37 -57 71.5 -109.5t71 -96.5t75.5 -78.5t85 -57.5v-5q-79 -8 -132 12t-99 67t-94 121t-116 175q62 3 101.5 17t63 34.5t32.5 45.5t9 52q0 63 -41.5 97t-116.5 34h-102v-590l80 -60h-260l80 60v580l-80 60h292q56 0 103 -10t81.5 -30.5t54 -52.5t19.5 -76
q0 -72 -49 -120.5t-129 -68.5z" />
    <glyph glyph-name="S" unicode="S" 
d="M169 539q0 -38 26.5 -62t67 -43t87 -37.5t87 -45.5t67 -67t26.5 -102q0 -45 -18 -81t-49.5 -60.5t-75 -37.5t-94.5 -13q-45 0 -85 9t-76 23l-62 -31v219l106 -143q28 -14 55.5 -20.5t58.5 -6.5q45 0 72.5 12t42.5 30t20 40t5 41q0 47 -26.5 76t-66 50t-85.5 39
t-85.5 42.5t-66 61t-26.5 95.5q0 41 16.5 74.5t46.5 57.5t72.5 37.5t94.5 13.5q70 0 137 -27l53 27v-219l-117 157q-33 12 -69 12q-43 0 -70.5 -12.5t-42.5 -30.5t-20.5 -39t-5.5 -39z" />
    <glyph glyph-name="T" unicode="T" horiz-adv-x="680" 
d="M650 720v-199l-97 129h-163v-590l80 -60h-259l79 59v591h-163l-97 -129v199l88 -20h444z" />
    <glyph glyph-name="U" unicode="U" horiz-adv-x="775" 
d="M685 640v-340q0 -155 -75.5 -232.5t-205.5 -77.5q-62 0 -117 18t-96.5 54.5t-66 93t-24.5 134.5v350l-80 60h260l-80 -60v-340q0 -129 54.5 -192t155.5 -63t155.5 63t54.5 192v340l-120 60h265z" />
    <glyph glyph-name="V" unicode="V" horiz-adv-x="745" 
d="M665 640l-273 -670h-6l-298 672l-78 58h273l-80 -60l205 -485l193 485l-120 60h264z" />
    <glyph glyph-name="W" unicode="W" horiz-adv-x="1060" 
d="M980 640l-212 -670h-6l-224 551l-205 -551h-6l-246 676l-71 54h263l-80 -60l161 -455l152 414l-41 101h153l-20 -60l178 -455l140 455l-120 60h264z" />
    <glyph glyph-name="X" unicode="X" horiz-adv-x="708" 
d="M723 0h-277l80 60l-177 239l-186 -239l88 -60h-241l80 60l222 287l-224 302l-68 51h273l-80 -60l170 -228l178 228l-88 60h241l-80 -60l-215 -277l229 -307z" />
    <glyph glyph-name="Y" unicode="Y" horiz-adv-x="725" 
d="M414 308v-248l80 -60h-259l79 59v249l-234 339l-70 53h275l-80 -60l182 -271l188 271v1l-119 59h269l-80 -60z" />
    <glyph glyph-name="Z" unicode="Z" horiz-adv-x="675" 
d="M630 179v-179h-605l451 650h-303l-97 -129v199l88 -20h462l-451 -650h358z" />
    <glyph glyph-name="bracketleft" unicode="[" horiz-adv-x="345" 
d="M180 754v-798l130 -51v-5h-210v910h210v-5z" />
    <glyph glyph-name="backslash" unicode="\" horiz-adv-x="425" 
d="M80 740l325 -880h-60l-325 880h60z" />
    <glyph glyph-name="bracketright" unicode="]" horiz-adv-x="345" 
d="M245 -100h-210v5l130 51v798l-130 51v5h210v-910z" />
    <glyph glyph-name="asciicircum" unicode="^" horiz-adv-x="562" 
d="M467 350l-186 295l-186 -295h-60l247 388l-1 2l246 -390h-60z" />
    <glyph glyph-name="underscore" unicode="_" horiz-adv-x="450" 
d="M430 0v-50h-410v50h410z" />
    <glyph glyph-name="grave" unicode="`" horiz-adv-x="250" 
d="M0 710h120l130 -155l-5 -5z" />
    <glyph glyph-name="a" unicode="a" horiz-adv-x="535" 
d="M525 75q-19 -50 -43 -67.5t-56 -17.5q-38 0 -61.5 19.5t-31.5 54.5h-5q-25 -35 -60.5 -54.5t-82.5 -19.5q-60 0 -97.5 31t-37.5 86q0 40 19.5 69.5t48.5 45.5h205v84q0 59 -24 84t-76 25q-35 0 -72 -11.5t-75 -38.5l-5 5q18 33 41.5 55.5t50.5 37t55 21t55 6.5
q68 0 104 -38t36 -111v-226q0 -35 14 -46.5t34 -11.5q14 0 27.5 4.5t31.5 18.5zM215 50q51 0 108 54v83h-156q-22 -27 -22 -66q0 -41 22 -56t48 -15z" />
    <glyph glyph-name="b" unicode="b" horiz-adv-x="575" 
d="M320 490q38 0 75.5 -15t67.5 -44.5t48.5 -74t18.5 -104.5q0 -64 -22 -113t-58 -82t-82.5 -50t-96.5 -17q-28 0 -67 6t-68 20l-61 -26v668l-70 52l160 70v-289l-15 -85l5 -5q11 17 27.5 33t37.5 28.5t46.5 20t53.5 7.5zM278 30q66 0 109 53t43 147q0 87 -38 136t-104 49
q-32 0 -64.5 -12.5t-58.5 -36.5v-244q0 -22 9.5 -39.5t25.5 -29t36.5 -17.5t41.5 -6z" />
    <glyph glyph-name="c" unicode="c" horiz-adv-x="485" 
d="M304 75q30 0 66 11t80 44l5 -5q-13 -39 -33.5 -65t-44.5 -41.5t-50.5 -22t-52.5 -6.5q-47 0 -89 18.5t-73 52.5t-49 80.5t-18 101.5q0 64 23.5 110.5t59.5 77t79.5 45t84.5 14.5q53 0 93 -13.5t70 -36.5l-63 -84l-110 94q-65 0 -106 -46t-41 -133q0 -42 10.5 -77.5
t32 -62t53 -41.5t73.5 -15z" />
    <glyph glyph-name="d" unicode="d" horiz-adv-x="600" 
d="M570 38l-114 -48l-31 89h-5q-11 -17 -27.5 -33t-37.5 -28.5t-46 -20t-54 -7.5q-38 0 -75.5 15t-67.5 44.5t-48.5 74t-18.5 104.5q0 65 22 114t58 82t83 49.5t96 16.5q21 0 50 -3.5t56 -11.5v183l-70 52l160 70v-690zM287 65q32 0 64.5 12.5t58.5 36.5v244q0 23 -9.5 40
t-25.5 28.5t-36.5 17.5t-41.5 6q-66 0 -109 -53t-43 -147q0 -87 38 -136t104 -49z" />
    <glyph glyph-name="e" unicode="e" horiz-adv-x="505" 
d="M304 75q30 0 66 11t80 44l5 -5q-13 -39 -33.5 -65t-44.5 -41.5t-50.5 -22t-52.5 -6.5q-47 0 -89 18.5t-73 52t-49 80.5t-18 103q0 60 20 105.5t52.5 77t75 47.5t87.5 16q35 0 67 -10.5t57 -33t41.5 -57.5t19.5 -84h-329q-1 -8 -1 -15.5v-15.5q0 -43 11 -80t32 -63
t52.5 -41t73.5 -15zM266 453q-45 0 -77.5 -29.5t-46.5 -83.5h218q0 47 -21.5 80t-72.5 33z" />
    <glyph glyph-name="f" unicode="f" horiz-adv-x="330" 
d="M306 740q-54 -5 -80 -54t-26 -131v-75h160l-31 -60h-129v-360l120 -60h-290l80 60v360h-100l100 75v30q0 69 18.5 117t48.5 79t69 45t80 14q40 0 74 -8t60 -22l-65 -87z" />
    <glyph glyph-name="g" unicode="g" horiz-adv-x="525" 
d="M515 405l-121 41q26 -20 41.5 -49.5t15.5 -66.5t-16 -67t-43 -50.5t-61.5 -31.5t-72.5 -11q-49 0 -91 18q-20 -17 -30 -35.5t-10 -35.5q0 -18 11 -30t33 -12h259q38 -19 61.5 -55t23.5 -84q0 -38 -17.5 -72t-52 -59.5t-85.5 -40t-119 -14.5q-109 0 -160 35.5t-51 92.5
q0 30 17 60t62 54q-26 15 -40 40.5t-14 55.5q0 38 21 67t57 51q-31 21 -49.5 52t-18.5 72q0 38 16 67.5t43 50t62 31.5t72 11q45 0 84 -15l173 10v-80zM266 207q44 0 67 33.5t23 81.5q0 27 -8 51t-22 42t-33.5 28t-42.5 10q-44 0 -67 -33.5t-23 -81.5q0 -27 8 -51t22 -42
t33.5 -28t42.5 -10zM151 -10q-14 -17 -24.5 -39t-10.5 -51q0 -50 37.5 -80t107.5 -30q43 0 73 9.5t49 25.5t28 38t9 47q0 38 -19 59t-61 21h-189z" />
    <glyph glyph-name="h" unicode="h" horiz-adv-x="620" 
d="M600 0h-250l80 60v246q0 33 -7.5 54t-20.5 33.5t-31 17t-40 4.5q-24 0 -60 -9t-76 -40v-306l80 -60h-250l80 60v598l-70 52l160 70v-289l-15 -85l5 -5q38 38 83.5 63.5t110.5 25.5q26 0 51 -6.5t45 -22.5t32.5 -43t12.5 -67v-291z" />
    <glyph glyph-name="i" unicode="i" horiz-adv-x="295" 
d="M145 590q-25 0 -42.5 17.5t-17.5 42.5t17.5 42.5t42.5 17.5t42.5 -17.5t17.5 -42.5t-17.5 -42.5t-42.5 -17.5zM275 0h-250l80 60v308l-70 52l160 70v-430z" />
    <glyph glyph-name="j" unicode="j" horiz-adv-x="280" 
d="M145 590q-25 0 -42.5 17.5t-17.5 42.5t17.5 42.5t42.5 17.5t42.5 -17.5t17.5 -42.5t-17.5 -42.5t-42.5 -17.5zM35 420l160 70v-500q-1 -93 -37 -151.5t-118 -98.5l-5 5q40 51 55 110t15 145v368z" />
    <glyph glyph-name="k" unicode="k" 
d="M195 60l80 -60h-250l80 60v598l-70 52l160 70v-720zM334 275q35 -57 62.5 -99t55 -74t58 -56.5t70.5 -45.5v-5q-59 -8 -100 0t-77.5 37t-74 83t-88.5 139l176 166l-111 60h241z" />
    <glyph glyph-name="l" unicode="l" horiz-adv-x="295" 
d="M275 0h-250l80 60v598l-70 52l160 70v-720z" />
    <glyph glyph-name="m" unicode="m" horiz-adv-x="905" 
d="M885 0h-250l80 60v246q0 33 -5.5 54t-17 33.5t-28 17t-38.5 4.5q-24 0 -55 -9t-71 -40v-306l80 -60h-250l80 60v246q0 33 -5.5 54t-17 33.5t-28 17t-38.5 4.5q-24 0 -55 -9t-71 -40v-306l80 -60h-250l80 60v308l-70 52l160 70l-15 -84l5 -5q32 35 77.5 62t106.5 27
q42 0 76.5 -18.5t47.5 -66.5q32 34 76.5 59.5t104.5 25.5q26 0 49.5 -6.5t41.5 -22.5t29 -43t11 -67v-291z" />
    <glyph glyph-name="n" unicode="n" horiz-adv-x="620" 
d="M600 0h-250l80 60v246q0 33 -7.5 54t-20.5 33.5t-31 17t-40 4.5q-24 0 -60 -9t-76 -40v-306l80 -60h-250l80 60v308l-70 52l160 70l-15 -84l5 -5q38 38 83.5 63.5t110.5 25.5q26 0 51 -6.5t45 -22.5t32.5 -43t12.5 -67v-291z" />
    <glyph glyph-name="o" unicode="o" 
d="M290 -10q-50 0 -94.5 17.5t-78 49.5t-53 78.5t-19.5 104.5t19.5 104.5t53 78.5t78 49.5t94.5 17.5t94.5 -17.5t78 -49.5t53 -78.5t19.5 -104.5t-19.5 -104.5t-53 -78.5t-78 -49.5t-94.5 -17.5zM306 30q34 0 57.5 15.5t37.5 41.5t20.5 60t6.5 71q0 51 -12 93.5t-33 73
t-49 48t-60 17.5q-34 0 -57.5 -15.5t-38.5 -41.5t-21.5 -60t-6.5 -71q0 -51 12.5 -93.5t33.5 -73t49.5 -48t60.5 -17.5z" />
    <glyph glyph-name="p" unicode="p" horiz-adv-x="590" 
d="M286 -10q-21 0 -50 3.5t-56 11.5v-186l119 -59h-289l80 60v548l-70 52l160 70l-15 -84l5 -5q11 17 27.5 33t37.5 28.5t46.5 20t53.5 7.5q38 0 75.5 -15t67.5 -44.5t48.5 -74t18.5 -104.5q0 -64 -22 -113t-58 -82t-82.5 -50t-96.5 -17zM303 415q-32 0 -64.5 -12.5
t-58.5 -36.5v-244q0 -22 9.5 -39.5t25.5 -29t36.5 -17.5t41.5 -6q66 0 109 53t43 147q0 87 -38 136t-104 49z" />
    <glyph glyph-name="q" unicode="q" horiz-adv-x="590" 
d="M410 -11l15 85l-5 5q-11 -17 -27.5 -33t-37.5 -28.5t-46 -20t-54 -7.5q-38 0 -75.5 15t-67.5 44.5t-48.5 74t-18.5 104.5q0 65 22 114t58 82t83 49.5t96 16.5q28 0 67 -6t68 -20l61 26v-628l70 -52l-160 -70v249zM287 65q32 0 64.5 12.5t58.5 36.5v244q0 23 -9.5 40
t-25.5 28.5t-36.5 17.5t-41.5 6q-66 0 -109 -53t-43 -147q0 -87 38 -136t104 -49z" />
    <glyph glyph-name="r" unicode="r" horiz-adv-x="390" 
d="M345 382q-50 15 -88.5 5.5t-61.5 -31.5v-296l120 -60h-290l80 60v308l-70 52l160 70l-19 -107l5 -2q14 25 34 46.5t45.5 35.5t55.5 19.5t64 -2.5z" />
    <glyph glyph-name="s" unicode="s" horiz-adv-x="460" 
d="M145 376q0 -28 19.5 -45.5t48 -30.5t62.5 -25t62.5 -29.5t48 -43t19.5 -65.5q0 -35 -15.5 -62.5t-40 -46t-56.5 -28.5t-65 -10q-29 0 -57.5 6.5t-53.5 17.5l-62 -24v167l79 -104q46 -23 88 -23q44 0 65.5 22t21.5 54q0 31 -19 50.5t-47 34t-61 27t-61 29.5t-47 41.5
t-19 63.5q0 36 16.5 62t42.5 43t58 25t63 8q26 0 50.5 -5.5t47.5 -14.5l52 20v-167l-88 117q-14 5 -28.5 7.5t-29.5 2.5q-50 0 -72 -23t-22 -51z" />
    <glyph glyph-name="t" unicode="t" horiz-adv-x="439" 
d="M289 75q27 0 53.5 10.5t57.5 34.5l5 -5q-19 -68 -60 -96.5t-89 -28.5q-33 0 -59.5 12t-44.5 32t-28 46t-10 55v285h-109l199 149v-89h210l-31 -60h-179v-245q0 -17 3 -35t12 -32.5t25.5 -23.5t44.5 -9z" />
    <glyph glyph-name="u" unicode="u" horiz-adv-x="585" 
d="M555 38l-114 -48l-31 89h-5q-11 -11 -30.5 -26.5t-45 -29.5t-56 -23.5t-62.5 -9.5q-22 0 -45.5 6.5t-42.5 22.5t-31 43t-12 67v239l-70 52l160 70v-316q0 -33 7 -54t19.5 -33.5t28.5 -17t34 -4.5q24 0 60 9t76 40v254l-70 52l160 70v-400z" />
    <glyph glyph-name="v" unicode="v" horiz-adv-x="575" 
d="M495 420l-191 -450h-6l-232 461l-66 49h257l-80 -60l140 -285l118 285l-88 60h228z" />
    <glyph glyph-name="w" unicode="w" horiz-adv-x="850" 
d="M770 420l-171 -450h-6l-157 338l-159 -338h-6l-209 464l-62 46h254l-80 -60l125 -280l107 232l-50 108h159l-27 -60l124 -270l98 270l-88 60h228z" />
    <glyph glyph-name="x" unicode="x" horiz-adv-x="525" 
d="M535 0h-267l80 60l-104 133l-107 -133l88 -60h-235l80 60l141 174l-151 193l-70 53h268l-80 -60l100 -128l101 128l-88 60h233l-80 -60l-134 -169l157 -200z" />
    <glyph glyph-name="y" unicode="y" horiz-adv-x="570" 
d="M233 -160l137 -80h-243l141 295l-199 374l-69 51h257l-80 -60l139 -265l114 265l-88 60h228l-80 -60z" />
    <glyph glyph-name="z" unicode="z" horiz-adv-x="515" 
d="M388 45l97 129v-174h-470l331 435h-193l-97 -129v194l88 -20h346l-330 -435h228z" />
    <glyph glyph-name="braceleft" unicode="{" horiz-adv-x="296" 
d="M261 815q-53 -14 -76.5 -55.5t-23.5 -96.5q0 -25 4 -52.5t8.5 -55t8.5 -55t4 -52.5q0 -39 -12.5 -64t-41.5 -34q29 -10 41.5 -35t12.5 -66q0 -25 -4 -52.5t-8.5 -55.5t-8.5 -55t-4 -52q0 -55 23.5 -96.5t76.5 -55.5v-5q-94 8 -137 52.5t-43 113.5q0 23 4 47t8.5 48.5
t8.5 50.5t4 52q0 15 -2 32t-8 32t-17 26.5t-29 15.5v5q18 4 29 15t17 26t8 31.5t2 31.5q0 26 -4 52t-8.5 50.5t-8.5 48.5t-4 47q0 69 43 113.5t137 52.5v-5z" />
    <glyph glyph-name="bar" unicode="|" horiz-adv-x="280" 
d="M175 -200h-70v1010h70v-1010z" />
    <glyph glyph-name="braceright" unicode="}" horiz-adv-x="296" 
d="M35 820q94 -8 137 -52.5t43 -113.5q0 -23 -4 -47t-8.5 -48.5t-8.5 -50.5t-4 -52q0 -15 2 -31.5t8 -31.5t17 -26t29 -15v-5q-18 -4 -29 -15.5t-17 -26.5t-8 -32t-2 -32q0 -26 4 -52t8.5 -50.5t8.5 -48.5t4 -47q0 -69 -43 -113.5t-137 -52.5v5q53 14 76.5 55.5t23.5 96.5
q0 25 -4 52t-8.5 55t-8.5 55.5t-4 52.5q0 41 12.5 66t41.5 35q-29 9 -41.5 34t-12.5 64q0 25 4 52.5t8.5 55t8.5 55t4 52.5q0 55 -23.5 96.5t-76.5 55.5v5z" />
    <glyph glyph-name="asciitilde" unicode="~" horiz-adv-x="590" 
d="M431 405q54 0 84.5 -24.5t34.5 -87.5h-5q-17 37 -43.5 47t-52.5 10q-30 0 -67 -6.5t-76 -14.5t-77 -14.5t-70 -6.5q-54 0 -84.5 24.5t-34.5 87.5h5q17 -37 43.5 -47t52.5 -10q30 0 67 6.5t76 14.5t77 14.5t70 6.5z" />
    <glyph glyph-name="exclamdown" unicode="&#xa1;" horiz-adv-x="340" 
d="M170 490q25 0 42.5 -17.5t17.5 -42.5t-17.5 -42.5t-42.5 -17.5t-42.5 17.5t-17.5 42.5t17.5 42.5t42.5 17.5zM120 -270l30 530h40l30 -530h-100z" />
    <glyph glyph-name="cent" unicode="&#xa2;" horiz-adv-x="485" 
d="M304 75q30 0 66 11t80 44l5 -5q-13 -39 -33.5 -65t-44.5 -41.5t-50.5 -22t-52.5 -6.5h-4l-8 -91l-40 4l8 91q-39 8 -73 30t-59 54t-39 74t-14 91q0 60 21 105t54 75.5t73.5 46.5t79.5 19l8 91l40 -3l-8 -88q45 -2 80 -15.5t62 -33.5l-63 -84l-84 72l-31 -351
q7 -1 13.5 -1.5t13.5 -0.5zM135 271q0 -66 26 -115t77 -69l32 363q-60 -5 -97.5 -51t-37.5 -128z" />
    <glyph glyph-name="sterling" unicode="&#xa3;" horiz-adv-x="653" 
d="M608 105q-20 -34 -38 -56t-37.5 -35t-42.5 -18.5t-52 -5.5q-22 0 -48 7.5t-53.5 17t-56.5 17t-58 7.5t-57 -10.5t-54 -38.5l-40 30q31 39 53 69.5t35.5 57t20 51t6.5 51.5q0 22 -3.5 41.5t-9.5 39.5h-138l20 50h101q-13 35 -24.5 70.5t-11.5 73.5q0 48 20 83t52.5 58
t74.5 34t85 11q70 0 137 -27l53 27v-219l-117 157q-33 12 -69 12q-60 0 -98 -36.5t-38 -106.5q0 -34 8.5 -67.5t16.5 -69.5h250l-20 -50h-221q1 -10 1.5 -20t0.5 -21q0 -45 -15 -94.5t-57 -111.5q23 14 45.5 20.5t51.5 6.5q28 0 54 -6.5t52.5 -14.5t55 -14.5t59.5 -6.5
q30 0 56 12t45 30z" />
    <glyph glyph-name="currency" unicode="&#xa4;" horiz-adv-x="642" 
d="M596 265q0 -52 -17.5 -97.5t-49.5 -81.5l68 -68l-29 -29l-68 68q-36 -32 -81.5 -49.5t-97.5 -17.5t-97.5 17.5t-81.5 49.5l-68 -68l-29 29l68 68q-32 36 -49.5 81.5t-17.5 97.5t17.5 97.5t49.5 81.5l-68 68l29 29l68 -68q36 32 81.5 49.5t97.5 17.5t97.5 -17.5
t81.5 -49.5l68 68l29 -29l-68 -68q32 -36 49.5 -81.5t17.5 -97.5zM321 30q48 0 89.5 19t73 51t49.5 74.5t18 90.5t-18 90.5t-49.5 74.5t-73 51t-89.5 19t-89.5 -19t-73 -51t-49.5 -74.5t-18 -90.5t18 -90.5t49.5 -74.5t73 -51t89.5 -19z" />
    <glyph glyph-name="yen" unicode="&#xa5;" horiz-adv-x="725" 
d="M645 640l-160 -230h135v-50h-170l-36 -52v-38h206v-50h-206v-160l80 -60h-259l79 59v161h-204v50h204v38l-36 52h-168v50h134l-164 237l-70 53h275l-80 -60l182 -271l188 271v1l-119 59h269z" />
    <glyph glyph-name="brokenbar" unicode="&#xa6;" horiz-adv-x="280" 
d="M175 400h-70v410h70v-410zM175 -200h-70v410h70v-410z" />
    <glyph glyph-name="section" unicode="&#xa7;" horiz-adv-x="596" 
d="M435 112q44 -24 72.5 -61t28.5 -98q0 -47 -18 -82.5t-49.5 -60.5t-75.5 -37.5t-95 -12.5q-65 0 -119 17.5t-103 43.5v159l106 -143q28 -14 55.5 -20.5t59.5 -6.5q44 0 72 12t44 30t22 39.5t6 41.5q0 48 -27.5 77t-68.5 48.5t-89.5 34.5t-89.5 36t-68.5 53t-27.5 86
q0 63 36.5 107t92.5 73q-48 23 -81 58t-33 95q0 40 16.5 73t46.5 56.5t72 36.5t94 13q51 0 96 -12.5t95 -38.5v-168l-117 158q-17 5 -33.5 8t-36.5 3q-43 0 -70.5 -12.5t-43.5 -30.5t-22.5 -39t-6.5 -38q0 -40 27.5 -64t68.5 -41.5t89.5 -33t89.5 -38.5t68.5 -58.5
t27.5 -92.5q0 -62 -31.5 -102.5t-79.5 -67.5zM140 287q0 -34 22.5 -56t58 -37.5t79 -28.5t85.5 -30q49 25 67.5 56.5t18.5 64.5q0 39 -20 65t-52 45t-72 33t-80 29q-29 -13 -49.5 -31t-33 -37t-18.5 -38t-6 -35z" />
    <glyph glyph-name="dieresis" unicode="&#xa8;" horiz-adv-x="304" 
d="M52 566q-21 0 -36.5 15.5t-15.5 36.5q0 22 15.5 37t36.5 15q22 0 37 -15t15 -37q0 -21 -15 -36.5t-37 -15.5zM253 566q-21 0 -36.5 15.5t-15.5 36.5q0 22 15.5 37t36.5 15q22 0 37 -15t15 -37q0 -21 -15 -36.5t-37 -15.5z" />
    <glyph glyph-name="copyright" unicode="&#xa9;" horiz-adv-x="820" 
d="M410 710q75 0 140.5 -28.5t114 -77t77 -114t28.5 -140.5t-28.5 -140.5t-77 -114t-114 -77t-140.5 -28.5t-140.5 28.5t-114 77t-77 114t-28.5 140.5t28.5 140.5t77 114t114 77t140.5 28.5zM410 22q67 0 126 26t102.5 71t69 104.5t25.5 126.5t-25.5 126.5t-69 104.5
t-102.5 71t-126 26t-126 -26t-102.5 -71t-69 -104.5t-25.5 -126.5t25.5 -126.5t69 -104.5t102.5 -71t126 -26zM425 200q30 0 65.5 12.5t67.5 44.5l2 -2q-12 -29 -29.5 -48t-37 -30t-40 -15.5t-39.5 -4.5q-35 0 -68.5 13t-59.5 38t-42 60t-16 80q0 46 17 82t45 61t65.5 38.5
t77.5 13.5q41 0 85 -14l32 14v-66q-1 0 -1 1v-61l-68 93q-25 6 -49 6q-64 0 -106 -39.5t-42 -116.5q0 -71 38 -115.5t103 -44.5z" />
    <glyph glyph-name="guillemotleft" unicode="&#xab;" horiz-adv-x="460" 
d="M130 260l120 -200l-5 -5l-220 205l220 205l5 -5zM320 260l120 -200l-5 -5l-220 205l220 205l5 -5z" />
    <glyph glyph-name="logicalnot" unicode="&#xac;" horiz-adv-x="590" 
d="M550 375v-162h-50v112h-460v50h510z" />
    <glyph glyph-name="registered" unicode="&#xae;" horiz-adv-x="820" 
d="M410 710q75 0 140.5 -28.5t114 -77t77 -114t28.5 -140.5t-28.5 -140.5t-77 -114t-114 -77t-140.5 -28.5t-140.5 28.5t-114 77t-77 114t-28.5 140.5t28.5 140.5t77 114t114 77t140.5 28.5zM410 22q67 0 126 26t102.5 71t69 104.5t25.5 126.5t-25.5 126.5t-69 104.5
t-102.5 71t-126 26t-126 -26t-102.5 -71t-69 -104.5t-25.5 -126.5t25.5 -126.5t69 -104.5t102.5 -71t126 -26zM448 346q40 -63 77 -111.5t86 -72.5v-3q-42 -4 -71 7t-53.5 36t-50.5 64.5t-62 93.5q33 2 54.5 9.5t34 18.5t17.5 24.5t5 27.5q0 34 -22.5 52.5t-62.5 18.5h-55
v-317l43 -32h-139l43 32v311l-43 32h156q60 0 99.5 -21t39.5 -69q0 -38 -26.5 -64t-69.5 -37z" />
    <glyph glyph-name="macron" unicode="&#xaf;" horiz-adv-x="346" 
d="M346 651v-65h-346v65h346z" />
    <glyph glyph-name="degree" unicode="&#xb0;" horiz-adv-x="244" 
d="M122 566q-25 0 -47 9.5t-38.5 26t-26.5 38.5t-10 46q0 25 10 47t26.5 38.5t38.5 26.5t47 10t47 -10t38.5 -26.5t26.5 -38.5t10 -47q0 -24 -10 -46t-26.5 -38.5t-38.5 -26t-47 -9.5zM122 604q35 0 58.5 23.5t23.5 58.5q0 36 -23.5 60t-58.5 24t-58.5 -24t-23.5 -60
q0 -35 23.5 -58.5t58.5 -23.5z" />
    <glyph glyph-name="plusminus" unicode="&#xb1;" horiz-adv-x="590" 
d="M550 415v-50h-230v-230h-50v230h-230v50h230v230h50v-230h230zM40 50h510v-50h-510v50z" />
    <glyph glyph-name="acute" unicode="&#xb4;" horiz-adv-x="250" 
d="M0 555l130 155h120l-245 -160z" />
    <glyph glyph-name="paragraph" unicode="&#xb6;" horiz-adv-x="640" 
d="M540 640v-790h-60v800h-120v-800h-180l120 60v350h-17q-52 0 -99 15t-82 43.5t-56 71t-21 97.5t21 95t56 66.5t82 39t99 12.5h337z" />
    <glyph glyph-name="periodcentered" unicode="&#xb7;" horiz-adv-x="220" 
d="M110 210q-25 0 -42.5 17.5t-17.5 42.5t17.5 42.5t42.5 17.5t42.5 -17.5t17.5 -42.5t-17.5 -42.5t-42.5 -17.5z" />
    <glyph glyph-name="cedilla" unicode="&#xb8;" horiz-adv-x="600" 
 />
    <glyph glyph-name="guillemotright" unicode="&#xbb;" horiz-adv-x="460" 
d="M245 260l-220 -205l-5 5l120 200l-120 200l5 5zM435 260l-220 -205l-5 5l120 200l-120 200l5 5z" />
    <glyph glyph-name="onequarter" unicode="&#xbc;" horiz-adv-x="992" 
d="M668 740l-315 -800h-51l315 800h51zM150 308v324l-93 35l156 53v-412l100 -38h-263zM881 111v-73l50 -38h-182l75 38v73h-191l-25 20l216 307l57 12v-289h70l-10 -50h-60zM824 161v222l-156 -222h156z" />
    <glyph glyph-name="onehalf" unicode="&#xbd;" horiz-adv-x="958" 
d="M668 740l-315 -800h-51l315 800h51zM150 308v324l-93 35l156 53v-412l100 -38h-263zM918 112v-112h-300q69 65 113.5 112.5t69.5 84t34.5 63.5t9.5 51q0 40 -22 60t-60 20q-36 0 -67.5 -18.5t-55.5 -59.5l-3 3q16 63 56 95.5t97 32.5t87 -29.5t30 -80.5q0 -33 -13 -65
t-37 -65.5t-58 -70t-76 -77.5h153z" />
    <glyph glyph-name="threequarters" unicode="&#xbe;" horiz-adv-x="1051" 
d="M688 740l-315 -800h-51l315 800h51zM247 530q34 -17 55 -46.5t21 -71.5q0 -36 -16.5 -64t-43 -47.5t-60 -30t-66.5 -10.5q-31 0 -55 8t-42 22l38 50l65 -49q24 0 46.5 7.5t40 21.5t27.5 33.5t10 43.5q0 32 -20 58t-61 38q-12 -5 -25.5 -10.5t-27.5 -10.5l-10 25
q33 13 53.5 26t32.5 25.5t16 25.5t4 25q0 27 -15.5 44t-49.5 17q-24 0 -56 -12.5t-65 -50.5l-3 3q51 110 146 110q54 0 79.5 -28t25.5 -66q0 -49 -44 -86zM901 111v-73l50 -38h-182l75 38v73h-191l-25 20l216 307l57 12v-289h70l-10 -50h-60zM844 161v222l-156 -222h156z
" />
    <glyph glyph-name="questiondown" unicode="&#xbf;" horiz-adv-x="428" 
d="M253 490q25 0 42.5 -17.5t17.5 -42.5t-17.5 -42.5t-42.5 -17.5t-42.5 17.5t-17.5 42.5t17.5 42.5t42.5 17.5zM274 260q8 -48 0.5 -85t-23 -66.5t-35.5 -54t-38 -49t-30.5 -51.5t-12.5 -61q0 -55 33.5 -90.5t86.5 -42.5l120 94l63 -84q-38 -23 -89 -36.5t-105 -13.5
q-42 0 -79.5 9t-66.5 28.5t-46 49t-17 70.5q0 39 14.5 69.5t37 58t48 54t48 56t37 65t14.5 80.5h40z" />
    <glyph glyph-name="Agrave" unicode="&#xc0;" horiz-adv-x="707" 
d="M382 770l-245 160h120l130 -155zM717 0h-273l80 60l-84 205h-229l-86 -205l119 -60h-209l312 730h6l289 -674zM419 315l-93 226l-94 -226h187z" />
    <glyph glyph-name="Aacute" unicode="&#xc1;" horiz-adv-x="707" 
d="M314 770l-5 5l130 155h120zM717 0h-273l80 60l-84 205h-229l-86 -205l119 -60h-209l312 730h6l289 -674zM419 315l-93 226l-94 -226h187z" />
    <glyph glyph-name="Acircumflex" unicode="&#xc2;" horiz-adv-x="707" 
d="M188 770l-5 5l165 180l165 -180l-5 -5l-160 90zM717 0h-273l80 60l-84 205h-229l-86 -205l119 -60h-209l312 730h6l289 -674zM419 315l-93 226l-94 -226h187z" />
    <glyph glyph-name="Atilde" unicode="&#xc3;" horiz-adv-x="707" 
d="M276 813q-48 0 -72 36.5t-26 90.5h5q14 -34 36 -45.5t41 -11.5q21 0 39.5 9t37.5 19.5t39 19.5t44 9q48 0 72 -36.5t26 -90.5h-5q-14 34 -36 45.5t-41 11.5q-21 0 -39.5 -9t-37.5 -19.5t-39 -19.5t-44 -9zM717 0h-273l80 60l-84 205h-229l-86 -205l119 -60h-209l312 730
h6l289 -674zM419 315l-93 226l-94 -226h187z" />
    <glyph glyph-name="Adieresis" unicode="&#xc4;" horiz-adv-x="707" 
d="M248 786q-21 0 -36.5 15.5t-15.5 36.5q0 22 15.5 37t36.5 15q22 0 37 -15t15 -37q0 -21 -15 -36.5t-37 -15.5zM449 786q-21 0 -36.5 15.5t-15.5 36.5q0 22 15.5 37t36.5 15q22 0 37 -15t15 -37q0 -21 -15 -36.5t-37 -15.5zM717 0h-273l80 60l-84 205h-229l-86 -205
l119 -60h-209l312 730h6l289 -674zM419 315l-93 226l-94 -226h187z" />
    <glyph glyph-name="Aring" unicode="&#xc5;" horiz-adv-x="707" 
d="M717 0h-273l80 60l-84 205h-229l-86 -205l119 -60h-209l297 695q-22 3 -41.5 13.5t-33.5 26.5t-22.5 36.5t-8.5 42.5q0 25 10 47t26.5 38.5t38.5 26.5t47 10t47 -10t38.5 -26.5t26.5 -38.5t10 -47q0 -22 -8 -42t-21.5 -35.5t-32.5 -26.5t-40 -14l274 -640zM266 814
q0 -35 23.5 -58.5t58.5 -23.5t58.5 23.5t23.5 58.5q0 36 -23.5 60t-58.5 24t-58.5 -24t-23.5 -60zM419 315l-93 226l-94 -226h187z" />
    <glyph glyph-name="AE" unicode="&#xc6;" horiz-adv-x="977" 
d="M932 179v-179h-460v265h-199l-126 -205l119 -60h-231l409 654l-92 46h550v-179l-97 129h-233v-265h179l68 90v-230l-68 90h-179v-285h263zM472 315v274l-168 -274h168z" />
    <glyph glyph-name="Ccedilla" unicode="&#xc7;" horiz-adv-x="710" 
d="M670 173q-21 -48 -49 -81t-59.5 -54.5t-65 -32t-66.5 -13.5l-24 -59q54 -17 76 -41.5t22 -56.5q0 -42 -29.5 -63.5t-69.5 -21.5q-24 0 -42 7.5t-31 19.5t-20.5 26.5t-12.5 29.5l5 5q17 -12 37 -20t41 -8q20 0 33.5 10t13.5 33q0 18 -12.5 34t-53.5 33l28 70
q-65 1 -126.5 26t-109 71t-76.5 111.5t-29 147.5q0 86 31.5 153.5t84.5 114t122.5 71.5t144.5 25q37 0 78.5 -6t81.5 -20l57 26v-235l-129 173q-23 7 -46 9.5t-44 2.5q-60 0 -110.5 -18.5t-87 -55.5t-57.5 -91t-21 -125q0 -66 18.5 -121t52.5 -95t82.5 -62t108.5 -22
q57 0 122.5 24t125.5 84z" />
    <glyph glyph-name="Egrave" unicode="&#xc8;" horiz-adv-x="620" 
d="M344 770l-245 160h120l130 -155zM575 179v-179h-540l80 60v580l-80 60h510v-179l-97 129h-233v-265h179l68 90v-230l-68 90h-179v-285h263z" />
    <glyph glyph-name="Eacute" unicode="&#xc9;" horiz-adv-x="620" 
d="M276 770l-5 5l130 155h120zM575 179v-179h-540l80 60v580l-80 60h510v-179l-97 129h-233v-265h179l68 90v-230l-68 90h-179v-285h263z" />
    <glyph glyph-name="Ecircumflex" unicode="&#xca;" horiz-adv-x="620" 
d="M150 770l-5 5l165 180l165 -180l-5 -5l-160 90zM575 179v-179h-540l80 60v580l-80 60h510v-179l-97 129h-233v-265h179l68 90v-230l-68 90h-179v-285h263z" />
    <glyph glyph-name="Edieresis" unicode="&#xcb;" horiz-adv-x="620" 
d="M210 786q-21 0 -36.5 15.5t-15.5 36.5q0 22 15.5 37t36.5 15q22 0 37 -15t15 -37q0 -21 -15 -36.5t-37 -15.5zM411 786q-21 0 -36.5 15.5t-15.5 36.5q0 22 15.5 37t36.5 15q22 0 37 -15t15 -37q0 -21 -15 -36.5t-37 -15.5zM575 179v-179h-540l80 60v580l-80 60h510v-179
l-97 129h-233v-265h179l68 90v-230l-68 90h-179v-285h263z" />
    <glyph glyph-name="Igrave" unicode="&#xcc;" horiz-adv-x="340" 
d="M204 770l-245 160h120l130 -155zM220 60l80 -60h-260l80 60v580l-80 60h260l-80 -60v-580z" />
    <glyph glyph-name="Iacute" unicode="&#xcd;" horiz-adv-x="340" 
d="M136 770l-5 5l130 155h120zM220 640v-580l80 -60h-260l80 60v580l-80 60h260z" />
    <glyph glyph-name="Icircumflex" unicode="&#xce;" horiz-adv-x="340" 
d="M335 775l-5 -5l-160 90l-160 -90l-5 5l165 180zM220 640v-580l80 -60h-260l80 60v580l-80 60h260z" />
    <glyph glyph-name="Idieresis" unicode="&#xcf;" horiz-adv-x="340" 
d="M122 838q0 -21 -15 -36.5t-37 -15.5q-21 0 -36.5 15.5t-15.5 36.5q0 22 15.5 37t36.5 15q22 0 37 -15t15 -37zM271 890q22 0 37 -15t15 -37q0 -21 -15 -36.5t-37 -15.5q-21 0 -36.5 15.5t-15.5 36.5q0 22 15.5 37t36.5 15zM220 640v-580l80 -60h-260l80 60v580l-80 60
h260z" />
    <glyph glyph-name="Eth" unicode="&#xd0;" horiz-adv-x="775" 
d="M377 700q67 0 130 -19t111.5 -59.5t77.5 -104t29 -152.5q0 -85 -29 -152.5t-77.5 -115t-111.5 -72.5t-130 -25h-342l80 60v290h-95v45h95v245l-80 60h342zM367 50q56 0 101.5 21t78 60t50.5 95.5t18 128.5q0 75 -18 130.5t-50.5 92t-78 54.5t-101.5 18h-152v-255h145v-45
h-145v-300h152z" />
    <glyph glyph-name="Ntilde" unicode="&#xd1;" horiz-adv-x="810" 
d="M328 773q-48 0 -72 36.5t-26 90.5h5q14 -34 36 -45.5t41 -11.5q21 0 42.5 9t44.5 19.5t46 19.5t47 9q48 0 72 -36.5t26 -90.5h-5q-14 34 -36 45.5t-41 11.5q-21 0 -42.5 -9t-44.5 -19.5t-46 -19.5t-47 -9zM705 640v-670h-6l-519 575v-485l120 -60h-265l80 60v580l-80 60
h138l467 -520v460l-120 60h265z" />
    <glyph glyph-name="Ograve" unicode="&#xd2;" horiz-adv-x="800" 
d="M189 930h120l130 -155l-5 -5zM402 710q67 0 130 -24t111.5 -69.5t77.5 -112t29 -151.5t-29.5 -152.5t-78 -114t-112 -71.5t-132.5 -25q-67 0 -130 24t-111.5 69.5t-77.5 112t-29 151.5t29.5 152.5t78 114t112 71.5t132.5 25zM420 40q51 0 92 20t69.5 57.5t43.5 90.5
t15 119q0 78 -20 139.5t-55.5 104.5t-83 66t-101.5 23q-51 0 -92 -20t-69.5 -57.5t-43.5 -90.5t-15 -119q0 -78 20 -139.5t55.5 -104.5t83 -66t101.5 -23z" />
    <glyph glyph-name="Oacute" unicode="&#xd3;" horiz-adv-x="800" 
d="M361 775l130 155h120l-245 -160zM402 710q67 0 130 -24t111.5 -69.5t77.5 -112t29 -151.5t-29.5 -152.5t-78 -114t-112 -71.5t-132.5 -25q-67 0 -130 24t-111.5 69.5t-77.5 112t-29 151.5t29.5 152.5t78 114t112 71.5t132.5 25zM420 40q51 0 92 20t69.5 57.5t43.5 90.5
t15 119q0 78 -20 139.5t-55.5 104.5t-83 66t-101.5 23q-51 0 -92 -20t-69.5 -57.5t-43.5 -90.5t-15 -119q0 -78 20 -139.5t55.5 -104.5t83 -66t101.5 -23z" />
    <glyph glyph-name="Ocircumflex" unicode="&#xd4;" horiz-adv-x="800" 
d="M240 770l-5 5l165 180l165 -180l-5 -5l-160 90zM402 710q67 0 130 -24t111.5 -69.5t77.5 -112t29 -151.5t-29.5 -152.5t-78 -114t-112 -71.5t-132.5 -25q-67 0 -130 24t-111.5 69.5t-77.5 112t-29 151.5t29.5 152.5t78 114t112 71.5t132.5 25zM420 40q51 0 92 20
t69.5 57.5t43.5 90.5t15 119q0 78 -20 139.5t-55.5 104.5t-83 66t-101.5 23q-51 0 -92 -20t-69.5 -57.5t-43.5 -90.5t-15 -119q0 -78 20 -139.5t55.5 -104.5t83 -66t101.5 -23z" />
    <glyph glyph-name="Otilde" unicode="&#xd5;" horiz-adv-x="800" 
d="M482 900q48 0 72 -36.5t26 -90.5h-5q-14 34 -36 45.5t-41 11.5q-21 0 -42.5 -9t-44.5 -19.5t-46 -19.5t-47 -9q-48 0 -72 36.5t-26 90.5h5q14 -34 36 -45.5t41 -11.5q21 0 42.5 9t44.5 19.5t46 19.5t47 9zM402 710q67 0 130 -24t111.5 -69.5t77.5 -112t29 -151.5
t-29.5 -152.5t-78 -114t-112 -71.5t-132.5 -25q-67 0 -130 24t-111.5 69.5t-77.5 112t-29 151.5t29.5 152.5t78 114t112 71.5t132.5 25zM420 40q51 0 92 20t69.5 57.5t43.5 90.5t15 119q0 78 -20 139.5t-55.5 104.5t-83 66t-101.5 23q-51 0 -92 -20t-69.5 -57.5t-43.5 -90.5
t-15 -119q0 -78 20 -139.5t55.5 -104.5t83 -66t101.5 -23z" />
    <glyph glyph-name="Odieresis" unicode="&#xd6;" horiz-adv-x="800" 
d="M300 786q-21 0 -36.5 15.5t-15.5 36.5q0 22 15.5 37t36.5 15q22 0 37 -15t15 -37q0 -21 -15 -36.5t-37 -15.5zM501 786q-21 0 -36.5 15.5t-15.5 36.5q0 22 15.5 37t36.5 15q22 0 37 -15t15 -37q0 -21 -15 -36.5t-37 -15.5zM402 710q67 0 130 -24t111.5 -69.5t77.5 -112
t29 -151.5t-29.5 -152.5t-78 -114t-112 -71.5t-132.5 -25q-67 0 -130 24t-111.5 69.5t-77.5 112t-29 151.5t29.5 152.5t78 114t112 71.5t132.5 25zM420 40q51 0 92 20t69.5 57.5t43.5 90.5t15 119q0 78 -20 139.5t-55.5 104.5t-83 66t-101.5 23q-51 0 -92 -20t-69.5 -57.5
t-43.5 -90.5t-15 -119q0 -78 20 -139.5t55.5 -104.5t83 -66t101.5 -23z" />
    <glyph glyph-name="multiply" unicode="&#xd7;" horiz-adv-x="546" 
d="M308 350l198 -198l-35 -35l-198 198l-198 -198l-35 35l198 198l-198 198l35 35l198 -198l198 198l35 -35z" />
    <glyph glyph-name="Oslash" unicode="&#xd8;" horiz-adv-x="800" 
d="M619 637q59 -45 95 -116.5t36 -167.5q0 -85 -29.5 -152.5t-78 -114t-112 -71.5t-132.5 -25q-52 0 -101 14t-92 42l-45 -64l-33 23l45 65q-55 46 -88.5 115.5t-33.5 161.5q0 85 29.5 152.5t78 114t112 71.5t132.5 25q49 0 95.5 -12.5t88.5 -37.5l35 50l32 -24zM160 373
q0 -72 17 -129.5t47 -99.5l317 452q-67 64 -161 64q-51 0 -92 -20t-69.5 -57.5t-43.5 -90.5t-15 -119zM420 40q51 0 92 20t69.5 57.5t43.5 90.5t15 119q0 75 -19 135.5t-52 103.5l-318 -454q69 -72 169 -72z" />
    <glyph glyph-name="Ugrave" unicode="&#xd9;" horiz-adv-x="775" 
d="M434 770l-245 160h120l130 -155zM685 640v-340q0 -155 -75.5 -232.5t-205.5 -77.5q-62 0 -117 18t-96.5 54.5t-66 93t-24.5 134.5v350l-80 60h260l-80 -60v-340q0 -129 54.5 -192t155.5 -63t155.5 63t54.5 192v340l-120 60h265z" />
    <glyph glyph-name="Uacute" unicode="&#xda;" horiz-adv-x="775" 
d="M366 770l-5 5l130 155h120zM685 640v-340q0 -155 -75.5 -232.5t-205.5 -77.5q-62 0 -117 18t-96.5 54.5t-66 93t-24.5 134.5v350l-80 60h260l-80 -60v-340q0 -129 54.5 -192t155.5 -63t155.5 63t54.5 192v340l-120 60h265z" />
    <glyph glyph-name="Ucircumflex" unicode="&#xdb;" horiz-adv-x="775" 
d="M240 770l-5 5l165 180l165 -180l-5 -5l-160 90zM685 640v-340q0 -155 -75.5 -232.5t-205.5 -77.5q-62 0 -117 18t-96.5 54.5t-66 93t-24.5 134.5v350l-80 60h260l-80 -60v-340q0 -129 54.5 -192t155.5 -63t155.5 63t54.5 192v340l-120 60h265z" />
    <glyph glyph-name="Udieresis" unicode="&#xdc;" horiz-adv-x="775" 
d="M300 786q-21 0 -36.5 15.5t-15.5 36.5q0 22 15.5 37t36.5 15q22 0 37 -15t15 -37q0 -21 -15 -36.5t-37 -15.5zM501 786q-21 0 -36.5 15.5t-15.5 36.5q0 22 15.5 37t36.5 15q22 0 37 -15t15 -37q0 -21 -15 -36.5t-37 -15.5zM685 640v-340q0 -155 -75.5 -232.5
t-205.5 -77.5q-62 0 -117 18t-96.5 54.5t-66 93t-24.5 134.5v350l-80 60h260l-80 -60v-340q0 -129 54.5 -192t155.5 -63t155.5 63t54.5 192v340l-120 60h265z" />
    <glyph glyph-name="Yacute" unicode="&#xdd;" horiz-adv-x="725" 
d="M342 770l-5 5l130 155h120zM414 308v-248l80 -60h-259l79 59v249l-234 339l-70 53h275l-80 -60l182 -271l188 271v1l-119 59h269l-80 -60z" />
    <glyph glyph-name="Thorn" unicode="&#xde;" horiz-adv-x="690" 
d="M352 590q63 0 116 -14t91.5 -42.5t59.5 -71.5t21 -100t-21 -102t-59.5 -76t-91.5 -47.5t-116 -16.5h-137v-60l80 -60h-260l80 60v580l-80 60h260l-80 -60v-50h137zM342 170q90 0 139 48.5t49 136.5t-49 136.5t-139 48.5h-127v-370h127z" />
    <glyph glyph-name="germandbls" unicode="&#xdf;" horiz-adv-x="630" 
d="M404 445q0 -42 16 -68.5t40 -46t52 -34.5t52 -34.5t40 -46t16 -68.5q0 -72 -49 -114.5t-132 -42.5q-34 0 -66 8t-59 25v102l132 -95q27 8 50.5 28t23.5 60q0 29 -15.5 49t-38 37.5t-49.5 34.5t-49.5 39.5t-38 52.5t-15.5 73q0 53 26 94.5t81 86.5q0 26 -4 53.5t-15 50
t-30 37t-48 14.5q-28 0 -50.5 -13.5t-39 -38t-25.5 -58.5t-9 -75v-495l80 -60h-250l80 60v360h-100l100 75v30q0 69 21 117t54 79t74 45t82 14q76 0 119.5 -45t50.5 -130q-35 -21 -56 -42.5t-32.5 -42.5t-15 -40t-3.5 -35z" />
    <glyph glyph-name="agrave" unicode="&#xe0;" horiz-adv-x="535" 
d="M304 570l-195 200h110l90 -195zM525 75q-19 -50 -43 -67.5t-56 -17.5q-38 0 -61.5 19.5t-31.5 54.5h-5q-25 -35 -60.5 -54.5t-82.5 -19.5q-60 0 -97.5 31t-37.5 86q0 40 19.5 69.5t48.5 45.5h205v84q0 59 -24 84t-76 25q-35 0 -72 -11.5t-75 -38.5l-5 5q18 33 41.5 55.5
t50.5 37t55 21t55 6.5q68 0 104 -38t36 -111v-226q0 -35 14 -46.5t34 -11.5q14 0 27.5 4.5t31.5 18.5zM215 50q51 0 108 54v83h-156q-22 -27 -22 -66q0 -41 22 -56t48 -15z" />
    <glyph glyph-name="aacute" unicode="&#xe1;" horiz-adv-x="535" 
d="M236 570l-5 5l90 195h110zM525 75q-19 -50 -43 -67.5t-56 -17.5q-38 0 -61.5 19.5t-31.5 54.5h-5q-25 -35 -60.5 -54.5t-82.5 -19.5q-60 0 -97.5 31t-37.5 86q0 40 19.5 69.5t48.5 45.5h205v84q0 59 -24 84t-76 25q-35 0 -72 -11.5t-75 -38.5l-5 5q18 33 41.5 55.5
t50.5 37t55 21t55 6.5q68 0 104 -38t36 -111v-226q0 -35 14 -46.5t34 -11.5q14 0 27.5 4.5t31.5 18.5zM215 50q51 0 108 54v83h-156q-22 -27 -22 -66q0 -41 22 -56t48 -15z" />
    <glyph glyph-name="acircumflex" unicode="&#xe2;" horiz-adv-x="535" 
d="M110 560l-5 5l165 220l165 -220l-5 -5l-160 130zM525 75q-19 -50 -43 -67.5t-56 -17.5q-38 0 -61.5 19.5t-31.5 54.5h-5q-25 -35 -60.5 -54.5t-82.5 -19.5q-60 0 -97.5 31t-37.5 86q0 40 19.5 69.5t48.5 45.5h205v84q0 59 -24 84t-76 25q-35 0 -72 -11.5t-75 -38.5l-5 5
q18 33 41.5 55.5t50.5 37t55 21t55 6.5q68 0 104 -38t36 -111v-226q0 -35 14 -46.5t34 -11.5q14 0 27.5 4.5t31.5 18.5zM215 50q51 0 108 54v83h-156q-22 -27 -22 -66q0 -41 22 -56t48 -15z" />
    <glyph glyph-name="atilde" unicode="&#xe3;" horiz-adv-x="535" 
d="M198 593q-48 0 -72 36.5t-26 90.5h5q14 -34 36 -45.5t41 -11.5q21 0 39.5 9t37.5 19.5t39 19.5t44 9q48 0 72 -36.5t26 -90.5h-5q-14 34 -36 45.5t-41 11.5q-21 0 -39.5 -9t-37.5 -19.5t-39 -19.5t-44 -9zM525 75q-19 -50 -43 -67.5t-56 -17.5q-38 0 -61.5 19.5
t-31.5 54.5h-5q-25 -35 -60.5 -54.5t-82.5 -19.5q-60 0 -97.5 31t-37.5 86q0 40 19.5 69.5t48.5 45.5h205v84q0 59 -24 84t-76 25q-35 0 -72 -11.5t-75 -38.5l-5 5q18 33 41.5 55.5t50.5 37t55 21t55 6.5q68 0 104 -38t36 -111v-226q0 -35 14 -46.5t34 -11.5q14 0 27.5 4.5
t31.5 18.5zM215 50q51 0 108 54v83h-156q-22 -27 -22 -66q0 -41 22 -56t48 -15z" />
    <glyph glyph-name="adieresis" unicode="&#xe4;" horiz-adv-x="535" 
d="M170 606q-21 0 -36.5 15.5t-15.5 36.5q0 22 15.5 37t36.5 15q22 0 37 -15t15 -37q0 -21 -15 -36.5t-37 -15.5zM371 606q-21 0 -36.5 15.5t-15.5 36.5q0 22 15.5 37t36.5 15q22 0 37 -15t15 -37q0 -21 -15 -36.5t-37 -15.5zM525 75q-19 -50 -43 -67.5t-56 -17.5
q-38 0 -61.5 19.5t-31.5 54.5h-5q-25 -35 -60.5 -54.5t-82.5 -19.5q-60 0 -97.5 31t-37.5 86q0 40 19.5 69.5t48.5 45.5h205v84q0 59 -24 84t-76 25q-35 0 -72 -11.5t-75 -38.5l-5 5q18 33 41.5 55.5t50.5 37t55 21t55 6.5q68 0 104 -38t36 -111v-226q0 -35 14 -46.5
t34 -11.5q14 0 27.5 4.5t31.5 18.5zM215 50q51 0 108 54v83h-156q-22 -27 -22 -66q0 -41 22 -56t48 -15z" />
    <glyph glyph-name="aring" unicode="&#xe5;" horiz-adv-x="535" 
d="M270 561q-25 0 -47 9.5t-38.5 26t-26.5 38.5t-10 46q0 25 10 47t26.5 38.5t38.5 26.5t47 10t47 -10t38.5 -26.5t26.5 -38.5t10 -47q0 -24 -10 -46t-26.5 -38.5t-38.5 -26t-47 -9.5zM270 767q-35 0 -58.5 -25t-23.5 -61q0 -35 23.5 -59.5t58.5 -24.5t58.5 24.5t23.5 59.5
q0 36 -23.5 61t-58.5 25zM525 75q-19 -50 -43 -67.5t-56 -17.5q-38 0 -61.5 19.5t-31.5 54.5h-5q-25 -35 -60.5 -54.5t-82.5 -19.5q-60 0 -97.5 31t-37.5 86q0 40 19.5 69.5t48.5 45.5h205v84q0 59 -24 84t-76 25q-35 0 -72 -11.5t-75 -38.5l-5 5q18 33 41.5 55.5t50.5 37
t55 21t55 6.5q68 0 104 -38t36 -111v-226q0 -35 14 -46.5t34 -11.5q14 0 27.5 4.5t31.5 18.5zM215 50q51 0 108 54v83h-156q-22 -27 -22 -66q0 -41 22 -56t48 -15z" />
    <glyph glyph-name="ae" unicode="&#xe6;" horiz-adv-x="793" 
d="M592 75q30 0 66 11t80 44l5 -5q-13 -39 -33.5 -65t-44.5 -41.5t-50.5 -22t-52.5 -6.5q-66 0 -119.5 34.5t-82.5 94.5q-19 -60 -63 -94.5t-106 -34.5q-63 0 -102 31t-39 86q0 40 19.5 69.5t48.5 45.5h215v84q0 59 -24 84t-76 25q-35 0 -72 -11.5t-75 -38.5l-5 5
q18 33 41.5 55.5t50.5 37t55 21t55 6.5q88 0 122 -64q33 32 75.5 48t87.5 16q35 0 67 -10.5t57 -33t41.5 -57.5t19.5 -84h-329q-1 -8 -1 -15.5v-15.5q0 -43 11 -80t32 -63t52.5 -41t73.5 -15zM554 453q-45 0 -77.5 -29.5t-46.5 -83.5h218q0 47 -21.5 80t-72.5 33zM216 50
q14 0 33 7t36.5 22.5t30.5 42t16 65.5h-165q-22 -27 -22 -64q0 -21 6.5 -35t16.5 -22.5t22.5 -12t25.5 -3.5z" />
    <glyph glyph-name="ccedilla" unicode="&#xe7;" horiz-adv-x="485" 
d="M304 75q30 0 66 11t80 44l5 -5q-12 -36 -30.5 -61t-40.5 -41t-46.5 -23.5t-48.5 -8.5l-23 -58q54 -17 76 -41.5t22 -56.5q0 -42 -29.5 -63.5t-69.5 -21.5q-24 0 -42 7.5t-31 19.5t-20.5 26.5t-12.5 29.5l5 5q17 -12 37 -20t41 -8q20 0 33.5 10t13.5 33q0 18 -12.5 34
t-53.5 33l28 71q-43 4 -80.5 24.5t-65.5 53.5t-44 77.5t-16 96.5q0 64 23.5 110.5t59.5 77t79.5 45t84.5 14.5q53 0 93 -13.5t70 -36.5l-63 -84l-110 94q-65 0 -106 -46t-41 -133q0 -42 10.5 -77.5t32 -62t53 -41.5t73.5 -15z" />
    <glyph glyph-name="egrave" unicode="&#xe8;" horiz-adv-x="505" 
d="M309 570l-195 200h110l90 -195zM304 75q30 0 66 11t80 44l5 -5q-13 -39 -33.5 -65t-44.5 -41.5t-50.5 -22t-52.5 -6.5q-47 0 -89 18.5t-73 52t-49 80.5t-18 103q0 60 20 105.5t52.5 77t75 47.5t87.5 16q35 0 67 -10.5t57 -33t41.5 -57.5t19.5 -84h-329q-1 -8 -1 -15.5
v-15.5q0 -43 11 -80t32 -63t52.5 -41t73.5 -15zM266 453q-45 0 -77.5 -29.5t-46.5 -83.5h218q0 47 -21.5 80t-72.5 33z" />
    <glyph glyph-name="eacute" unicode="&#xe9;" horiz-adv-x="505" 
d="M241 570l-5 5l90 195h110zM304 75q30 0 66 11t80 44l5 -5q-13 -39 -33.5 -65t-44.5 -41.5t-50.5 -22t-52.5 -6.5q-47 0 -89 18.5t-73 52t-49 80.5t-18 103q0 60 20 105.5t52.5 77t75 47.5t87.5 16q35 0 67 -10.5t57 -33t41.5 -57.5t19.5 -84h-329q-1 -8 -1 -15.5v-15.5
q0 -43 11 -80t32 -63t52.5 -41t73.5 -15zM266 453q-45 0 -77.5 -29.5t-46.5 -83.5h218q0 47 -21.5 80t-72.5 33z" />
    <glyph glyph-name="ecircumflex" unicode="&#xea;" horiz-adv-x="505" 
d="M115 560l-5 5l165 220l165 -220l-5 -5l-160 130zM304 75q30 0 66 11t80 44l5 -5q-13 -39 -33.5 -65t-44.5 -41.5t-50.5 -22t-52.5 -6.5q-47 0 -89 18.5t-73 52t-49 80.5t-18 103q0 60 20 105.5t52.5 77t75 47.5t87.5 16q35 0 67 -10.5t57 -33t41.5 -57.5t19.5 -84h-329
q-1 -8 -1 -15.5v-15.5q0 -43 11 -80t32 -63t52.5 -41t73.5 -15zM266 453q-45 0 -77.5 -29.5t-46.5 -83.5h218q0 47 -21.5 80t-72.5 33z" />
    <glyph glyph-name="edieresis" unicode="&#xeb;" horiz-adv-x="505" 
d="M175 606q-21 0 -36.5 15.5t-15.5 36.5q0 22 15.5 37t36.5 15q22 0 37 -15t15 -37q0 -21 -15 -36.5t-37 -15.5zM376 606q-21 0 -36.5 15.5t-15.5 36.5q0 22 15.5 37t36.5 15q22 0 37 -15t15 -37q0 -21 -15 -36.5t-37 -15.5zM304 75q30 0 66 11t80 44l5 -5
q-13 -39 -33.5 -65t-44.5 -41.5t-50.5 -22t-52.5 -6.5q-47 0 -89 18.5t-73 52t-49 80.5t-18 103q0 60 20 105.5t52.5 77t75 47.5t87.5 16q35 0 67 -10.5t57 -33t41.5 -57.5t19.5 -84h-329q-1 -8 -1 -15.5v-15.5q0 -43 11 -80t32 -63t52.5 -41t73.5 -15zM266 453
q-45 0 -77.5 -29.5t-46.5 -83.5h218q0 47 -21.5 80t-72.5 33z" />
    <glyph glyph-name="igrave" unicode="&#xec;" horiz-adv-x="295" 
d="M-13 770h110l90 -195l-5 -5zM275 0h-250l80 60v308l-70 52l160 70v-430z" />
    <glyph glyph-name="iacute" unicode="&#xed;" horiz-adv-x="295" 
d="M109 575l90 195h110l-195 -200zM275 0h-250l80 60v308l-70 52l160 70v-430z" />
    <glyph glyph-name="icircumflex" unicode="&#xee;" horiz-adv-x="295" 
d="M313 565l-5 -5l-160 130l-160 -130l-5 5l165 220zM275 0h-250l80 60v308l-70 52l160 70v-430z" />
    <glyph glyph-name="idieresis" unicode="&#xef;" horiz-adv-x="295" 
d="M48 566q-21 0 -36.5 15.5t-15.5 36.5q0 22 15.5 37t36.5 15q22 0 37 -15t15 -37q0 -21 -15 -36.5t-37 -15.5zM249 566q-21 0 -36.5 15.5t-15.5 36.5q0 22 15.5 37t36.5 15q22 0 37 -15t15 -37q0 -21 -15 -36.5t-37 -15.5zM275 0h-250l80 60v308l-70 52l160 70v-430z" />
    <glyph glyph-name="eth" unicode="&#xf0;" 
d="M364 674q86 -70 128.5 -177t42.5 -247q0 -66 -19.5 -114.5t-53 -81t-78 -48.5t-94.5 -16t-94.5 17t-78 48.5t-53 76t-19.5 98.5t19.5 98.5t53 76t78 48.5t94.5 17q77 0 132 -36q-29 119 -111 196l-99 -83l-29 34l93 78q-36 26 -79 46t-94 35l15 40q124 -23 208 -79l94 79
l29 -34zM306 30q34 0 57.5 15.5t37.5 40.5t20.5 57t6.5 65q0 47 -9.5 87.5t-28.5 70.5t-48 47t-68 17q-34 0 -57.5 -15.5t-38.5 -40.5t-21.5 -57t-6.5 -65q0 -47 12.5 -87.5t33.5 -70.5t49.5 -47t60.5 -17z" />
    <glyph glyph-name="ntilde" unicode="&#xf1;" horiz-adv-x="620" 
d="M402 720q48 0 72 -36.5t26 -90.5h-5q-14 34 -36 45.5t-41 11.5q-21 0 -39.5 -9t-37.5 -19.5t-39 -19.5t-44 -9q-48 0 -72 36.5t-26 90.5h5q14 -34 36 -45.5t41 -11.5q21 0 39.5 9t37.5 19.5t39 19.5t44 9zM600 0h-250l80 60v246q0 33 -7.5 54t-20.5 33.5t-31 17t-40 4.5
q-24 0 -60 -9t-76 -40v-306l80 -60h-250l80 60v308l-70 52l160 70l-15 -84l5 -5q38 38 83.5 63.5t110.5 25.5q26 0 51 -6.5t45 -22.5t32.5 -43t12.5 -67v-291z" />
    <glyph glyph-name="ograve" unicode="&#xf2;" 
d="M129 770h110l90 -195l-5 -5zM290 -10q-50 0 -94.5 17.5t-78 49.5t-53 78.5t-19.5 104.5t19.5 104.5t53 78.5t78 49.5t94.5 17.5t94.5 -17.5t78 -49.5t53 -78.5t19.5 -104.5t-19.5 -104.5t-53 -78.5t-78 -49.5t-94.5 -17.5zM306 30q34 0 57.5 15.5t37.5 41.5t20.5 60
t6.5 71q0 51 -12 93.5t-33 73t-49 48t-60 17.5q-34 0 -57.5 -15.5t-38.5 -41.5t-21.5 -60t-6.5 -71q0 -51 12.5 -93.5t33.5 -73t49.5 -48t60.5 -17.5z" />
    <glyph glyph-name="oacute" unicode="&#xf3;" 
d="M251 575l90 195h110l-195 -200zM290 -10q-50 0 -94.5 17.5t-78 49.5t-53 78.5t-19.5 104.5t19.5 104.5t53 78.5t78 49.5t94.5 17.5t94.5 -17.5t78 -49.5t53 -78.5t19.5 -104.5t-19.5 -104.5t-53 -78.5t-78 -49.5t-94.5 -17.5zM306 30q34 0 57.5 15.5t37.5 41.5t20.5 60
t6.5 71q0 51 -12 93.5t-33 73t-49 48t-60 17.5q-34 0 -57.5 -15.5t-38.5 -41.5t-21.5 -60t-6.5 -71q0 -51 12.5 -93.5t33.5 -73t49.5 -48t60.5 -17.5z" />
    <glyph glyph-name="ocircumflex" unicode="&#xf4;" 
d="M455 565l-5 -5l-160 130l-160 -130l-5 5l165 220zM290 -10q-50 0 -94.5 17.5t-78 49.5t-53 78.5t-19.5 104.5t19.5 104.5t53 78.5t78 49.5t94.5 17.5t94.5 -17.5t78 -49.5t53 -78.5t19.5 -104.5t-19.5 -104.5t-53 -78.5t-78 -49.5t-94.5 -17.5zM306 30q34 0 57.5 15.5
t37.5 41.5t20.5 60t6.5 71q0 51 -12 93.5t-33 73t-49 48t-60 17.5q-34 0 -57.5 -15.5t-38.5 -41.5t-21.5 -60t-6.5 -71q0 -51 12.5 -93.5t33.5 -73t49.5 -48t60.5 -17.5z" />
    <glyph glyph-name="otilde" unicode="&#xf5;" 
d="M362 720q48 0 72 -36.5t26 -90.5h-5q-14 34 -36 45.5t-41 11.5q-21 0 -39.5 -9t-37.5 -19.5t-39 -19.5t-44 -9q-48 0 -72 36.5t-26 90.5h5q14 -34 36 -45.5t41 -11.5q21 0 39.5 9t37.5 19.5t39 19.5t44 9zM290 -10q-50 0 -94.5 17.5t-78 49.5t-53 78.5t-19.5 104.5
t19.5 104.5t53 78.5t78 49.5t94.5 17.5t94.5 -17.5t78 -49.5t53 -78.5t19.5 -104.5t-19.5 -104.5t-53 -78.5t-78 -49.5t-94.5 -17.5zM306 30q34 0 57.5 15.5t37.5 41.5t20.5 60t6.5 71q0 51 -12 93.5t-33 73t-49 48t-60 17.5q-34 0 -57.5 -15.5t-38.5 -41.5t-21.5 -60
t-6.5 -71q0 -51 12.5 -93.5t33.5 -73t49.5 -48t60.5 -17.5z" />
    <glyph glyph-name="odieresis" unicode="&#xf6;" 
d="M190 606q-21 0 -36.5 15.5t-15.5 36.5q0 22 15.5 37t36.5 15q22 0 37 -15t15 -37q0 -21 -15 -36.5t-37 -15.5zM391 606q-21 0 -36.5 15.5t-15.5 36.5q0 22 15.5 37t36.5 15q22 0 37 -15t15 -37q0 -21 -15 -36.5t-37 -15.5zM290 -10q-50 0 -94.5 17.5t-78 49.5t-53 78.5
t-19.5 104.5t19.5 104.5t53 78.5t78 49.5t94.5 17.5t94.5 -17.5t78 -49.5t53 -78.5t19.5 -104.5t-19.5 -104.5t-53 -78.5t-78 -49.5t-94.5 -17.5zM306 30q34 0 57.5 15.5t37.5 41.5t20.5 60t6.5 71q0 51 -12 93.5t-33 73t-49 48t-60 17.5q-34 0 -57.5 -15.5t-38.5 -41.5
t-21.5 -60t-6.5 -71q0 -51 12.5 -93.5t33.5 -73t49.5 -48t60.5 -17.5z" />
    <glyph glyph-name="divide" unicode="&#xf7;" horiz-adv-x="590" 
d="M295 470q-25 0 -42.5 17.5t-17.5 42.5t17.5 42.5t42.5 17.5t42.5 -17.5t17.5 -42.5t-17.5 -42.5t-42.5 -17.5zM550 375v-50h-510v50h510zM295 100q-25 0 -42.5 17.5t-17.5 42.5t17.5 42.5t42.5 17.5t42.5 -17.5t17.5 -42.5t-17.5 -42.5t-42.5 -17.5z" />
    <glyph glyph-name="oslash" unicode="&#xf8;" 
d="M449 436q39 -32 62.5 -82t23.5 -114q0 -58 -19.5 -104.5t-53 -78.5t-78 -49.5t-94.5 -17.5q-71 0 -130 34l-44 -63l-33 23l45 63q-38 33 -60.5 81.5t-22.5 111.5q0 58 19.5 104.5t53 78.5t78 49.5t94.5 17.5q70 0 126 -32l29 42l32 -24zM150 262q0 -41 8 -75.5t22 -63.5
l193 275q-20 25 -45 38.5t-54 13.5q-34 0 -57.5 -15.5t-38.5 -41.5t-21.5 -60t-6.5 -71zM306 30q34 0 57.5 15.5t37.5 41.5t20.5 60t6.5 71q0 42 -8.5 78t-22.5 65l-194 -275q44 -56 103 -56z" />
    <glyph glyph-name="ugrave" unicode="&#xf9;" horiz-adv-x="585" 
d="M122 770h110l90 -195l-5 -5zM555 38l-114 -48l-31 89h-5q-11 -11 -30.5 -26.5t-45 -29.5t-56 -23.5t-62.5 -9.5q-22 0 -45.5 6.5t-42.5 22.5t-31 43t-12 67v239l-70 52l160 70v-316q0 -33 7 -54t19.5 -33.5t28.5 -17t34 -4.5q24 0 60 9t76 40v254l-70 52l160 70v-400z
" />
    <glyph glyph-name="uacute" unicode="&#xfa;" horiz-adv-x="585" 
d="M244 575l90 195h110l-195 -200zM555 38l-114 -48l-31 89h-5q-11 -11 -30.5 -26.5t-45 -29.5t-56 -23.5t-62.5 -9.5q-22 0 -45.5 6.5t-42.5 22.5t-31 43t-12 67v239l-70 52l160 70v-316q0 -33 7 -54t19.5 -33.5t28.5 -17t34 -4.5q24 0 60 9t76 40v254l-70 52l160 70v-400z
" />
    <glyph glyph-name="ucircumflex" unicode="&#xfb;" horiz-adv-x="585" 
d="M448 565l-5 -5l-160 130l-160 -130l-5 5l165 220zM555 38l-114 -48l-31 89h-5q-11 -11 -30.5 -26.5t-45 -29.5t-56 -23.5t-62.5 -9.5q-22 0 -45.5 6.5t-42.5 22.5t-31 43t-12 67v239l-70 52l160 70v-316q0 -33 7 -54t19.5 -33.5t28.5 -17t34 -4.5q24 0 60 9t76 40v254
l-70 52l160 70v-400z" />
    <glyph glyph-name="udieresis" unicode="&#xfc;" horiz-adv-x="585" 
d="M183 606q-21 0 -36.5 15.5t-15.5 36.5q0 22 15.5 37t36.5 15q22 0 37 -15t15 -37q0 -21 -15 -36.5t-37 -15.5zM384 606q-21 0 -36.5 15.5t-15.5 36.5q0 22 15.5 37t36.5 15q22 0 37 -15t15 -37q0 -21 -15 -36.5t-37 -15.5zM555 38l-114 -48l-31 89h-5
q-11 -11 -30.5 -26.5t-45 -29.5t-56 -23.5t-62.5 -9.5q-22 0 -45.5 6.5t-42.5 22.5t-31 43t-12 67v239l-70 52l160 70v-316q0 -33 7 -54t19.5 -33.5t28.5 -17t34 -4.5q24 0 60 9t76 40v254l-70 52l160 70v-400z" />
    <glyph glyph-name="yacute" unicode="&#xfd;" horiz-adv-x="570" 
d="M259 550l-5 5l130 155h120zM233 -160l137 -80h-243l141 295l-199 374l-69 51h257l-80 -60l139 -265l114 265l-88 60h228l-80 -60z" />
    <glyph glyph-name="thorn" unicode="&#xfe;" horiz-adv-x="605" 
d="M301 -10q-21 0 -50 3.5t-56 11.5v-186l119 -59h-289l80 60v838l-70 52l160 70v-365q24 30 64 52.5t91 22.5q38 0 75.5 -15t67.5 -44.5t48.5 -74t18.5 -104.5q0 -64 -22 -113t-58 -82t-82.5 -50t-96.5 -17zM318 415q-32 0 -64.5 -12.5t-58.5 -36.5v-244q0 -22 9.5 -39.5
t25.5 -29t36.5 -17.5t41.5 -6q66 0 109 53t43 147q0 87 -38 136t-104 49z" />
    <glyph glyph-name="ydieresis" unicode="&#xff;" horiz-adv-x="570" 
d="M193 606q-21 0 -36.5 15.5t-15.5 36.5q0 22 15.5 37t36.5 15q22 0 37 -15t15 -37q0 -21 -15 -36.5t-37 -15.5zM394 606q-21 0 -36.5 15.5t-15.5 36.5q0 22 15.5 37t36.5 15q22 0 37 -15t15 -37q0 -21 -15 -36.5t-37 -15.5zM233 -160l137 -80h-243l141 295l-199 374
l-69 51h257l-80 -60l139 -265l114 265l-88 60h228l-80 -60z" />
    <glyph glyph-name="Amacron" unicode="&#x100;" horiz-adv-x="707" 
d="M522 806h-346v65h346v-65zM717 0h-273l80 60l-84 205h-229l-86 -205l119 -60h-209l312 730h6l289 -674zM419 315l-93 226l-94 -226h187z" />
    <glyph glyph-name="amacron" unicode="&#x101;" horiz-adv-x="535" 
d="M424 616h-306v65h306v-65zM525 75q-19 -50 -43 -67.5t-56 -17.5q-38 0 -61.5 19.5t-31.5 54.5h-5q-25 -35 -60.5 -54.5t-82.5 -19.5q-60 0 -97.5 31t-37.5 86q0 40 19.5 69.5t48.5 45.5h205v84q0 59 -24 84t-76 25q-35 0 -72 -11.5t-75 -38.5l-5 5q18 33 41.5 55.5
t50.5 37t55 21t55 6.5q68 0 104 -38t36 -111v-226q0 -35 14 -46.5t34 -11.5q14 0 27.5 4.5t31.5 18.5zM215 50q51 0 108 54v83h-156q-22 -27 -22 -66q0 -41 22 -56t48 -15z" />
    <glyph glyph-name="Abreve" unicode="&#x102;" horiz-adv-x="707" 
d="M348 770q-32 0 -59.5 12t-48 32.5t-33 47.5t-14.5 58l5 5q32 -47 67 -66t83 -19t83 19t67 66l5 -5q-2 -31 -14.5 -58t-33 -47.5t-48 -32.5t-59.5 -12zM717 0h-273l80 60l-84 205h-229l-86 -205l119 -60h-209l312 730h6l289 -674zM419 315l-93 226l-94 -226h187z" />
    <glyph glyph-name="abreve" unicode="&#x103;" horiz-adv-x="535" 
d="M270 590q-28 0 -55 12.5t-48.5 35.5t-35.5 56.5t-16 75.5l5 5q16 -34 34 -56.5t37 -35.5t39 -18t40 -5t40 5t39 18t37 35.5t34 56.5l5 -5q-2 -42 -16 -75.5t-35.5 -56.5t-48.5 -35.5t-55 -12.5zM525 75q-19 -50 -43 -67.5t-56 -17.5q-38 0 -61.5 19.5t-31.5 54.5h-5
q-25 -35 -60.5 -54.5t-82.5 -19.5q-60 0 -97.5 31t-37.5 86q0 40 19.5 69.5t48.5 45.5h205v84q0 59 -24 84t-76 25q-35 0 -72 -11.5t-75 -38.5l-5 5q18 33 41.5 55.5t50.5 37t55 21t55 6.5q68 0 104 -38t36 -111v-226q0 -35 14 -46.5t34 -11.5q14 0 27.5 4.5t31.5 18.5z
M215 50q51 0 108 54v83h-156q-22 -27 -22 -66q0 -41 22 -56t48 -15z" />
    <glyph glyph-name="Aogonek" unicode="&#x104;" horiz-adv-x="727" 
d="M717 0h-173q-45 -29 -59.5 -61t-14.5 -61q0 -36 14.5 -49.5t40.5 -13.5q32 0 65 23l5 -5q-4 -15 -12.5 -30t-21.5 -26.5t-30 -19t-40 -7.5q-46 0 -71 29t-25 74q0 20 6 43t22.5 48t45 50t72.5 49l-94 222h-236l-88 -205l119 -60h-207l312 730h6l289 -674zM426 315
l-96 225l-97 -225h193z" />
    <glyph glyph-name="aogonek" unicode="&#x105;" horiz-adv-x="535" 
d="M456 -175q31 0 64 23l5 -5q-4 -15 -12.5 -30t-21.5 -26.5t-30.5 -19t-40.5 -7.5q-45 0 -70 27t-25 70q0 36 25 69t67 64q-34 3 -55.5 22.5t-28.5 51.5h-5q-25 -35 -60.5 -54.5t-82.5 -19.5q-60 0 -97.5 31t-37.5 86q0 40 19.5 69.5t48.5 45.5h205v84q0 59 -24 84t-76 25
q-35 0 -72 -11.5t-75 -38.5l-5 5q18 33 41.5 55.5t50.5 37t55 21t55 6.5q68 0 104 -38t36 -111v-226q0 -35 14 -46.5t34 -11.5q14 0 27.5 4.5t31.5 18.5l5 -5q-13 -35 -28.5 -53t-34.5 -26q-28 -27 -45 -56t-17 -55q0 -35 16.5 -47.5t39.5 -12.5zM215 50q51 0 108 54v83
h-156q-22 -27 -22 -66q0 -41 22 -56t48 -15z" />
    <glyph glyph-name="Cacute" unicode="&#x106;" horiz-adv-x="710" 
d="M381 770l-5 5l130 155h120zM670 173q-24 -54 -56 -89.5t-68.5 -56t-74.5 -29t-74 -8.5q-66 0 -128.5 24.5t-111 70.5t-78 112t-29.5 149q0 86 31.5 153.5t84.5 114t122.5 71.5t144.5 25q37 0 78.5 -6t81.5 -20l57 26v-235l-129 173q-23 7 -46 9.5t-44 2.5
q-60 0 -110.5 -18.5t-87 -55.5t-57.5 -91t-21 -125q0 -66 18.5 -121t52.5 -95t82.5 -62t108.5 -22q57 0 122.5 24t125.5 84z" />
    <glyph glyph-name="cacute" unicode="&#x107;" horiz-adv-x="485" 
d="M241 570l-5 5l90 195h110zM304 75q30 0 66 11t80 44l5 -5q-13 -39 -33.5 -65t-44.5 -41.5t-50.5 -22t-52.5 -6.5q-47 0 -89 18.5t-73 52.5t-49 80.5t-18 101.5q0 64 23.5 110.5t59.5 77t79.5 45t84.5 14.5q53 0 93 -13.5t70 -36.5l-63 -84l-110 94q-65 0 -106 -46
t-41 -133q0 -42 10.5 -77.5t32 -62t53 -41.5t73.5 -15z" />
    <glyph glyph-name="Cdotaccent" unicode="&#x10a;" horiz-adv-x="710" 
d="M411 781q-25 0 -42.5 17.5t-17.5 42.5t17.5 42.5t42.5 17.5t42.5 -17.5t17.5 -42.5t-17.5 -42.5t-42.5 -17.5zM670 173q-24 -54 -56 -89.5t-68.5 -56t-74.5 -29t-74 -8.5q-66 0 -128.5 24.5t-111 70.5t-78 112t-29.5 149q0 86 31.5 153.5t84.5 114t122.5 71.5t144.5 25
q37 0 78.5 -6t81.5 -20l57 26v-235l-129 173q-23 7 -46 9.5t-44 2.5q-60 0 -110.5 -18.5t-87 -55.5t-57.5 -91t-21 -125q0 -66 18.5 -121t52.5 -95t82.5 -62t108.5 -22q57 0 122.5 24t125.5 84z" />
    <glyph glyph-name="cdotaccent" unicode="&#x10b;" horiz-adv-x="485" 
d="M271 591q-25 0 -42.5 17.5t-17.5 42.5t17.5 42.5t42.5 17.5t42.5 -17.5t17.5 -42.5t-17.5 -42.5t-42.5 -17.5zM304 75q30 0 66 11t80 44l5 -5q-13 -39 -33.5 -65t-44.5 -41.5t-50.5 -22t-52.5 -6.5q-47 0 -89 18.5t-73 52.5t-49 80.5t-18 101.5q0 64 23.5 110.5t59.5 77
t79.5 45t84.5 14.5q53 0 93 -13.5t70 -36.5l-63 -84l-110 94q-65 0 -106 -46t-41 -133q0 -42 10.5 -77.5t32 -62t53 -41.5t73.5 -15z" />
    <glyph glyph-name="Ccaron" unicode="&#x10c;" horiz-adv-x="710" 
d="M415 750l-165 180l5 5l160 -90l160 90l5 -5zM670 173q-24 -54 -56 -89.5t-68.5 -56t-74.5 -29t-74 -8.5q-66 0 -128.5 24.5t-111 70.5t-78 112t-29.5 149q0 86 31.5 153.5t84.5 114t122.5 71.5t144.5 25q37 0 78.5 -6t81.5 -20l57 26v-235l-129 173q-23 7 -46 9.5
t-44 2.5q-60 0 -110.5 -18.5t-87 -55.5t-57.5 -91t-21 -125q0 -66 18.5 -121t52.5 -95t82.5 -62t108.5 -22q57 0 122.5 24t125.5 84z" />
    <glyph glyph-name="ccaron" unicode="&#x10d;" horiz-adv-x="485" 
d="M275 560l-165 220l5 5l160 -130l160 130l5 -5zM304 75q30 0 66 11t80 44l5 -5q-13 -39 -33.5 -65t-44.5 -41.5t-50.5 -22t-52.5 -6.5q-47 0 -89 18.5t-73 52.5t-49 80.5t-18 101.5q0 64 23.5 110.5t59.5 77t79.5 45t84.5 14.5q53 0 93 -13.5t70 -36.5l-63 -84l-110 94
q-65 0 -106 -46t-41 -133q0 -42 10.5 -77.5t32 -62t53 -41.5t73.5 -15z" />
    <glyph glyph-name="Dcaron" unicode="&#x10e;" horiz-adv-x="775" 
d="M370 750l-165 180l5 5l160 -90l160 90l5 -5zM377 700q67 0 130 -19t111.5 -59.5t77.5 -104t29 -152.5q0 -85 -29 -152.5t-77.5 -115t-111.5 -72.5t-130 -25h-342l80 60v580l-80 60h342zM367 50q56 0 101.5 21t78 60t50.5 95.5t18 128.5q0 75 -18 130.5t-50.5 92t-78 54.5
t-101.5 18h-152v-600h152z" />
    <glyph glyph-name="dcaron" unicode="&#x10f;" horiz-adv-x="720" 
d="M500 90l70 -52l-114 -48l-31 89h-5q-11 -17 -27.5 -33t-37.5 -28.5t-46 -20t-54 -7.5q-38 0 -75.5 15t-67.5 44.5t-48.5 74t-18.5 104.5q0 65 22 114t58 82t83 49.5t96 16.5q21 0 50 -3.5t56 -11.5v183l-70 52l160 70v-690zM690 780l-52 -260h-5l-53 260h110zM287 65
q32 0 64.5 12.5t58.5 36.5v244q0 23 -9.5 40t-25.5 28.5t-36.5 17.5t-41.5 6q-66 0 -109 -53t-43 -147q0 -87 38 -136t104 -49z" />
    <glyph glyph-name="Dcroat" unicode="&#x110;" horiz-adv-x="775" 
d="M377 700q67 0 130 -19t111.5 -59.5t77.5 -104t29 -152.5q0 -85 -29 -152.5t-77.5 -115t-111.5 -72.5t-130 -25h-342l80 60v290h-95v45h95v245l-80 60h342zM367 50q56 0 101.5 21t78 60t50.5 95.5t18 128.5q0 75 -18 130.5t-50.5 92t-78 54.5t-101.5 18h-152v-255h145v-45
h-145v-300h152z" />
    <glyph glyph-name="dcroat" unicode="&#x111;" horiz-adv-x="600" 
d="M500 565v-475l70 -52l-114 -48l-31 89h-5q-11 -17 -27.5 -33t-37.5 -28.5t-46 -20t-54 -7.5q-38 0 -75.5 15t-67.5 44.5t-48.5 74t-18.5 104.5q0 65 22 114t58 82t83 49.5t96 16.5q21 0 50 -3.5t56 -11.5v90h-150v45h150v48l-70 52l160 70v-170h100v-45h-100zM287 65
q32 0 64.5 12.5t58.5 36.5v244q0 23 -9.5 40t-25.5 28.5t-36.5 17.5t-41.5 6q-66 0 -109 -53t-43 -147q0 -87 38 -136t104 -49z" />
    <glyph glyph-name="Emacron" unicode="&#x112;" horiz-adv-x="620" 
d="M484 806h-346v65h346v-65zM575 179v-179h-540l80 60v580l-80 60h510v-179l-97 129h-233v-265h179l68 90v-230l-68 90h-179v-285h263z" />
    <glyph glyph-name="emacron" unicode="&#x113;" horiz-adv-x="505" 
d="M429 616h-306v65h306v-65zM304 75q30 0 66 11t80 44l5 -5q-13 -39 -33.5 -65t-44.5 -41.5t-50.5 -22t-52.5 -6.5q-47 0 -89 18.5t-73 52t-49 80.5t-18 103q0 60 20 105.5t52.5 77t75 47.5t87.5 16q35 0 67 -10.5t57 -33t41.5 -57.5t19.5 -84h-329q-1 -8 -1 -15.5v-15.5
q0 -43 11 -80t32 -63t52.5 -41t73.5 -15zM266 453q-45 0 -77.5 -29.5t-46.5 -83.5h218q0 47 -21.5 80t-72.5 33z" />
    <glyph glyph-name="Edotaccent" unicode="&#x116;" horiz-adv-x="620" 
d="M306 781q-25 0 -42.5 17.5t-17.5 42.5t17.5 42.5t42.5 17.5t42.5 -17.5t17.5 -42.5t-17.5 -42.5t-42.5 -17.5zM575 179v-179h-540l80 60v580l-80 60h510v-179l-97 129h-233v-265h179l68 90v-230l-68 90h-179v-285h263z" />
    <glyph glyph-name="edotaccent" unicode="&#x117;" horiz-adv-x="505" 
d="M271 591q-25 0 -42.5 17.5t-17.5 42.5t17.5 42.5t42.5 17.5t42.5 -17.5t17.5 -42.5t-17.5 -42.5t-42.5 -17.5zM304 75q30 0 66 11t80 44l5 -5q-13 -39 -33.5 -65t-44.5 -41.5t-50.5 -22t-52.5 -6.5q-47 0 -89 18.5t-73 52t-49 80.5t-18 103q0 60 20 105.5t52.5 77
t75 47.5t87.5 16q35 0 67 -10.5t57 -33t41.5 -57.5t19.5 -84h-329q-1 -8 -1 -15.5v-15.5q0 -43 11 -80t32 -63t52.5 -41t73.5 -15zM266 453q-45 0 -77.5 -29.5t-46.5 -83.5h218q0 47 -21.5 80t-72.5 33z" />
    <glyph glyph-name="Eogonek" unicode="&#x118;" horiz-adv-x="620" 
d="M606 -167q-4 -15 -12.5 -30t-21.5 -26.5t-30.5 -19t-40.5 -7.5q-44 0 -69.5 26.5t-25.5 67.5q0 43 25 80.5t86 75.5h-482l80 60v580l-80 60h510v-179l-97 129h-233v-265h179l68 90v-230l-68 90h-179v-285h263l97 129v-179q-94 -61 -94 -129q0 -31 16 -43.5t40 -12.5
q31 0 64 23z" />
    <glyph glyph-name="eogonek" unicode="&#x119;" horiz-adv-x="505" 
d="M304 75q30 0 66 11t80 44l5 -5q-14 -42 -36 -68.5t-48 -41.5q-41 -33 -67.5 -70t-26.5 -70q0 -35 16.5 -47.5t39.5 -12.5q31 0 64 23l5 -5q-4 -15 -12.5 -30t-21.5 -26.5t-30.5 -19t-40.5 -7.5q-45 0 -70 27t-25 70q0 40 30 76t80 70q-19 -3 -38 -3q-47 0 -89 18.5
t-73 52t-49 80.5t-18 103q0 60 20 105.5t52.5 77t75 47.5t87.5 16q35 0 67 -10.5t57 -33t41.5 -57.5t19.5 -84h-329q-1 -8 -1 -15.5v-15.5q0 -43 11 -80t32 -63t52.5 -41t73.5 -15zM266 453q-45 0 -77.5 -29.5t-46.5 -83.5h218q0 47 -21.5 80t-72.5 33z" />
    <glyph glyph-name="Ecaron" unicode="&#x11a;" horiz-adv-x="620" 
d="M310 750l-165 180l5 5l160 -90l160 90l5 -5zM575 179v-179h-540l80 60v580l-80 60h510v-179l-97 129h-233v-265h179l68 90v-230l-68 90h-179v-285h263z" />
    <glyph glyph-name="ecaron" unicode="&#x11b;" horiz-adv-x="505" 
d="M275 560l-165 220l5 5l160 -130l160 130l5 -5zM304 75q30 0 66 11t80 44l5 -5q-13 -39 -33.5 -65t-44.5 -41.5t-50.5 -22t-52.5 -6.5q-47 0 -89 18.5t-73 52t-49 80.5t-18 103q0 60 20 105.5t52.5 77t75 47.5t87.5 16q35 0 67 -10.5t57 -33t41.5 -57.5t19.5 -84h-329
q-1 -8 -1 -15.5v-15.5q0 -43 11 -80t32 -63t52.5 -41t73.5 -15zM266 453q-45 0 -77.5 -29.5t-46.5 -83.5h218q0 47 -21.5 80t-72.5 33z" />
    <glyph glyph-name="Gbreve" unicode="&#x11e;" horiz-adv-x="725" 
d="M405 770q-32 0 -59.5 12t-48 32.5t-33 47.5t-14.5 58l5 5q32 -47 67 -66t83 -19t83 19t67 66l5 -5q-2 -31 -14.5 -58t-33 -47.5t-48 -32.5t-59.5 -12zM670 330v-330l-57 28q-46 -21 -95 -29.5t-94 -8.5q-79 0 -147.5 23.5t-118.5 68.5t-79 110.5t-29 150.5
q0 90 31.5 158.5t84 115t121.5 70t143 23.5q39 0 81.5 -7t84.5 -21l54 28v-219l-114 153q-28 9 -54 12.5t-51 3.5q-60 0 -109.5 -18.5t-85.5 -54.5t-56 -90t-20 -125q0 -70 19.5 -129t55.5 -102t86 -67t111 -24q26 0 65 5.5t83 21.5v165l-176 88h266z" />
    <glyph glyph-name="gbreve" unicode="&#x11f;" horiz-adv-x="525" 
d="M268 590q-28 0 -55 12.5t-48.5 35.5t-35.5 56.5t-16 75.5l5 5q16 -34 34 -56.5t37 -35.5t39 -18t40 -5t40 5t39 18t37 35.5t34 56.5l5 -5q-2 -42 -16 -75.5t-35.5 -56.5t-48.5 -35.5t-55 -12.5zM515 405l-121 41q26 -20 41.5 -49.5t15.5 -66.5t-16 -67t-43 -50.5
t-61.5 -31.5t-72.5 -11q-49 0 -91 18q-20 -17 -30 -35.5t-10 -35.5q0 -18 11 -30t33 -12h259q38 -19 61.5 -55t23.5 -84q0 -38 -17.5 -72t-52 -59.5t-85.5 -40t-119 -14.5q-109 0 -160 35.5t-51 92.5q0 30 17 60t62 54q-26 15 -40 40.5t-14 55.5q0 38 21 67t57 51
q-31 21 -49.5 52t-18.5 72q0 38 16 67.5t43 50t62 31.5t72 11q45 0 84 -15l173 10v-80zM266 207q44 0 67 33.5t23 81.5q0 27 -8 51t-22 42t-33.5 28t-42.5 10q-44 0 -67 -33.5t-23 -81.5q0 -27 8 -51t22 -42t33.5 -28t42.5 -10zM151 -10q-14 -17 -24.5 -39t-10.5 -51
q0 -50 37.5 -80t107.5 -30q43 0 73 9.5t49 25.5t28 38t9 47q0 38 -19 59t-61 21h-189z" />
    <glyph glyph-name="Gdotaccent" unicode="&#x120;" horiz-adv-x="725" 
d="M401 811q-25 0 -42.5 17.5t-17.5 42.5t17.5 42.5t42.5 17.5t42.5 -17.5t17.5 -42.5t-17.5 -42.5t-42.5 -17.5zM670 330v-330l-57 28q-46 -21 -95 -29.5t-94 -8.5q-79 0 -147.5 23.5t-118.5 68.5t-79 110.5t-29 150.5q0 90 31.5 158.5t84 115t121.5 70t143 23.5
q39 0 81.5 -7t84.5 -21l54 28v-219l-114 153q-28 9 -54 12.5t-51 3.5q-60 0 -109.5 -18.5t-85.5 -54.5t-56 -90t-20 -125q0 -70 19.5 -129t55.5 -102t86 -67t111 -24q26 0 65 5.5t83 21.5v165l-176 88h266z" />
    <glyph glyph-name="gdotaccent" unicode="&#x121;" horiz-adv-x="525" 
d="M264 591q-25 0 -42.5 17.5t-17.5 42.5t17.5 42.5t42.5 17.5t42.5 -17.5t17.5 -42.5t-17.5 -42.5t-42.5 -17.5zM515 405l-121 41q26 -20 41.5 -49.5t15.5 -66.5t-16 -67t-43 -50.5t-61.5 -31.5t-72.5 -11q-49 0 -91 18q-20 -17 -30 -35.5t-10 -35.5q0 -18 11 -30t33 -12
h259q38 -19 61.5 -55t23.5 -84q0 -38 -17.5 -72t-52 -59.5t-85.5 -40t-119 -14.5q-109 0 -160 35.5t-51 92.5q0 30 17 60t62 54q-26 15 -40 40.5t-14 55.5q0 38 21 67t57 51q-31 21 -49.5 52t-18.5 72q0 38 16 67.5t43 50t62 31.5t72 11q45 0 84 -15l173 10v-80zM266 207
q44 0 67 33.5t23 81.5q0 27 -8 51t-22 42t-33.5 28t-42.5 10q-44 0 -67 -33.5t-23 -81.5q0 -27 8 -51t22 -42t33.5 -28t42.5 -10zM151 -10q-14 -17 -24.5 -39t-10.5 -51q0 -50 37.5 -80t107.5 -30q43 0 73 9.5t49 25.5t28 38t9 47q0 38 -19 59t-61 21h-189z" />
    <glyph glyph-name="Gcommaaccent" unicode="&#x122;" horiz-adv-x="725" 
d="M670 330v-330l-57 28q-46 -21 -95 -29.5t-94 -8.5q-79 0 -147.5 23.5t-118.5 68.5t-79 110.5t-29 150.5q0 90 31.5 158.5t84 115t121.5 70t143 23.5q39 0 81.5 -7t84.5 -21l54 28v-219l-114 153q-28 9 -54 12.5t-51 3.5q-60 0 -109.5 -18.5t-85.5 -54.5t-56 -90t-20 -125
q0 -70 19.5 -129t55.5 -102t86 -67t111 -24q26 0 65 5.5t83 21.5v165l-176 88h266zM406 -65q20 0 35 -14.5t15 -49.5q0 -26 -10 -48t-26.5 -39.5t-37.5 -30.5t-44 -21l-2 4q31 20 44.5 43t13.5 46q0 20 -9.5 37t-25.5 28q0 17 12.5 31t34.5 14z" />
    <glyph glyph-name="gcommaaccent" unicode="&#x123;" horiz-adv-x="525" 
d="M260 590q-20 0 -35 14.5t-15 49.5q0 26 10 48t26.5 39.5t38 30.5t43.5 21l2 -4q-31 -20 -44.5 -43t-13.5 -46q0 -20 9.5 -37t25.5 -28q0 -17 -12.5 -31t-34.5 -14zM515 405l-121 41q26 -20 41.5 -49.5t15.5 -66.5t-16 -67t-43 -50.5t-61.5 -31.5t-72.5 -11q-49 0 -91 18
q-20 -17 -30 -35.5t-10 -35.5q0 -18 11 -30t33 -12h259q38 -19 61.5 -55t23.5 -84q0 -38 -17.5 -72t-52 -59.5t-85.5 -40t-119 -14.5q-109 0 -160 35.5t-51 92.5q0 30 17 60t62 54q-26 15 -40 40.5t-14 55.5q0 38 21 67t57 51q-31 21 -49.5 52t-18.5 72q0 38 16 67.5t43 50
t62 31.5t72 11q45 0 84 -15l173 10v-80zM266 207q44 0 67 33.5t23 81.5q0 27 -8 51t-22 42t-33.5 28t-42.5 10q-44 0 -67 -33.5t-23 -81.5q0 -27 8 -51t22 -42t33.5 -28t42.5 -10zM151 -10q-14 -17 -24.5 -39t-10.5 -51q0 -50 37.5 -80t107.5 -30q43 0 73 9.5t49 25.5t28 38
t9 47q0 38 -19 59t-61 21h-189z" />
    <glyph glyph-name="Hbar" unicode="&#x126;" horiz-adv-x="830" 
d="M715 505v-445l80 -60h-260l80 60v285h-400v-285l80 -60h-260l80 60v445h-85v50h85v85l-80 60h260l-80 -60v-85h400v85l-80 60h260l-80 -60v-85h85v-50h-85zM615 505h-400v-110h400v110z" />
    <glyph glyph-name="hbar" unicode="&#x127;" horiz-adv-x="620" 
d="M600 0h-250l80 60v246q0 33 -7.5 54t-20.5 33.5t-31 17t-40 4.5q-24 0 -60 -9t-76 -40v-306l80 -60h-250l80 60v505h-105v45h105v48l-70 52l160 70v-170h145v-45h-145v-74l-15 -85l5 -5q38 38 83.5 63.5t110.5 25.5q26 0 51 -6.5t45 -22.5t32.5 -43t12.5 -67v-291z" />
    <glyph glyph-name="Imacron" unicode="&#x12a;" horiz-adv-x="340" 
d="M344 871v-65h-346v65h346zM220 640v-580l80 -60h-260l80 60v580l-80 60h260z" />
    <glyph glyph-name="imacron" unicode="&#x12b;" horiz-adv-x="295" 
d="M322 651v-65h-346v65h346zM275 0h-250l80 60v308l-70 52l160 70v-430z" />
    <glyph glyph-name="Iogonek" unicode="&#x12e;" horiz-adv-x="340" 
d="M190 0q-94 -61 -94 -129q0 -31 16 -43.5t40 -12.5q31 0 64 23l5 -5q-4 -15 -12.5 -30t-21.5 -26.5t-30.5 -19t-40.5 -7.5q-44 0 -69.5 26.5t-25.5 67.5q0 43 25 80.5t86 75.5h-92l80 60v580l-80 60h260l-80 -60v-580l80 -60h-110z" />
    <glyph glyph-name="iogonek" unicode="&#x12f;" horiz-adv-x="295" 
d="M144 561q-25 0 -42.5 17.5t-17.5 42.5t17.5 42.5t42.5 17.5t42.5 -17.5t17.5 -42.5t-17.5 -42.5t-42.5 -17.5zM296 -157q-4 -15 -12.5 -30t-21.5 -26.5t-30.5 -19t-40.5 -7.5q-44 0 -69.5 26.5t-25.5 67.5q0 40 21.5 75.5t73.5 70.5h-166l80 60v308l-70 52l160 70v-430
l67 -50h3q-1 0 -1 -0.5t-1 -0.5l12 -9h-25q-79 -57 -79 -119q0 -31 16 -43.5t40 -12.5q31 0 64 23z" />
    <glyph glyph-name="Idotaccent" unicode="&#x130;" horiz-adv-x="340" 
d="M166 781q-25 0 -42.5 17.5t-17.5 42.5t17.5 42.5t42.5 17.5t42.5 -17.5t17.5 -42.5t-17.5 -42.5t-42.5 -17.5zM220 60l80 -60h-260l80 60v580l-80 60h260l-80 -60v-580z" />
    <glyph glyph-name="dotlessi" unicode="&#x131;" horiz-adv-x="295" 
d="M275 0h-250l80 60v308l-70 52l160 70v-430z" />
    <glyph glyph-name="Kcommaaccent" unicode="&#x136;" horiz-adv-x="720" 
d="M295 0h-260l80 60v580l-80 60h260l-80 -60v-580zM380 385q59 -84 102.5 -147.5t83 -109.5t81.5 -77t98 -51v-5q-79 -8 -133 5t-102.5 54.5t-102.5 116t-133 190.5l281 279l-106 60h247zM364 -65q20 0 35 -14.5t15 -49.5q0 -26 -10 -48t-26.5 -39.5t-37.5 -30.5t-44 -21
l-2 4q31 20 44.5 43t13.5 46q0 20 -9.5 37t-25.5 28q0 17 12.5 31t34.5 14z" />
    <glyph glyph-name="kcommaaccent" unicode="&#x137;" 
d="M275 0h-250l80 60v598l-70 52l160 70v-720zM334 275q35 -57 62.5 -99t55 -74t58 -56.5t70.5 -45.5v-5q-59 -8 -100 0t-77.5 37t-74 83t-88.5 139l176 166l-111 60h241zM291 -65q20 0 35 -14.5t15 -49.5q0 -26 -10 -48t-26.5 -39.5t-37.5 -30.5t-44 -21l-2 4
q31 20 44.5 43t13.5 46q0 20 -9.5 37t-25.5 28q0 17 12.5 31t34.5 14z" />
    <glyph glyph-name="Lacute" unicode="&#x139;" horiz-adv-x="605" 
d="M131 770l-5 5l130 155h120zM575 179v-179h-540l80 60v580l-80 60h260l-80 -60v-590h263z" />
    <glyph glyph-name="lacute" unicode="&#x13a;" horiz-adv-x="295" 
d="M114 800l-5 5l130 155h120zM195 60l80 -60h-250l80 60v598l-70 52l160 70v-720z" />
    <glyph glyph-name="Lcommaaccent" unicode="&#x13b;" horiz-adv-x="605" 
d="M575 179v-179h-540l80 60v580l-80 60h260l-80 -60v-590h263zM344 -75q20 0 35 -14.5t15 -49.5q0 -26 -10 -48t-26.5 -39.5t-37.5 -30.5t-44 -21l-2 4q31 20 44.5 43t13.5 46q0 20 -9.5 37t-25.5 28q0 17 12.5 31t34.5 14z" />
    <glyph glyph-name="lcommaaccent" unicode="&#x13c;" horiz-adv-x="295" 
d="M105 60v598l-70 52l160 70v-720l80 -60h-250zM151 -65q20 0 35 -14.5t15 -49.5q0 -26 -10 -48t-26.5 -39.5t-37.5 -30.5t-44 -21l-2 4q31 20 44.5 43t13.5 46q0 20 -9.5 37t-25.5 28q0 17 12.5 31t34.5 14z" />
    <glyph glyph-name="Lcaron" unicode="&#x13d;" horiz-adv-x="620" 
d="M406 491q33 22 48 47.5t15 50.5q0 22 -10.5 41t-28.5 30q0 19 14 34.5t38 15.5q23 0 39.5 -15.5t16.5 -54.5q0 -28 -11 -52t-29.5 -43.5t-42 -34t-48.5 -23.5zM575 179v-179h-540l80 60v580l-80 60h260l-80 -60v-590h263z" />
    <glyph glyph-name="lcaron" unicode="&#x13e;" horiz-adv-x="415" 
d="M195 60l80 -60h-250l80 60v598l-70 52l160 70v-720zM385 780l-52 -260h-5l-53 260h110z" />
    <glyph glyph-name="Lslash" unicode="&#x141;" horiz-adv-x="625" 
d="M595 179v-179h-540l80 60v211l-105 -70v60l105 70v309l-80 60h260l-80 -60v-248l165 110v-60l-165 -109v-283h263z" />
    <glyph glyph-name="lslash" unicode="&#x142;" horiz-adv-x="335" 
d="M210 381v-321l80 -60h-250l80 60v258l-95 -67v60l95 67v280l-70 52l160 70v-339l95 66v-60z" />
    <glyph glyph-name="Nacute" unicode="&#x143;" horiz-adv-x="810" 
d="M376 770l-5 5l130 155h120zM705 640v-670h-6l-519 575v-485l120 -60h-265l80 60v580l-80 60h138l467 -520v460l-120 60h265z" />
    <glyph glyph-name="nacute" unicode="&#x144;" horiz-adv-x="620" 
d="M291 575l90 195h110l-195 -200zM600 0h-250l80 60v246q0 33 -7.5 54t-20.5 33.5t-31 17t-40 4.5q-24 0 -60 -9t-76 -40v-306l80 -60h-250l80 60v308l-70 52l160 70l-15 -84l5 -5q38 38 83.5 63.5t110.5 25.5q26 0 51 -6.5t45 -22.5t32.5 -43t12.5 -67v-291z" />
    <glyph glyph-name="Ncommaaccent" unicode="&#x145;" horiz-adv-x="810" 
d="M705 640v-670h-6l-519 575v-485l120 -60h-265l80 60v580l-80 60h138l467 -520v460l-120 60h265zM411 -65q20 0 35 -14.5t15 -49.5q0 -26 -10 -48t-26.5 -39.5t-37.5 -30.5t-44 -21l-2 4q31 20 44.5 43t13.5 46q0 20 -9.5 37t-25.5 28q0 17 12.5 31t34.5 14z" />
    <glyph glyph-name="ncommaaccent" unicode="&#x146;" horiz-adv-x="620" 
d="M600 0h-250l80 60v246q0 33 -7.5 54t-20.5 33.5t-31 17t-40 4.5q-24 0 -60 -9t-76 -40v-306l80 -60h-250l80 60v308l-70 52l160 70l-15 -84l5 -5q38 38 83.5 63.5t110.5 25.5q26 0 51 -6.5t45 -22.5t32.5 -43t12.5 -67v-291zM311 -65q20 0 35 -14.5t15 -49.5
q0 -26 -10 -48t-26.5 -39.5t-37.5 -30.5t-44 -21l-2 4q31 20 44.5 43t13.5 46q0 20 -9.5 37t-25.5 28q0 17 12.5 31t34.5 14z" />
    <glyph glyph-name="Ncaron" unicode="&#x147;" horiz-adv-x="810" 
d="M410 750l-165 180l5 5l160 -90l160 90l5 -5zM705 640v-670h-6l-519 575v-485l120 -60h-265l80 60v580l-80 60h138l467 -520v460l-120 60h265z" />
    <glyph glyph-name="ncaron" unicode="&#x148;" horiz-adv-x="620" 
d="M495 780l-165 -220l-165 220l5 5l160 -130l160 130zM600 0h-250l80 60v246q0 33 -7.5 54t-20.5 33.5t-31 17t-40 4.5q-24 0 -60 -9t-76 -40v-306l80 -60h-250l80 60v308l-70 52l160 70l-15 -84l5 -5q38 38 83.5 63.5t110.5 25.5q26 0 51 -6.5t45 -22.5t32.5 -43t12.5 -67
v-291z" />
    <glyph glyph-name="Eng" unicode="&#x14a;" horiz-adv-x="810" 
d="M705 640v-620q0 -107 -46.5 -167.5t-128.5 -92.5l-5 5q27 25 48 50.5t36 57t23 70.5t8 92l-460 510v-485l120 -60h-265l80 60v580l-80 60h138l467 -520v460l-120 60h265z" />
    <glyph glyph-name="eng" unicode="&#x14b;" horiz-adv-x="595" 
d="M379 490q26 0 51 -6.5t45 -22.5t32.5 -43t12.5 -67v-361q-1 -93 -37 -151.5t-118 -98.5l-5 5q40 51 55 110t15 145v306q0 33 -7.5 54t-20.5 33.5t-31 17t-40 4.5q-24 0 -60 -9t-76 -40v-306l80 -60h-250l80 60v308l-70 52l160 70l-15 -84l5 -5q11 11 31 26.5t45.5 29.5
t55.5 23.5t62 9.5z" />
    <glyph glyph-name="Omacron" unicode="&#x14c;" horiz-adv-x="800" 
d="M574 871v-65h-346v65h346zM402 710q67 0 130 -24t111.5 -69.5t77.5 -112t29 -151.5t-29.5 -152.5t-78 -114t-112 -71.5t-132.5 -25q-67 0 -130 24t-111.5 69.5t-77.5 112t-29 151.5t29.5 152.5t78 114t112 71.5t132.5 25zM420 40q51 0 92 20t69.5 57.5t43.5 90.5t15 119
q0 78 -20 139.5t-55.5 104.5t-83 66t-101.5 23q-51 0 -92 -20t-69.5 -57.5t-43.5 -90.5t-15 -119q0 -78 20 -139.5t55.5 -104.5t83 -66t101.5 -23z" />
    <glyph glyph-name="omacron" unicode="&#x14d;" 
d="M444 681v-65h-306v65h306zM290 -10q-50 0 -94.5 17.5t-78 49.5t-53 78.5t-19.5 104.5t19.5 104.5t53 78.5t78 49.5t94.5 17.5t94.5 -17.5t78 -49.5t53 -78.5t19.5 -104.5t-19.5 -104.5t-53 -78.5t-78 -49.5t-94.5 -17.5zM306 30q34 0 57.5 15.5t37.5 41.5t20.5 60t6.5 71
q0 51 -12 93.5t-33 73t-49 48t-60 17.5q-34 0 -57.5 -15.5t-38.5 -41.5t-21.5 -60t-6.5 -71q0 -51 12.5 -93.5t33.5 -73t49.5 -48t60.5 -17.5z" />
    <glyph glyph-name="Ohungarumlaut" unicode="&#x150;" horiz-adv-x="800" 
d="M291 775l90 155h120l-205 -160zM481 775l90 155h120l-205 -160zM402 710q67 0 130 -24t111.5 -69.5t77.5 -112t29 -151.5t-29.5 -152.5t-78 -114t-112 -71.5t-132.5 -25q-67 0 -130 24t-111.5 69.5t-77.5 112t-29 151.5t29.5 152.5t78 114t112 71.5t132.5 25zM420 40
q51 0 92 20t69.5 57.5t43.5 90.5t15 119q0 78 -20 139.5t-55.5 104.5t-83 66t-101.5 23q-51 0 -92 -20t-69.5 -57.5t-43.5 -90.5t-15 -119q0 -78 20 -139.5t55.5 -104.5t83 -66t101.5 -23z" />
    <glyph glyph-name="ohungarumlaut" unicode="&#x151;" 
d="M191 575l70 195h100l-165 -200zM361 575l70 195h100l-165 -200zM290 -10q-50 0 -94.5 17.5t-78 49.5t-53 78.5t-19.5 104.5t19.5 104.5t53 78.5t78 49.5t94.5 17.5t94.5 -17.5t78 -49.5t53 -78.5t19.5 -104.5t-19.5 -104.5t-53 -78.5t-78 -49.5t-94.5 -17.5zM306 30
q34 0 57.5 15.5t37.5 41.5t20.5 60t6.5 71q0 51 -12 93.5t-33 73t-49 48t-60 17.5q-34 0 -57.5 -15.5t-38.5 -41.5t-21.5 -60t-6.5 -71q0 -51 12.5 -93.5t33.5 -73t49.5 -48t60.5 -17.5z" />
    <glyph glyph-name="OE" unicode="&#x152;" horiz-adv-x="1015" 
d="M970 179v-179h-572q-67 0 -130 24.5t-111.5 70.5t-77.5 113t-29 152q0 89 29 153t77.5 105.5t111.5 61.5t130 20h542v-179l-97 129h-233v-265h179l68 90v-230l-68 90h-179v-285h263zM510 650h-102q-56 0 -101.5 -18.5t-78 -56t-50.5 -94t-18 -131.5q0 -72 18 -127.5
t50.5 -94t78 -58.5t101.5 -20h102v600z" />
    <glyph glyph-name="oe" unicode="&#x153;" horiz-adv-x="915" 
d="M714 75q30 0 66 11t80 44l5 -5q-13 -39 -33.5 -65t-44.5 -41.5t-50.5 -22t-52.5 -6.5q-59 0 -108.5 28t-80.5 78q-33 -51 -87 -78.5t-118 -27.5q-50 0 -94.5 17.5t-78 49.5t-53 78.5t-19.5 104.5t19.5 104.5t53 78.5t78 49.5t94.5 17.5q63 0 117 -27t87 -77
q33 51 85.5 77.5t110.5 26.5q35 0 67 -10.5t57 -33t41.5 -57.5t19.5 -84h-329q-1 -8 -1 -15.5v-15.5q0 -43 11 -80t32 -63t52.5 -41t73.5 -15zM676 453q-45 0 -77.5 -29.5t-46.5 -83.5h218q0 47 -21.5 80t-72.5 33zM306 30q34 0 57.5 15.5t37.5 41.5t20.5 60t6.5 71
q0 51 -12 93.5t-33 73t-49 48t-60 17.5q-34 0 -57.5 -15.5t-38.5 -41.5t-21.5 -60t-6.5 -71q0 -51 12.5 -93.5t33.5 -73t49.5 -48t60.5 -17.5z" />
    <glyph glyph-name="Racute" unicode="&#x154;" horiz-adv-x="685" 
d="M294 770l-5 5l130 155h120zM407 342q37 -57 71.5 -109.5t71 -96.5t75.5 -78.5t85 -57.5v-5q-79 -8 -132 12t-99 67t-94 121t-116 175q62 3 101.5 17t63 34.5t32.5 45.5t9 52q0 63 -41.5 97t-116.5 34h-102v-590l80 -60h-260l80 60v580l-80 60h292q56 0 103 -10
t81.5 -30.5t54 -52.5t19.5 -76q0 -72 -49 -120.5t-129 -68.5z" />
    <glyph glyph-name="racute" unicode="&#x155;" horiz-adv-x="390" 
d="M171 575l90 195h110l-195 -200zM345 382q-50 15 -88.5 5.5t-61.5 -31.5v-296l120 -60h-290l80 60v308l-70 52l160 70l-19 -107l5 -2q14 25 34 46.5t45.5 35.5t55.5 19.5t64 -2.5z" />
    <glyph glyph-name="Rcommaaccent" unicode="&#x156;" horiz-adv-x="685" 
d="M407 342q37 -57 71.5 -109.5t71 -96.5t75.5 -78.5t85 -57.5v-5q-79 -8 -132 12t-99 67t-94 121t-116 175q62 3 101.5 17t63 34.5t32.5 45.5t9 52q0 63 -41.5 97t-116.5 34h-102v-590l80 -60h-260l80 60v580l-80 60h292q56 0 103 -10t81.5 -30.5t54 -52.5t19.5 -76
q0 -72 -49 -120.5t-129 -68.5zM349 -65q20 0 35 -14.5t15 -49.5q0 -26 -10 -48t-26.5 -39.5t-37.5 -30.5t-44 -21l-2 4q31 20 44.5 43t13.5 46q0 20 -9.5 37t-25.5 28q0 17 12.5 31t34.5 14z" />
    <glyph glyph-name="rcommaaccent" unicode="&#x157;" horiz-adv-x="390" 
d="M345 382q-50 15 -88.5 5.5t-61.5 -31.5v-296l120 -60h-290l80 60v308l-70 52l160 70l-19 -107l5 -2q14 25 34 46.5t45.5 35.5t55.5 19.5t64 -2.5zM166 -65q20 0 35 -14.5t15 -49.5q0 -26 -10 -48t-26.5 -39.5t-37.5 -30.5t-44 -21l-2 4q31 20 44.5 43t13.5 46
q0 20 -9.5 37t-25.5 28q0 17 12.5 31t34.5 14z" />
    <glyph glyph-name="Rcaron" unicode="&#x158;" horiz-adv-x="685" 
d="M328 750l-165 180l5 5l160 -90l160 90l5 -5zM407 342q37 -57 71.5 -109.5t71 -96.5t75.5 -78.5t85 -57.5v-5q-79 -8 -132 12t-99 67t-94 121t-116 175q62 3 101.5 17t63 34.5t32.5 45.5t9 52q0 63 -41.5 97t-116.5 34h-102v-590l80 -60h-260l80 60v580l-80 60h292
q56 0 103 -10t81.5 -30.5t54 -52.5t19.5 -76q0 -72 -49 -120.5t-129 -68.5z" />
    <glyph glyph-name="rcaron" unicode="&#x159;" horiz-adv-x="390" 
d="M375 780l-165 -220l-165 220l5 5l160 -130l160 130zM345 382q-50 15 -88.5 5.5t-61.5 -31.5v-296l120 -60h-290l80 60v308l-70 52l160 70l-19 -107l5 -2q14 25 34 46.5t45.5 35.5t55.5 19.5t64 -2.5z" />
    <glyph glyph-name="Sacute" unicode="&#x15a;" 
d="M261 770l-5 5l130 155h120zM169 539q0 -38 26.5 -62t67 -43t87 -37.5t87 -45.5t67 -67t26.5 -102q0 -45 -18 -81t-49.5 -60.5t-75 -37.5t-94.5 -13q-45 0 -85 9t-76 23l-62 -31v219l106 -143q28 -14 55.5 -20.5t58.5 -6.5q45 0 72.5 12t42.5 30t20 40t5 41q0 47 -26.5 76
t-66 50t-85.5 39t-85.5 42.5t-66 61t-26.5 95.5q0 41 16.5 74.5t46.5 57.5t72.5 37.5t94.5 13.5q70 0 137 -27l53 27v-219l-117 157q-33 12 -69 12q-43 0 -70.5 -12.5t-42.5 -30.5t-20.5 -39t-5.5 -39z" />
    <glyph glyph-name="sacute" unicode="&#x15b;" horiz-adv-x="460" 
d="M191 575l90 195h110l-195 -200zM145 376q0 -28 19.5 -45.5t48 -30.5t62.5 -25t62.5 -29.5t48 -43t19.5 -65.5q0 -35 -15.5 -62.5t-40 -46t-56.5 -28.5t-65 -10q-29 0 -57.5 6.5t-53.5 17.5l-62 -24v167l79 -104q46 -23 88 -23q44 0 65.5 22t21.5 54q0 31 -19 50.5t-47 34
t-61 27t-61 29.5t-47 41.5t-19 63.5q0 36 16.5 62t42.5 43t58 25t63 8q26 0 50.5 -5.5t47.5 -14.5l52 20v-167l-88 117q-14 5 -28.5 7.5t-29.5 2.5q-50 0 -72 -23t-22 -51z" />
    <glyph glyph-name="Scedilla" unicode="&#x15e;" 
d="M530 182q0 -43 -16.5 -78t-46 -59.5t-70 -38.5t-88.5 -16l-23 -57q54 -17 76 -41.5t22 -56.5q0 -42 -29.5 -63.5t-69.5 -21.5q-24 0 -42 7.5t-31 19.5t-20.5 26.5t-12.5 29.5l5 5q17 -12 37 -20t41 -8q20 0 33.5 10t13.5 33q0 18 -12.5 34t-53.5 33l28 71q-38 2 -72.5 10
t-66.5 21l-62 -31v219l106 -143q28 -14 55.5 -20.5t58.5 -6.5q45 0 72.5 12t42.5 30t20 40t5 41q0 47 -26.5 76t-66 50t-85.5 39t-85.5 42.5t-66 61t-26.5 95.5q0 41 16.5 74.5t46.5 57.5t72.5 37.5t94.5 13.5q70 0 137 -27l53 27v-219l-117 157q-33 12 -69 12
q-43 0 -70.5 -12.5t-42.5 -30.5t-20.5 -39t-5.5 -39q0 -38 26.5 -62t67 -43t87 -37.5t87 -45.5t67 -67t26.5 -102z" />
    <glyph glyph-name="scedilla" unicode="&#x15f;" horiz-adv-x="460" 
d="M405 137q0 -33 -13.5 -59t-36 -44.5t-51.5 -29.5t-60 -13l-23 -58q54 -17 76 -41.5t22 -56.5q0 -42 -29.5 -63.5t-69.5 -21.5q-24 0 -42 7.5t-31 19.5t-20.5 26.5t-12.5 29.5l5 5q17 -12 37 -20t41 -8q20 0 33.5 10t13.5 33q0 18 -12.5 34t-53.5 33l28 71q-23 2 -46 8.5
t-43 14.5l-62 -24v167l79 -104q46 -23 88 -23q44 0 65.5 22t21.5 54q0 31 -19 50.5t-47 34t-61 27t-61 29.5t-47 41.5t-19 63.5q0 36 16.5 62t42.5 43t58 25t63 8q26 0 50.5 -5.5t47.5 -14.5l52 20v-167l-88 117q-14 5 -28.5 7.5t-29.5 2.5q-50 0 -72 -23t-22 -51
t19.5 -45.5t48 -30.5t62.5 -25t62.5 -29.5t48 -43t19.5 -65.5z" />
    <glyph glyph-name="Scaron" unicode="&#x160;" 
d="M295 750l-165 180l5 5l160 -90l160 90l5 -5zM169 539q0 -38 26.5 -62t67 -43t87 -37.5t87 -45.5t67 -67t26.5 -102q0 -45 -18 -81t-49.5 -60.5t-75 -37.5t-94.5 -13q-45 0 -85 9t-76 23l-62 -31v219l106 -143q28 -14 55.5 -20.5t58.5 -6.5q45 0 72.5 12t42.5 30t20 40
t5 41q0 47 -26.5 76t-66 50t-85.5 39t-85.5 42.5t-66 61t-26.5 95.5q0 41 16.5 74.5t46.5 57.5t72.5 37.5t94.5 13.5q70 0 137 -27l53 27v-219l-117 157q-33 12 -69 12q-43 0 -70.5 -12.5t-42.5 -30.5t-20.5 -39t-5.5 -39z" />
    <glyph glyph-name="scaron" unicode="&#x161;" horiz-adv-x="460" 
d="M395 780l-165 -220l-165 220l5 5l160 -130l160 130zM145 376q0 -28 19.5 -45.5t48 -30.5t62.5 -25t62.5 -29.5t48 -43t19.5 -65.5q0 -35 -15.5 -62.5t-40 -46t-56.5 -28.5t-65 -10q-29 0 -57.5 6.5t-53.5 17.5l-62 -24v167l79 -104q46 -23 88 -23q44 0 65.5 22t21.5 54
q0 31 -19 50.5t-47 34t-61 27t-61 29.5t-47 41.5t-19 63.5q0 36 16.5 62t42.5 43t58 25t63 8q26 0 50.5 -5.5t47.5 -14.5l52 20v-167l-88 117q-14 5 -28.5 7.5t-29.5 2.5q-50 0 -72 -23t-22 -51z" />
    <glyph glyph-name="uni0162" unicode="&#x162;" horiz-adv-x="680" 
d="M650 720v-199l-97 129h-163v-590l80 -60h-112l-27 -67q54 -17 76 -41.5t22 -56.5q0 -42 -29.5 -63.5t-69.5 -21.5q-24 0 -42 7.5t-31 19.5t-20.5 26.5t-12.5 29.5l5 5q17 -12 37 -20t41 -8q20 0 33.5 10t13.5 33q0 18 -12.5 34t-53.5 33l32 80h-109l79 59v591h-163
l-97 -129v199l88 -20h444z" />
    <glyph glyph-name="uni0163" unicode="&#x163;" horiz-adv-x="439" 
d="M405 115q-14 -49 -40 -77.5t-58 -39.5l-26 -65q54 -17 76 -41.5t22 -56.5q0 -42 -29.5 -63.5t-69.5 -21.5q-24 0 -42 7.5t-31 19.5t-20.5 26.5t-12.5 29.5l5 5q17 -12 37 -20t41 -8q20 0 33.5 10t13.5 33q0 18 -12.5 34t-53.5 33l28 70h-10q-33 0 -59.5 12t-44.5 32
t-28 46t-10 55v285h-109l199 149v-89h210l-31 -60h-179v-245q0 -17 3 -35t12 -32.5t25.5 -23.5t44.5 -9q27 0 53.5 10.5t57.5 34.5z" />
    <glyph glyph-name="Tcaron" unicode="&#x164;" horiz-adv-x="680" 
d="M340 750l-165 180l5 5l160 -90l160 90l5 -5zM650 720v-199l-97 129h-163v-590l80 -60h-259l79 59v591h-163l-97 -129v199l88 -20h444z" />
    <glyph glyph-name="tcaron" unicode="&#x165;" horiz-adv-x="470" 
d="M393 544l-48 236h100l-47 -236h-5zM204 420v-245q0 -17 3 -35t12 -32.5t25.5 -23.5t44.5 -9q27 0 53.5 10.5t57.5 34.5l5 -5q-19 -68 -60 -96.5t-89 -28.5q-33 0 -59.5 12t-44.5 32t-28 46t-10 55v285h-109l199 149v-89h210l-31 -60h-179z" />
    <glyph glyph-name="Tbar" unicode="&#x166;" horiz-adv-x="680" 
d="M650 720v-199l-97 129h-163v-255h190v-50h-190v-285l80 -60h-259l79 59v286h-190v50h190v255h-163l-97 -129v199l88 -20h444z" />
    <glyph glyph-name="tbar" unicode="&#x167;" horiz-adv-x="439" 
d="M289 75q27 0 53.5 10.5t57.5 34.5l5 -5q-19 -68 -60 -96.5t-89 -28.5q-33 0 -59.5 12t-44.5 32t-28 46t-10 55v135h-80v45h80v105h-109l199 149v-89h210l-31 -60h-179v-105h170v-45h-170v-95q0 -17 3 -35t12 -32.5t25.5 -23.5t44.5 -9z" />
    <glyph glyph-name="Umacron" unicode="&#x16a;" horiz-adv-x="775" 
d="M574 806h-346v65h346v-65zM685 640v-340q0 -155 -75.5 -232.5t-205.5 -77.5q-62 0 -117 18t-96.5 54.5t-66 93t-24.5 134.5v350l-80 60h260l-80 -60v-340q0 -129 54.5 -192t155.5 -63t155.5 63t54.5 192v340l-120 60h265z" />
    <glyph glyph-name="umacron" unicode="&#x16b;" horiz-adv-x="585" 
d="M437 681v-65h-306v65h306zM555 38l-114 -48l-31 89h-5q-11 -11 -30.5 -26.5t-45 -29.5t-56 -23.5t-62.5 -9.5q-22 0 -45.5 6.5t-42.5 22.5t-31 43t-12 67v239l-70 52l160 70v-316q0 -33 7 -54t19.5 -33.5t28.5 -17t34 -4.5q24 0 60 9t76 40v254l-70 52l160 70v-400z" />
    <glyph glyph-name="Uring" unicode="&#x16e;" horiz-adv-x="775" 
d="M400 731q-25 0 -47 9.5t-38.5 26t-26.5 38.5t-10 46q0 25 10 47t26.5 38.5t38.5 26.5t47 10t47 -10t38.5 -26.5t26.5 -38.5t10 -47q0 -24 -10 -46t-26.5 -38.5t-38.5 -26t-47 -9.5zM400 935q-35 0 -58.5 -24t-23.5 -60q0 -35 23.5 -58.5t58.5 -23.5t58.5 23.5t23.5 58.5
q0 36 -23.5 60t-58.5 24zM685 640v-340q0 -155 -75.5 -232.5t-205.5 -77.5q-62 0 -117 18t-96.5 54.5t-66 93t-24.5 134.5v350l-80 60h260l-80 -60v-340q0 -129 54.5 -192t155.5 -63t155.5 63t54.5 192v340l-120 60h265z" />
    <glyph glyph-name="uring" unicode="&#x16f;" horiz-adv-x="585" 
d="M283 561q-25 0 -47 9.5t-38.5 26t-26.5 38.5t-10 46q0 25 10 47t26.5 38.5t38.5 26.5t47 10t47 -10t38.5 -26.5t26.5 -38.5t10 -47q0 -24 -10 -46t-26.5 -38.5t-38.5 -26t-47 -9.5zM283 597q35 0 58.5 24.5t23.5 59.5q0 36 -23.5 61t-58.5 25t-58.5 -25t-23.5 -61
q0 -35 23.5 -59.5t58.5 -24.5zM555 38l-114 -48l-31 89h-5q-11 -11 -30.5 -26.5t-45 -29.5t-56 -23.5t-62.5 -9.5q-22 0 -45.5 6.5t-42.5 22.5t-31 43t-12 67v239l-70 52l160 70v-316q0 -33 7 -54t19.5 -33.5t28.5 -17t34 -4.5q24 0 60 9t76 40v254l-70 52l160 70v-400z" />
    <glyph glyph-name="Uhungarumlaut" unicode="&#x170;" horiz-adv-x="775" 
d="M296 770l-5 5l90 155h120zM481 775l90 155h120l-205 -160zM685 640v-340q0 -155 -75.5 -232.5t-205.5 -77.5q-62 0 -117 18t-96.5 54.5t-66 93t-24.5 134.5v350l-80 60h260l-80 -60v-340q0 -129 54.5 -192t155.5 -63t155.5 63t54.5 192v340l-120 60h265z" />
    <glyph glyph-name="uhungarumlaut" unicode="&#x171;" horiz-adv-x="585" 
d="M184 575l70 195h100l-165 -200zM354 575l70 195h100l-165 -200zM555 38l-114 -48l-31 89h-5q-11 -11 -30.5 -26.5t-45 -29.5t-56 -23.5t-62.5 -9.5q-22 0 -45.5 6.5t-42.5 22.5t-31 43t-12 67v239l-70 52l160 70v-316q0 -33 7 -54t19.5 -33.5t28.5 -17t34 -4.5q24 0 60 9
t76 40v254l-70 52l160 70v-400z" />
    <glyph glyph-name="Uogonek" unicode="&#x172;" horiz-adv-x="775" 
d="M685 640v-340q0 -128 -51.5 -202.5t-142.5 -97.5h23q-94 -61 -94 -129q0 -31 16 -43.5t40 -12.5q31 0 64 23l5 -5q-4 -15 -12.5 -30t-21.5 -26.5t-30.5 -19t-40.5 -7.5q-44 0 -69.5 26.5t-25.5 67.5t22 77t76 71q-9 -1 -19 -1.5t-20 -0.5q-62 0 -117 18t-96.5 54.5
t-66 93t-24.5 134.5v350l-80 60h260l-80 -60v-340q0 -129 54.5 -192t155.5 -63t155.5 63t54.5 192v340l-120 60h265z" />
    <glyph glyph-name="uogonek" unicode="&#x173;" horiz-adv-x="585" 
d="M463 -185q31 0 64 23l5 -5q-4 -15 -12.5 -30t-21.5 -26.5t-30.5 -19t-40.5 -7.5q-44 0 -69.5 26.5t-25.5 67.5t27 77t81 71l-30 87h-5q-11 -11 -30.5 -26.5t-45 -29.5t-56 -23.5t-62.5 -9.5q-22 0 -45.5 6.5t-42.5 22.5t-31 43t-12 67v239l-70 52l160 70v-316
q0 -33 7 -54t19.5 -33.5t28.5 -17t34 -4.5q24 0 60 9t76 40v254l-70 52l160 70v-400l70 -52q-85 -46 -116.5 -89t-31.5 -78q0 -31 16 -43.5t40 -12.5z" />
    <glyph glyph-name="Wcircumflex" unicode="&#x174;" horiz-adv-x="1060" 
d="M373 770l-5 5l165 180l165 -180l-5 -5l-160 90zM980 640l-212 -670h-6l-224 551l-205 -551h-6l-246 676l-71 54h263l-80 -60l161 -455l152 414l-41 101h153l-20 -60l178 -455l140 455l-120 60h264z" />
    <glyph glyph-name="wcircumflex" unicode="&#x175;" horiz-adv-x="850" 
d="M280 550l-5 5l165 180l165 -180l-5 -5l-160 90zM770 420l-171 -450h-6l-157 338l-159 -338h-6l-209 464l-62 46h254l-80 -60l125 -280l107 232l-50 108h159l-27 -60l124 -270l98 270l-88 60h228z" />
    <glyph glyph-name="Ycircumflex" unicode="&#x176;" horiz-adv-x="725" 
d="M216 780l-5 5l165 220l165 -220l-5 -5l-160 130zM414 308v-248l80 -60h-259l79 59v249l-234 339l-70 53h275l-80 -60l182 -271l188 271v1l-119 59h269l-80 -60z" />
    <glyph glyph-name="ycircumflex" unicode="&#x177;" horiz-adv-x="570" 
d="M458 565l-5 -5l-160 130l-160 -130l-5 5l165 220zM233 -160l137 -80h-243l141 295l-199 374l-69 51h257l-80 -60l139 -265l114 265l-88 60h228l-80 -60z" />
    <glyph glyph-name="Ydieresis" unicode="&#x178;" horiz-adv-x="725" 
d="M276 826q-21 0 -36.5 15.5t-15.5 36.5q0 22 15.5 37t36.5 15q22 0 37 -15t15 -37q0 -21 -15 -36.5t-37 -15.5zM477 826q-21 0 -36.5 15.5t-15.5 36.5q0 22 15.5 37t36.5 15q22 0 37 -15t15 -37q0 -21 -15 -36.5t-37 -15.5zM414 308v-248l80 -60h-259l79 59v249l-234 339
l-70 53h275l-80 -60l182 -271l188 271v1l-119 59h269l-80 -60z" />
    <glyph glyph-name="Zacute" unicode="&#x179;" horiz-adv-x="675" 
d="M329 770l-5 5l130 155h120zM630 179v-179h-605l451 650h-303l-97 -129v199l88 -20h462l-451 -650h358z" />
    <glyph glyph-name="zacute" unicode="&#x17a;" horiz-adv-x="515" 
d="M244 575l90 195h110l-195 -200zM388 45l97 129v-174h-470l331 435h-193l-97 -129v194l88 -20h346l-330 -435h228z" />
    <glyph glyph-name="Zdotaccent" unicode="&#x17b;" horiz-adv-x="675" 
d="M359 781q-25 0 -42.5 17.5t-17.5 42.5t17.5 42.5t42.5 17.5t42.5 -17.5t17.5 -42.5t-17.5 -42.5t-42.5 -17.5zM630 179v-179h-605l451 650h-303l-97 -129v199l88 -20h462l-451 -650h358z" />
    <glyph glyph-name="zdotaccent" unicode="&#x17c;" horiz-adv-x="515" 
d="M279 591q-25 0 -42.5 17.5t-17.5 42.5t17.5 42.5t42.5 17.5t42.5 -17.5t17.5 -42.5t-17.5 -42.5t-42.5 -17.5zM388 45l97 129v-174h-470l331 435h-193l-97 -129v194l88 -20h346l-330 -435h228z" />
    <glyph glyph-name="Zcaron" unicode="&#x17d;" horiz-adv-x="675" 
d="M363 750l-165 180l5 5l160 -90l160 90l5 -5zM630 179v-179h-605l451 650h-303l-97 -129v199l88 -20h462l-451 -650h358z" />
    <glyph glyph-name="zcaron" unicode="&#x17e;" horiz-adv-x="515" 
d="M448 780l-165 -220l-165 220l5 5l160 -130l160 130zM388 45l97 129v-174h-470l331 435h-193l-97 -129v194l88 -20h346l-330 -435h228z" />
    <glyph glyph-name="Scommaaccent" unicode="&#x218;" 
d="M169 539q0 -38 26.5 -62t67 -43t87 -37.5t87 -45.5t67 -67t26.5 -102q0 -45 -18 -81t-49.5 -60.5t-75 -37.5t-94.5 -13q-45 0 -85 9t-76 23l-62 -31v219l106 -143q28 -14 55.5 -20.5t58.5 -6.5q45 0 72.5 12t42.5 30t20 40t5 41q0 47 -26.5 76t-66 50t-85.5 39
t-85.5 42.5t-66 61t-26.5 95.5q0 41 16.5 74.5t46.5 57.5t72.5 37.5t94.5 13.5q70 0 137 -27l53 27v-219l-117 157q-33 12 -69 12q-43 0 -70.5 -12.5t-42.5 -30.5t-20.5 -39t-5.5 -39zM296 -65q20 0 35 -14.5t15 -49.5q0 -26 -10 -48t-26.5 -39.5t-37.5 -30.5t-44 -21l-2 4
q31 20 44.5 43t13.5 46q0 20 -9.5 37t-25.5 28q0 17 12.5 31t34.5 14z" />
    <glyph glyph-name="scommaaccent" unicode="&#x219;" horiz-adv-x="460" 
d="M145 376q0 -28 19.5 -45.5t48 -30.5t62.5 -25t62.5 -29.5t48 -43t19.5 -65.5q0 -35 -15.5 -62.5t-40 -46t-56.5 -28.5t-65 -10q-29 0 -57.5 6.5t-53.5 17.5l-62 -24v167l79 -104q46 -23 88 -23q44 0 65.5 22t21.5 54q0 31 -19 50.5t-47 34t-61 27t-61 29.5t-47 41.5
t-19 63.5q0 36 16.5 62t42.5 43t58 25t63 8q26 0 50.5 -5.5t47.5 -14.5l52 20v-167l-88 117q-14 5 -28.5 7.5t-29.5 2.5q-50 0 -72 -23t-22 -51zM231 -65q20 0 35 -14.5t15 -49.5q0 -26 -10 -48t-26.5 -39.5t-37.5 -30.5t-44 -21l-2 4q31 20 44.5 43t13.5 46q0 20 -9.5 37
t-25.5 28q0 17 12.5 31t34.5 14z" />
    <glyph glyph-name="uni021A" unicode="&#x21a;" horiz-adv-x="680" 
d="M650 720v-199l-97 129h-163v-590l80 -60h-259l79 59v591h-163l-97 -129v199l88 -20h444zM341 -65q20 0 35 -14.5t15 -49.5q0 -26 -10 -48t-26.5 -39.5t-37.5 -30.5t-44 -21l-2 4q31 20 44.5 43t13.5 46q0 20 -9.5 37t-25.5 28q0 17 12.5 31t34.5 14z" />
    <glyph glyph-name="uni021B" unicode="&#x21b;" horiz-adv-x="439" 
d="M289 75q27 0 53.5 10.5t57.5 34.5l5 -5q-19 -68 -60 -96.5t-89 -28.5q-33 0 -59.5 12t-44.5 32t-28 46t-10 55v285h-109l199 149v-89h210l-31 -60h-179v-245q0 -17 3 -35t12 -32.5t25.5 -23.5t44.5 -9zM291 -65q20 0 35 -14.5t15 -49.5q0 -26 -10 -48t-26.5 -39.5
t-37.5 -30.5t-44 -21l-2 4q31 20 44.5 43t13.5 46q0 20 -9.5 37t-25.5 28q0 17 12.5 31t34.5 14z" />
    <glyph glyph-name="circumflex" unicode="&#x2c6;" horiz-adv-x="330" 
d="M330 555l-5 -5l-160 90l-160 -90l-5 5l165 180z" />
    <glyph glyph-name="caron" unicode="&#x2c7;" horiz-adv-x="330" 
d="M330 710l-165 -180l-165 180l5 5l160 -90l160 90z" />
    <glyph glyph-name="breve" unicode="&#x2d8;" horiz-adv-x="310" 
d="M310 700q-2 -31 -14.5 -58t-33 -47.5t-48 -32.5t-59.5 -12t-59.5 12t-48 32.5t-33 47.5t-14.5 58l5 5q32 -47 67 -66t83 -19t83 19t67 66z" />
    <glyph glyph-name="dotaccent" unicode="&#x2d9;" horiz-adv-x="120" 
d="M60 561q-25 0 -42.5 17.5t-17.5 42.5t17.5 42.5t42.5 17.5t42.5 -17.5t17.5 -42.5t-17.5 -42.5t-42.5 -17.5z" />
    <glyph glyph-name="ring" unicode="&#x2da;" horiz-adv-x="244" 
d="M122 511q-25 0 -47 9.5t-38.5 26t-26.5 38.5t-10 46q0 25 10 47t26.5 38.5t38.5 26.5t47 10t47 -10t38.5 -26.5t26.5 -38.5t10 -47q0 -24 -10 -46t-26.5 -38.5t-38.5 -26t-47 -9.5zM122 549q35 0 58.5 23.5t23.5 58.5q0 36 -23.5 60t-58.5 24t-58.5 -24t-23.5 -60
q0 -35 23.5 -58.5t58.5 -23.5z" />
    <glyph glyph-name="ogonek" unicode="&#x2db;" horiz-adv-x="210" 
d="M144 0q-94 -61 -94 -129q0 -31 16 -43.5t40 -12.5q31 0 64 23l5 -5q-4 -15 -12.5 -30t-21.5 -26.5t-30.5 -19t-40.5 -7.5q-44 0 -69.5 26.5t-25.5 67.5q0 43 25 80.5t86 75.5h58z" />
    <glyph glyph-name="tilde" unicode="&#x2dc;" horiz-adv-x="360" 
d="M262 680q48 0 72 -36.5t26 -90.5h-5q-14 34 -36 45.5t-41 11.5q-21 0 -42.5 -9t-44.5 -19.5t-46 -19.5t-47 -9q-48 0 -72 36.5t-26 90.5h5q14 -34 36 -45.5t41 -11.5q21 0 42.5 9t44.5 19.5t46 19.5t47 9z" />
    <glyph glyph-name="hungarumlaut" unicode="&#x2dd;" horiz-adv-x="400" 
d="M0 555l90 155h120l-205 -160zM190 555l90 155h120l-205 -160z" />
    <glyph glyph-name="gravecomb" unicode="&#x300;" horiz-adv-x="0" 
d="M-200 770h110l90 -195l-5 -5z" />
    <glyph glyph-name="acutecomb" unicode="&#x301;" horiz-adv-x="0" 
d="M-200 575l90 195h110l-195 -200z" />
    <glyph glyph-name="uni0302" unicode="&#x302;" horiz-adv-x="0" 
d="M0 565l-5 -5l-160 130l-160 -130l-5 5l165 220z" />
    <glyph glyph-name="tildecomb" unicode="&#x303;" horiz-adv-x="0" 
d="M-98 720q48 0 72 -36.5t26 -90.5h-5q-14 34 -36 45.5t-41 11.5q-21 0 -39.5 -9t-37.5 -19.5t-39 -19.5t-44 -9q-48 0 -72 36.5t-26 90.5h5q14 -34 36 -45.5t41 -11.5q21 0 39.5 9t37.5 19.5t39 19.5t44 9z" />
    <glyph glyph-name="uni0304" unicode="&#x304;" horiz-adv-x="0" 
d="M0 681v-65h-306v65h306z" />
    <glyph glyph-name="uni0306" unicode="&#x306;" horiz-adv-x="0" 
d="M0 770q-2 -42 -16 -75.5t-35.5 -56.5t-48.5 -35.5t-55 -12.5t-55 12.5t-48.5 35.5t-35.5 56.5t-16 75.5l5 5q16 -34 34 -56.5t37 -35.5t39 -18t40 -5t40 5t39 18t37 35.5t34 56.5z" />
    <glyph glyph-name="uni0307" unicode="&#x307;" horiz-adv-x="0" 
d="M-60 591q-25 0 -42.5 17.5t-17.5 42.5t17.5 42.5t42.5 17.5t42.5 -17.5t17.5 -42.5t-17.5 -42.5t-42.5 -17.5z" />
    <glyph glyph-name="uni0308" unicode="&#x308;" horiz-adv-x="0" 
d="M-253 606q-21 0 -36.5 15.5t-15.5 36.5q0 22 15.5 37t36.5 15q22 0 37 -15t15 -37q0 -21 -15 -36.5t-37 -15.5zM-52 606q-21 0 -36.5 15.5t-15.5 36.5q0 22 15.5 37t36.5 15q22 0 37 -15t15 -37q0 -21 -15 -36.5t-37 -15.5z" />
    <glyph glyph-name="uni030A" unicode="&#x30a;" horiz-adv-x="0" 
d="M-122 561q-25 0 -47 9.5t-38.5 26t-26.5 38.5t-10 46q0 25 10 47t26.5 38.5t38.5 26.5t47 10t47 -10t38.5 -26.5t26.5 -38.5t10 -47q0 -24 -10 -46t-26.5 -38.5t-38.5 -26t-47 -9.5zM-122 597q35 0 58.5 24.5t23.5 59.5q0 36 -23.5 61t-58.5 25t-58.5 -25t-23.5 -61
q0 -35 23.5 -59.5t58.5 -24.5z" />
    <glyph glyph-name="uni030B" unicode="&#x30b;" horiz-adv-x="0" 
d="M-340 575l70 195h100l-165 -200zM-170 575l70 195h100l-165 -200z" />
    <glyph glyph-name="uni030C" unicode="&#x30c;" horiz-adv-x="0" 
d="M0 780l-165 -220l-165 220l5 5l160 -130l160 130z" />
    <glyph glyph-name="uni0312" unicode="&#x312;" horiz-adv-x="0" 
 />
    <glyph glyph-name="uni0326" unicode="&#x326;" horiz-adv-x="0" 
d="M-46 -65q20 0 35 -14.5t15 -49.5q0 -26 -10 -48t-26.5 -39.5t-38 -30.5t-43.5 -21l-2 4q31 20 44.5 43t13.5 46q0 20 -9.5 37t-25.5 28q0 17 12.5 31t34.5 14z" />
    <glyph glyph-name="uni0327" unicode="&#x327;" horiz-adv-x="0" 
d="M-98 -67q54 -17 76 -41.5t22 -56.5q0 -42 -29.5 -63.5t-69.5 -21.5q-24 0 -42 7.5t-31 19.5t-21 26.5t-12 29.5l5 5q17 -12 37 -20t41 -8q20 0 33.5 10t13.5 33q0 18 -12.5 34t-53.5 33l32 80h38z" />
    <glyph glyph-name="uni0328" unicode="&#x328;" horiz-adv-x="0" 
d="M-44 20q-44 -34 -72.5 -72t-28.5 -73t16.5 -47.5t39.5 -12.5q31 0 64 23l5 -5q-5 -15 -13 -30t-21 -26.5t-30.5 -19t-40.5 -7.5q-45 0 -70 27t-25 70q0 48 42.5 90.5t108.5 82.5h25z" />
    <glyph glyph-name="uni0335" unicode="&#x335;" horiz-adv-x="0" 
d="M-239 395v-45h-340v45h340z" />
    <glyph glyph-name="uni0336" unicode="&#x336;" horiz-adv-x="0" 
d="M-70 293v-45h-510v45h510z" />
    <glyph glyph-name="uni0338" unicode="&#x338;" horiz-adv-x="0" 
 />
    <glyph glyph-name="uni0401" unicode="&#x401;" horiz-adv-x="620" 
d="M210 786q-21 0 -36.5 15.5t-15.5 36.5q0 22 15.5 37t36.5 15q22 0 37 -15t15 -37q0 -21 -15 -36.5t-37 -15.5zM411 786q-21 0 -36.5 15.5t-15.5 36.5q0 22 15.5 37t36.5 15q22 0 37 -15t15 -37q0 -21 -15 -36.5t-37 -15.5zM575 179v-179h-540l80 60v580l-80 60h510v-179
l-97 129h-233v-265h179l68 90v-230l-68 90h-179v-285h263z" />
    <glyph glyph-name="uni0410" unicode="&#x410;" horiz-adv-x="707" 
d="M717 0h-273l80 60l-84 205h-229l-86 -205l119 -60h-209l312 730h6l289 -674zM419 315l-93 226l-94 -226h187z" />
    <glyph glyph-name="uni0411" unicode="&#x411;" horiz-adv-x="660" 
d="M347 410q60 0 109 -12.5t84.5 -37t55 -61.5t19.5 -87q0 -49 -19.5 -88.5t-55 -67t-84.5 -42t-109 -14.5h-312l80 60v580l-80 60h530v-179l-97 129h-253v-240h132zM337 50q82 0 125 41.5t43 113.5t-43 113.5t-125 41.5h-122v-310h122z" />
    <glyph glyph-name="uni0412" unicode="&#x412;" horiz-adv-x="675" 
d="M469 364q74 -16 117.5 -57t43.5 -111q0 -45 -20.5 -81t-59 -61.5t-92.5 -39.5t-121 -14h-302l80 60v580l-80 60h297q119 0 188.5 -47.5t69.5 -131.5q0 -56 -32.5 -96t-88.5 -61zM215 650v-265h117q41 0 70 10.5t47.5 28t27 41t8.5 50.5q0 29 -8.5 53.5t-27 42.5
t-47.5 28.5t-70 10.5h-117zM337 50q97 0 140 38.5t43 101.5q0 67 -43 106t-140 39h-122v-285h122z" />
    <glyph glyph-name="uni0413" unicode="&#x413;" horiz-adv-x="575" 
d="M545 521l-97 129h-233v-590l120 -60h-300l80 60v580l-80 60h510v-179z" />
    <glyph glyph-name="uni0414" unicode="&#x414;" horiz-adv-x="750" 
d="M635 50h80v-250l-98 200h-484l-98 -200v250h69q38 38 64 104t42.5 146.5t24 169t9.5 171.5l-79 59h550l-80 -60v-590zM535 50v600h-230q0 -93 -5 -180t-15.5 -164t-29 -141.5t-45.5 -114.5h325z" />
    <glyph glyph-name="uni0415" unicode="&#x415;" horiz-adv-x="620" 
d="M575 179v-179h-540l80 60v580l-80 60h510v-179l-97 129h-233v-265h179l68 90v-230l-68 90h-179v-285h263z" />
    <glyph glyph-name="uni0416" unicode="&#x416;" horiz-adv-x="961" 
d="M416 361q-71 -116 -119.5 -190.5t-93.5 -116t-97 -54.5t-131 -5v5q56 20 97.5 51t78.5 77t74 109.5t85 147.5l-286 315h240l-106 -60zM525 60l80 -60h-250l80 60v580l-80 60h250l-80 -60v-580zM651 385q48 -84 85 -147.5t74 -109.5t78.5 -77t97.5 -51v-5q-79 -8 -131 5
t-97 54.5t-93.5 116t-119.5 190.5l258 279l-106 60h240z" />
    <glyph glyph-name="uni0417" unicode="&#x417;" 
d="M378 367q32 -7 60.5 -22.5t50 -38t34 -52.5t12.5 -66q0 -46 -20 -83t-54.5 -62.5t-79 -39t-94.5 -13.5q-87 0 -156 46t-101 147l5 5q31 -36 61.5 -58.5t60 -36t57.5 -18.5t53 -5q78 0 118 36t40 88q0 34 -16.5 64t-45 49.5t-67.5 26.5t-84 -4v80q47 -11 83.5 -5.5
t62 23.5t39 44.5t13.5 57.5q0 24 -8.5 47t-26 41.5t-45 30t-65.5 11.5q-39 0 -79 -14l-115 -155v219l54 -27q39 14 78 20.5t78 6.5q114 0 176.5 -48.5t62.5 -129.5q0 -56 -33.5 -100t-108.5 -65z" />
    <glyph glyph-name="uni0418" unicode="&#x418;" horiz-adv-x="830" 
d="M715 60l80 -60h-260l80 60v535l-400 -595h-180l80 60v580l-80 60h260l-80 -60v-535l400 595h180l-80 -60v-580z" />
    <glyph glyph-name="uni0419" unicode="&#x419;" horiz-adv-x="830" 
d="M415 770q-32 0 -59.5 12t-48 32.5t-33 47.5t-14.5 58l5 5q32 -47 67 -66t83 -19t83 19t67 66l5 -5q-2 -31 -14.5 -58t-33 -47.5t-48 -32.5t-59.5 -12zM715 60l80 -60h-260l80 60v535l-400 -595h-180l80 60v580l-80 60h260l-80 -60v-535l400 595h180l-80 -60v-580z" />
    <glyph glyph-name="uni041A" unicode="&#x41a;" horiz-adv-x="720" 
d="M215 60l80 -60h-260l80 60v580l-80 60h260l-80 -60v-580zM380 385q59 -84 102.5 -147.5t83 -109.5t81.5 -77t98 -51v-5q-79 -8 -133 5t-102.5 54.5t-102.5 116t-133 190.5l281 279l-106 60h247z" />
    <glyph glyph-name="uni041B" unicode="&#x41b;" horiz-adv-x="690" 
d="M575 60l80 -60h-260l80 60v590h-236q-3 -175 -8 -299.5t-24.5 -204t-59.5 -117.5t-112 -39v110q35 4 60.5 30t42.5 87t27 164t14 260l-79 59h555l-80 -60v-580z" />
    <glyph glyph-name="uni041C" unicode="&#x41c;" horiz-adv-x="930" 
d="M895 0h-260l80 60v485l-267 -405l-268 385v-465l120 -60h-265l80 60v580l-80 60h138l296 -425l277 425h148l-79 -59v-581z" />
    <glyph glyph-name="uni041D" unicode="&#x41d;" horiz-adv-x="830" 
d="M715 60l80 -60h-260l80 60v285h-400v-285l80 -60h-260l80 60v580l-80 60h260l-80 -60v-245h400v245l-80 60h260l-80 -60v-580z" />
    <glyph glyph-name="uni041E" unicode="&#x41e;" horiz-adv-x="800" 
d="M402 710q67 0 130 -24t111.5 -69.5t77.5 -112t29 -151.5t-29.5 -152.5t-78 -114t-112 -71.5t-132.5 -25q-67 0 -130 24t-111.5 69.5t-77.5 112t-29 151.5t29.5 152.5t78 114t112 71.5t132.5 25zM420 40q51 0 92 20t69.5 57.5t43.5 90.5t15 119q0 78 -20 139.5
t-55.5 104.5t-83 66t-101.5 23q-51 0 -92 -20t-69.5 -57.5t-43.5 -90.5t-15 -119q0 -78 20 -139.5t55.5 -104.5t83 -66t101.5 -23z" />
    <glyph glyph-name="uni041F" unicode="&#x41f;" horiz-adv-x="810" 
d="M695 60l80 -60h-260l80 60v590h-380v-590l80 -60h-260l80 60v580l-80 60h740l-80 -60v-580z" />
    <glyph glyph-name="uni0420" unicode="&#x420;" horiz-adv-x="620" 
d="M215 290v-230l120 -60h-300l80 60v580l-80 60h292q60 0 109 -11t84.5 -33.5t55 -58t19.5 -85.5q0 -49 -19.5 -90t-55 -70.5t-84.5 -45.5t-109 -16h-112zM215 340h102q82 0 125 44t43 116t-43 111t-125 39h-102v-310z" />
    <glyph glyph-name="uni0421" unicode="&#x421;" horiz-adv-x="710" 
d="M670 173q-24 -54 -56 -89.5t-68.5 -56t-74.5 -29t-74 -8.5q-66 0 -128.5 24.5t-111 70.5t-78 112t-29.5 149q0 86 31.5 153.5t84.5 114t122.5 71.5t144.5 25q37 0 78.5 -6t81.5 -20l57 26v-235l-129 173q-23 7 -46 9.5t-44 2.5q-60 0 -110.5 -18.5t-87 -55.5t-57.5 -91
t-21 -125q0 -66 18.5 -121t52.5 -95t82.5 -62t108.5 -22q57 0 122.5 24t125.5 84z" />
    <glyph glyph-name="uni0422" unicode="&#x422;" horiz-adv-x="680" 
d="M650 720v-199l-97 129h-163v-590l80 -60h-259l79 59v591h-163l-97 -129v199l88 -20h444z" />
    <glyph glyph-name="uni0423" unicode="&#x423;" horiz-adv-x="725" 
d="M645 640l-258 -470q-25 -42 -49 -75t-51 -56t-60 -35.5t-78 -13.5v110q28 5 53.5 11t49.5 18.5t48 34t49 57.5l-274 430l-65 49h271l-80 -60l198 -328l176 328v1l-119 59h269z" />
    <glyph glyph-name="uni0424" unicode="&#x424;" horiz-adv-x="820" 
d="M455 105v-55l80 -60h-250l80 60v55h-72q-60 0 -109 16t-84.5 46t-55 74.5t-19.5 101.5t19.5 103.5t55 79.5t84.5 51t109 18h72v55l-80 60h250l-80 -60v-55h72q60 0 109 -16t84.5 -46t55 -74.5t19.5 -101.5t-19.5 -103.5t-55 -79.5t-84.5 -51t-109 -18h-72zM365 545h-62
q-82 0 -125 -54t-43 -141t43 -141t125 -54h62v390zM455 155h62q82 0 125 54t43 141t-43 141t-125 54h-62v-390z" />
    <glyph glyph-name="uni0425" unicode="&#x425;" horiz-adv-x="708" 
d="M723 0h-277l80 60l-177 239l-186 -239l88 -60h-241l80 60l222 287l-224 302l-68 51h273l-80 -60l170 -228l178 228l-88 60h241l-80 -60l-215 -277l229 -307z" />
    <glyph glyph-name="uni0426" unicode="&#x426;" horiz-adv-x="750" 
d="M660 50h78v-250l-98 200h-620l80 60v580l-80 60h260l-80 -60v-590h360v590l-80 60h260l-80 -60v-590z" />
    <glyph glyph-name="uni0427" unicode="&#x427;" horiz-adv-x="760" 
d="M645 60l80 -60h-300l120 60v240q-46 -14 -90.5 -22t-98.5 -8q-134 0 -192.5 53t-58.5 167v150l-80 60h260l-80 -60v-139q0 -43 6.5 -77t25.5 -57t52 -35t85 -12q42 0 85 8t86 22v290l-80 60h260l-80 -60v-580z" />
    <glyph glyph-name="uni0428" unicode="&#x428;" horiz-adv-x="1090" 
d="M975 60l80 -60h-1020l80 60v580l-80 60h260l-80 -60v-590h280v590l-80 60h260l-80 -60v-590h280v590l-80 60h260l-80 -60v-580z" />
    <glyph glyph-name="uni0429" unicode="&#x429;" horiz-adv-x="1090" 
d="M975 50h80v-250l-98 200h-922l80 60v580l-80 60h260l-80 -60v-590h280v590l-80 60h260l-80 -60v-590h280v590l-80 60h260l-80 -60v-590z" />
    <glyph glyph-name="uni042A" unicode="&#x42a;" horiz-adv-x="805" 
d="M512 410q60 0 109 -12.5t84.5 -37t55 -61.5t19.5 -87q0 -49 -19.5 -88.5t-55 -67t-84.5 -42t-109 -14.5h-312l80 60v590h-153l-97 -129v179h470l-120 -60v-230h132zM502 50q82 0 125 41.5t43 113.5t-43 113.5t-125 41.5h-122v-310h122z" />
    <glyph glyph-name="uni042B" unicode="&#x42b;" horiz-adv-x="950" 
d="M327 410q60 0 109 -12.5t84.5 -37t55 -61.5t19.5 -87q0 -49 -19.5 -88.5t-55 -67t-84.5 -42t-109 -14.5h-292l80 60v580l-80 60h300l-120 -60v-230h112zM830 60l80 -60h-260l80 60v580l-80 60h260l-80 -60v-580zM317 50q82 0 125 41.5t43 113.5t-43 113.5t-125 41.5h-102
v-310h102z" />
    <glyph glyph-name="uni042C" unicode="&#x42c;" horiz-adv-x="640" 
d="M347 410q60 0 109 -12.5t84.5 -37t55 -61.5t19.5 -87q0 -49 -19.5 -88.5t-55 -67t-84.5 -42t-109 -14.5h-312l80 60v580l-80 60h300l-120 -60v-230h132zM337 50q82 0 125 41.5t43 113.5t-43 113.5t-125 41.5h-122v-310h122z" />
    <glyph glyph-name="uni042D" unicode="&#x42d;" horiz-adv-x="720" 
d="M308 710q75 0 141 -24t115 -69.5t77.5 -112.5t28.5 -153t-28 -153t-74.5 -113.5t-108 -70.5t-127.5 -24q-33 0 -74.5 7.5t-82 26.5t-76.5 53t-59 86l5 5q60 -53 130 -75.5t132 -22.5q112 0 181.5 68t75.5 197h-363v50h363q-3 63 -22 113t-52 85t-79.5 53.5t-103.5 18.5
q-24 0 -54 -4t-62 -13l-121 -163v235l59 -27q45 14 93 20.5t86 6.5z" />
    <glyph glyph-name="uni042E" unicode="&#x42e;" horiz-adv-x="1035" 
d="M677 710q60 0 117 -24t101.5 -69.5t72 -112t27.5 -151.5t-27.5 -152.5t-72.5 -114t-103 -71.5t-119 -25q-58 0 -114.5 23t-101 67t-72.5 108.5t-30 146.5h-140v-275l80 -60h-260l80 60v580l-80 60h260l-80 -60v-255h142q6 77 35 137t73 102t99 64t113 22zM695 40
q44 0 79 20t60 57t38 90t13 118q0 78 -18.5 140.5t-50 105.5t-73 66t-88.5 23q-44 0 -79 -20t-60 -57t-38 -90t-13 -118q0 -78 18.5 -140.5t50 -105.5t73 -66t88.5 -23z" />
    <glyph glyph-name="uni042F" unicode="&#x42f;" horiz-adv-x="685" 
d="M570 60l80 -60h-260l80 60v590h-102q-75 0 -116.5 -34t-41.5 -97q0 -27 9 -52t32.5 -45.5t63.5 -34.5t101 -17q-68 -101 -116 -175t-94 -121t-99 -67t-132 -12v5q46 23 85 57.5t75.5 78.5t71 96.5t71.5 109.5q-80 20 -129 68.5t-49 120.5q0 44 19.5 76t54 52.5t81.5 30.5
t103 10h292l-80 -60v-580z" />
    <glyph glyph-name="uni0430" unicode="&#x430;" horiz-adv-x="535" 
d="M525 75q-19 -50 -43 -67.5t-56 -17.5q-38 0 -61.5 19.5t-31.5 54.5h-5q-25 -35 -60.5 -54.5t-82.5 -19.5q-60 0 -97.5 31t-37.5 86q0 40 19.5 69.5t48.5 45.5h205v84q0 59 -24 84t-76 25q-35 0 -72 -11.5t-75 -38.5l-5 5q18 33 41.5 55.5t50.5 37t55 21t55 6.5
q68 0 104 -38t36 -111v-226q0 -35 14 -46.5t34 -11.5q14 0 27.5 4.5t31.5 18.5zM215 50q51 0 108 54v83h-156q-22 -27 -22 -66q0 -41 22 -56t48 -15z" />
    <glyph glyph-name="uni0431" unicode="&#x431;" horiz-adv-x="575" 
d="M285 470q50 0 94.5 -17t78 -48.5t53 -76t19.5 -98.5t-19.5 -98.5t-53 -76t-78 -48.5t-94.5 -17t-94 17t-76.5 48.5t-51 76t-18.5 98.5q0 101 10.5 180.5t28 141.5t40.5 109.5t48 85.5h230q32 0 51 6t32 27h5q8 -18 9.5 -31t1.5 -20q0 -67 -79 -67h-170q-27 0 -50 -20
t-42.5 -56t-33.5 -85.5t-23 -107.5q33 37 80 57t102 20zM304 30q32 0 55 15.5t37 40t20.5 56.5t6.5 65q0 47 -12 88t-33 71t-49.5 47t-62.5 17q-32 0 -55 -15.5t-37.5 -40.5t-21.5 -57t-7 -65q0 -47 12 -87.5t33.5 -70.5t50.5 -47t63 -17z" />
    <glyph glyph-name="uni0432" unicode="&#x432;" 
d="M421 250q54 -9 84 -35.5t30 -72.5q0 -64 -54.5 -103t-148.5 -39h-307l80 60v360l-80 60h287q94 0 148.5 -30.5t54.5 -94.5q0 -42 -24.5 -68t-69.5 -37zM195 265h117q103 0 103 85t-103 85h-117v-170zM332 45q52 0 77.5 23t25.5 65t-25.5 64.5t-77.5 22.5h-137v-175h137z
" />
    <glyph glyph-name="uni0433" unicode="&#x433;" horiz-adv-x="475" 
d="M455 306l-97 129h-163v-375l119 -60h-289l80 60v360l-80 60h430v-174z" />
    <glyph glyph-name="uni0434" unicode="&#x434;" horiz-adv-x="600" 
d="M500 50h80v-250l-98 200h-364l-98 -200v250h59q48 61 76 157.5t34 213.5l-79 59h470l-80 -60v-370zM410 50v380h-166v11q-1 -119 -13.5 -213t-45.5 -178h225z" />
    <glyph glyph-name="uni0435" unicode="&#x435;" horiz-adv-x="505" 
d="M304 75q30 0 66 11t80 44l5 -5q-13 -39 -33.5 -65t-44.5 -41.5t-50.5 -22t-52.5 -6.5q-47 0 -89 18.5t-73 52t-49 80.5t-18 103q0 60 20 105.5t52.5 77t75 47.5t87.5 16q35 0 67 -10.5t57 -33t41.5 -57.5t19.5 -84h-329q-1 -8 -1 -15.5v-15.5q0 -43 11 -80t32 -63
t52.5 -41t73.5 -15zM266 453q-45 0 -77.5 -29.5t-46.5 -83.5h218q0 47 -21.5 80t-72.5 33z" />
    <glyph glyph-name="uni0436" unicode="&#x436;" horiz-adv-x="820" 
d="M320 244q-48 -85 -81.5 -137.5t-67 -79.5t-73 -33.5t-98.5 1.5v5q38 21 67 44t54.5 54t51.5 71.5t59 97.5l-198 213h201l-81 -60zM450 60l80 -60h-240l80 60v360l-80 60h240l-80 -60v-360zM588 267q33 -57 59 -97.5t51.5 -71.5t54.5 -54t67 -44v-5q-59 -8 -98.5 -1.5
t-73 33.5t-67 79.5t-81.5 137.5l166 176l-81 60h201z" />
    <glyph glyph-name="uni0437" unicode="&#x437;" horiz-adv-x="465" 
d="M298 252q52 -9 87 -43.5t35 -84.5q0 -32 -16 -57t-42.5 -42t-61.5 -26t-73 -9q-27 0 -57.5 6t-59 21.5t-52.5 44t-38 73.5l5 5q44 -41 87.5 -55.5t86.5 -14.5q50 0 83 17.5t33 55.5q0 40 -35.5 63t-121.5 15v60q40 -4 68 2t45.5 18.5t25.5 30.5t8 38q0 38 -30 59t-84 21
l-100 -77l-57 77q32 17 77.5 28.5t101.5 11.5q88 0 140 -32.5t52 -91.5q0 -47 -31.5 -73.5t-75.5 -40.5z" />
    <glyph glyph-name="uni0438" unicode="&#x438;" horiz-adv-x="635" 
d="M530 60l80 -60h-250l80 60v323l-245 -383h-170l80 60v360l-80 60h250l-80 -60v-323l245 383h170l-80 -60v-360z" />
    <glyph glyph-name="uni0439" unicode="&#x439;" horiz-adv-x="635" 
d="M318 590q-28 0 -55 12.5t-48.5 35.5t-35.5 56.5t-16 75.5l5 5q16 -34 34 -56.5t37 -35.5t39 -18t40 -5t40 5t39 18t37 35.5t34 56.5l5 -5q-2 -42 -16 -75.5t-35.5 -56.5t-48.5 -35.5t-55 -12.5zM530 60l80 -60h-250l80 60v323l-245 -383h-170l80 60v360l-80 60h250
l-80 -60v-323l245 383h170l-80 -60v-360z" />
    <glyph glyph-name="uni043A" unicode="&#x43a;" 
d="M195 60l80 -60h-250l80 60v360l-80 60h250l-80 -60v-360zM334 275q35 -57 62.5 -99t55 -74t58 -56.5t70.5 -45.5v-5q-59 -8 -100 0t-77.5 37t-74 83t-88.5 139l176 166l-111 60h241z" />
    <glyph glyph-name="uni043B" unicode="&#x43b;" horiz-adv-x="570" 
d="M465 60l80 -60h-250l80 60v370h-153q-3 -73 -9.5 -151t-26.5 -141.5t-58 -105t-103 -42.5v95q71 20 103 100.5t40 236.5l-78 58h455l-80 -60v-360z" />
    <glyph glyph-name="uni043C" unicode="&#x43c;" horiz-adv-x="750" 
d="M725 0h-260l80 60v293l-187 -253l-188 235v-275l120 -60h-265l80 60v360l-80 60h138l216 -268l197 268h148l-79 -59v-361z" />
    <glyph glyph-name="uni043D" unicode="&#x43d;" horiz-adv-x="635" 
d="M530 60l80 -60h-250l80 60v170h-245v-170l80 -60h-250l80 60v360l-80 60h250l-80 -60v-140h245v140l-80 60h250l-80 -60v-360z" />
    <glyph glyph-name="uni043E" unicode="&#x43e;" 
d="M290 -10q-50 0 -94.5 17.5t-78 49.5t-53 78.5t-19.5 104.5t19.5 104.5t53 78.5t78 49.5t94.5 17.5t94.5 -17.5t78 -49.5t53 -78.5t19.5 -104.5t-19.5 -104.5t-53 -78.5t-78 -49.5t-94.5 -17.5zM306 30q34 0 57.5 15.5t37.5 41.5t20.5 60t6.5 71q0 51 -12 93.5t-33 73
t-49 48t-60 17.5q-34 0 -57.5 -15.5t-38.5 -41.5t-21.5 -60t-6.5 -71q0 -51 12.5 -93.5t33.5 -73t49.5 -48t60.5 -17.5z" />
    <glyph glyph-name="uni043F" unicode="&#x43f;" horiz-adv-x="615" 
d="M510 60l80 -60h-250l80 60v370h-225v-370l80 -60h-250l80 60v360l-80 60h565l-80 -60v-360z" />
    <glyph glyph-name="uni0440" unicode="&#x440;" horiz-adv-x="590" 
d="M286 -10q-21 0 -50 3.5t-56 11.5v-186l119 -59h-289l80 60v548l-70 52l160 70l-15 -84l5 -5q11 17 27.5 33t37.5 28.5t46.5 20t53.5 7.5q38 0 75.5 -15t67.5 -44.5t48.5 -74t18.5 -104.5q0 -64 -22 -113t-58 -82t-82.5 -50t-96.5 -17zM303 415q-32 0 -64.5 -12.5
t-58.5 -36.5v-244q0 -22 9.5 -39.5t25.5 -29t36.5 -17.5t41.5 -6q66 0 109 53t43 147q0 87 -38 136t-104 49z" />
    <glyph glyph-name="uni0441" unicode="&#x441;" horiz-adv-x="485" 
d="M304 75q30 0 66 11t80 44l5 -5q-13 -39 -33.5 -65t-44.5 -41.5t-50.5 -22t-52.5 -6.5q-47 0 -89 18.5t-73 52.5t-49 80.5t-18 101.5q0 64 23.5 110.5t59.5 77t79.5 45t84.5 14.5q53 0 93 -13.5t70 -36.5l-63 -84l-110 94q-65 0 -106 -46t-41 -133q0 -42 10.5 -77.5
t32 -62t53 -41.5t73.5 -15z" />
    <glyph glyph-name="uni0442" unicode="&#x442;" horiz-adv-x="510" 
d="M490 306l-97 129h-93v-375l80 -60h-250l80 60v375h-93l-97 -129v174h470v-174z" />
    <glyph glyph-name="uni0443" unicode="&#x443;" horiz-adv-x="570" 
d="M233 -160l137 -80h-243l141 295l-199 374l-69 51h257l-80 -60l139 -265l114 265l-88 60h228l-80 -60z" />
    <glyph glyph-name="uni0444" unicode="&#x444;" horiz-adv-x="830" 
d="M596 490q35 0 68.5 -12.5t60.5 -41t43.5 -74.5t16.5 -114q0 -67 -17.5 -115.5t-46 -80t-63.5 -47t-71 -15.5q-38 0 -73 17t-59 48v-235l80 -60h-240l80 60v236q-23 -29 -58.5 -47.5t-82.5 -18.5q-34 0 -68 12.5t-61 41t-43.5 74.5t-16.5 114q0 67 17.5 115.5t46 80
t63.5 47t71 15.5q38 0 73 -17t59 -48v237l-70 52l150 66v-356q23 29 58.5 47.5t82.5 18.5zM266 55q57 0 109 49v272q-52 49 -109 49q-56 0 -88.5 -49t-32.5 -136t32.5 -136t88.5 -49zM564 55q56 0 88.5 49t32.5 136t-32.5 136t-88.5 49q-57 0 -109 -49v-272q52 -49 109 -49z
" />
    <glyph glyph-name="uni0445" unicode="&#x445;" horiz-adv-x="525" 
d="M535 0h-267l80 60l-104 133l-107 -133l88 -60h-235l80 60l141 174l-151 193l-70 53h268l-80 -60l100 -128l101 128l-88 60h233l-80 -60l-134 -169l157 -200z" />
    <glyph glyph-name="uni0446" unicode="&#x446;" horiz-adv-x="600" 
d="M510 50h80v-250l-98 200h-467l80 60v360l-80 60h250l-80 -60v-370h225v370l-80 60h250l-80 -60v-370z" />
    <glyph glyph-name="uni0447" unicode="&#x447;" horiz-adv-x="610" 
d="M505 60l80 -60h-250l80 60v160q-13 -12 -32.5 -26t-43.5 -26t-51.5 -20t-56.5 -8q-26 0 -51 6.5t-45 22.5t-32.5 43t-12.5 67v141l-80 60h250l-80 -60v-96q0 -33 7.5 -54t20.5 -33.5t31 -17t40 -4.5q24 0 60 9t76 40v156l-80 60h250l-80 -60v-360z" />
    <glyph glyph-name="uni0448" unicode="&#x448;" horiz-adv-x="900" 
d="M795 60l80 -60h-850l80 60v360l-80 60h250l-80 -60v-370h210v370l-80 60h250l-80 -60v-370h210v370l-80 60h250l-80 -60v-360z" />
    <glyph glyph-name="uni0449" unicode="&#x449;" horiz-adv-x="900" 
d="M795 50h80v-250l-98 200h-752l80 60v360l-80 60h250l-80 -60v-370h210v370l-80 60h250l-80 -60v-370h210v370l-80 60h250l-80 -60v-370z" />
    <glyph glyph-name="uni044A" unicode="&#x44a;" horiz-adv-x="705" 
d="M457 290q39 0 75.5 -8t65 -24.5t45.5 -43t17 -62.5t-17 -64.5t-45.5 -48t-65 -29.5t-75.5 -10h-327l80 60v375h-93l-97 -129v174h360l-80 -60v-130h157zM437 45q60 0 91.5 23t31.5 77t-31.5 77t-91.5 23h-137v-200h137z" />
    <glyph glyph-name="uni044B" unicode="&#x44b;" horiz-adv-x="850" 
d="M342 290q39 0 75.5 -8t65 -24.5t45.5 -43t17 -62.5t-17 -64.5t-45.5 -48t-65 -29.5t-75.5 -10h-317l80 60v360l-80 60h250l-80 -60v-130h147zM745 60l80 -60h-250l80 60v360l-80 60h250l-80 -60v-360zM322 45q60 0 91.5 23t31.5 77t-31.5 77t-91.5 23h-127v-200h127z" />
    <glyph glyph-name="uni044C" unicode="&#x44c;" horiz-adv-x="600" 
d="M352 290q39 0 75.5 -8t65 -24.5t45.5 -43t17 -62.5t-17 -64.5t-45.5 -48t-65 -29.5t-75.5 -10h-327l80 60v360l-80 60h250l-80 -60v-130h157zM332 45q60 0 91.5 23t31.5 77t-31.5 77t-91.5 23h-137v-200h137z" />
    <glyph glyph-name="uni044D" unicode="&#x44d;" horiz-adv-x="495" 
d="M219 490q45 0 86.5 -16t74 -47.5t51.5 -77t19 -104.5q0 -57 -18 -104t-49 -80.5t-73 -52t-89 -18.5q-25 0 -53.5 6.5t-54.5 22t-48 41.5t-35 65l5 5q42 -32 85 -43.5t76 -11.5q80 0 118.5 46t44.5 119h-225v40h226q-2 83 -39 126.5t-112 43.5q-34 0 -55.5 -7.5
t-37.5 -18.5l-76 -101v167l66 -26q26 12 54.5 19t58.5 7z" />
    <glyph glyph-name="uni044E" unicode="&#x44e;" horiz-adv-x="805" 
d="M525 490q47 0 89.5 -17.5t74.5 -49.5t51.5 -78.5t19.5 -104.5t-19.5 -104.5t-51.5 -78.5t-74.5 -49.5t-89.5 -17.5q-45 0 -85.5 16t-72.5 45.5t-52.5 72t-23.5 96.5h-101v-160l80 -60h-245l80 60v360l-80 60h245l-80 -60v-150h101q5 51 26 92t52.5 69.5t72 43.5t83.5 15z
M544 30q29 0 50.5 16t35.5 41.5t21 58t7 65.5q0 55 -13 99.5t-34 75.5t-48 47.5t-56 16.5q-28 0 -50 -15t-36.5 -40.5t-22 -58.5t-7.5 -69q0 -54 13 -98t34.5 -75t49 -47.5t56.5 -16.5z" />
    <glyph glyph-name="uni044F" unicode="&#x44f;" horiz-adv-x="587" 
d="M482 60l80 -60h-250l80 60v150h-118q-33 -70 -59.5 -115t-56 -69.5t-66.5 -31t-90 0.5l-2 5q31 18 55.5 38.5t45.5 46.5t40 58.5t38 73.5q-53 11 -90 40t-37 84q0 36 17 62.5t45.5 43.5t65 25t75.5 8h307l-80 -60v-360zM392 435h-117q-60 0 -91.5 -18t-31.5 -72t31.5 -72
t91.5 -18h117v180z" />
    <glyph glyph-name="uni0451" unicode="&#x451;" horiz-adv-x="505" 
d="M175 606q-21 0 -36.5 15.5t-15.5 36.5q0 22 15.5 37t36.5 15q22 0 37 -15t15 -37q0 -21 -15 -36.5t-37 -15.5zM376 606q-21 0 -36.5 15.5t-15.5 36.5q0 22 15.5 37t36.5 15q22 0 37 -15t15 -37q0 -21 -15 -36.5t-37 -15.5zM304 75q30 0 66 11t80 44l5 -5
q-13 -39 -33.5 -65t-44.5 -41.5t-50.5 -22t-52.5 -6.5q-47 0 -89 18.5t-73 52t-49 80.5t-18 103q0 60 20 105.5t52.5 77t75 47.5t87.5 16q35 0 67 -10.5t57 -33t41.5 -57.5t19.5 -84h-329q-1 -8 -1 -15.5v-15.5q0 -43 11 -80t32 -63t52.5 -41t73.5 -15zM266 453
q-45 0 -77.5 -29.5t-46.5 -83.5h218q0 47 -21.5 80t-72.5 33z" />
    <glyph glyph-name="Wgrave" unicode="&#x1e80;" horiz-adv-x="1060" 
d="M567 770l-245 160h120l130 -155zM980 640l-212 -670h-6l-224 551l-205 -551h-6l-246 676l-71 54h263l-80 -60l161 -455l152 414l-41 101h153l-20 -60l178 -455l140 455l-120 60h264z" />
    <glyph glyph-name="wgrave" unicode="&#x1e81;" horiz-adv-x="850" 
d="M279 770h110l90 -195l-5 -5zM770 420l-171 -450h-6l-157 338l-159 -338h-6l-209 464l-62 46h254l-80 -60l125 -280l107 232l-50 108h159l-27 -60l124 -270l98 270l-88 60h228z" />
    <glyph glyph-name="Wacute" unicode="&#x1e82;" horiz-adv-x="1060" 
d="M499 770l-5 5l130 155h120zM980 640l-212 -670h-6l-224 551l-205 -551h-6l-246 676l-71 54h263l-80 -60l161 -455l152 414l-41 101h153l-20 -60l178 -455l140 455l-120 60h264z" />
    <glyph glyph-name="wacute" unicode="&#x1e83;" horiz-adv-x="850" 
d="M406 550l-5 5l130 155h120zM770 420l-171 -450h-6l-157 338l-159 -338h-6l-209 464l-62 46h254l-80 -60l125 -280l107 232l-50 108h159l-27 -60l124 -270l98 270l-88 60h228z" />
    <glyph glyph-name="Wdieresis" unicode="&#x1e84;" horiz-adv-x="1060" 
d="M433 786q-21 0 -36.5 15.5t-15.5 36.5q0 22 15.5 37t36.5 15q22 0 37 -15t15 -37q0 -21 -15 -36.5t-37 -15.5zM634 786q-21 0 -36.5 15.5t-15.5 36.5q0 22 15.5 37t36.5 15q22 0 37 -15t15 -37q0 -21 -15 -36.5t-37 -15.5zM980 640l-212 -670h-6l-224 551l-205 -551h-6
l-246 676l-71 54h263l-80 -60l161 -455l152 414l-41 101h153l-20 -60l178 -455l140 455l-120 60h264z" />
    <glyph glyph-name="wdieresis" unicode="&#x1e85;" horiz-adv-x="850" 
d="M340 566q-21 0 -36.5 15.5t-15.5 36.5q0 22 15.5 37t36.5 15q22 0 37 -15t15 -37q0 -21 -15 -36.5t-37 -15.5zM541 566q-21 0 -36.5 15.5t-15.5 36.5q0 22 15.5 37t36.5 15q22 0 37 -15t15 -37q0 -21 -15 -36.5t-37 -15.5zM770 420l-171 -450h-6l-157 338l-159 -338h-6
l-209 464l-62 46h254l-80 -60l125 -280l107 232l-50 108h159l-27 -60l124 -270l98 270l-88 60h228z" />
    <glyph glyph-name="uni1E9E" unicode="&#x1e9e;" horiz-adv-x="712" 
d="M427 444q61 -10 106 -32.5t75 -54t44.5 -69.5t14.5 -79q0 -49 -19.5 -89.5t-52.5 -69.5t-76 -44.5t-89 -15.5q-50 0 -88 13t-67 35l60 80l105 -78q28 0 51 12.5t40 33.5t26.5 49.5t9.5 59.5q0 62 -47 110t-147 62l-38 -54l-50 37l212 300h-307v-590l80 -60h-260l80 60
v580l-80 60h596z" />
    <glyph glyph-name="Ygrave" unicode="&#x1ef2;" horiz-adv-x="725" 
d="M410 790l-195 200h110l90 -195zM414 308v-248l80 -60h-259l79 59v249l-234 339l-70 53h275l-80 -60l182 -271l188 271v1l-119 59h269l-80 -60z" />
    <glyph glyph-name="ygrave" unicode="&#x1ef3;" horiz-adv-x="570" 
d="M132 770h110l90 -195l-5 -5zM233 -160l137 -80h-243l141 295l-199 374l-69 51h257l-80 -60l139 -265l114 265l-88 60h228l-80 -60z" />
    <glyph glyph-name="endash" unicode="&#x2013;" horiz-adv-x="550" 
d="M530 295v-50h-510v50h510z" />
    <glyph glyph-name="emdash" unicode="&#x2014;" horiz-adv-x="770" 
d="M750 295v-50h-730v50h730z" />
    <glyph glyph-name="quoteleft" unicode="&#x2018;" horiz-adv-x="230" 
d="M117 520q-27 0 -47 18.5t-20 66.5q0 34 13.5 63t35.5 52.5t50.5 41t58.5 28.5l2 -5q-41 -26 -59 -57.5t-18 -61.5q0 -26 12.5 -49t34.5 -37q0 -23 -17 -41.5t-46 -18.5z" />
    <glyph glyph-name="quoteright" unicode="&#x2019;" horiz-adv-x="230" 
d="M113 790q27 0 47 -18.5t20 -66.5q0 -34 -13.5 -63t-35.5 -52.5t-50.5 -41t-58.5 -28.5l-2 5q41 26 59 57.5t18 61.5q0 26 -12.5 49t-34.5 37q0 23 17 41.5t46 18.5z" />
    <glyph glyph-name="quotesinglbase" unicode="&#x201a;" horiz-adv-x="230" 
d="M113 110q27 0 47 -18.5t20 -66.5q0 -34 -13.5 -63t-35.5 -52.5t-50.5 -41t-58.5 -28.5l-2 5q41 26 59 57.5t18 61.5q0 26 -12.5 49t-34.5 37q0 23 17 41.5t46 18.5z" />
    <glyph glyph-name="quotedblleft" unicode="&#x201c;" horiz-adv-x="410" 
d="M117 520q-27 0 -47 18.5t-20 66.5q0 34 13.5 63t35.5 52.5t50.5 41t58.5 28.5l2 -5q-41 -26 -59 -57.5t-18 -61.5q0 -26 12.5 -49t34.5 -37q0 -23 -17 -41.5t-46 -18.5zM297 520q-27 0 -47 18.5t-20 66.5q0 34 13.5 63t35.5 52.5t50.5 41t58.5 28.5l2 -5
q-41 -26 -59 -57.5t-18 -61.5q0 -26 12.5 -49t34.5 -37q0 -23 -17 -41.5t-46 -18.5z" />
    <glyph glyph-name="quotedblright" unicode="&#x201d;" horiz-adv-x="410" 
d="M113 790q27 0 47 -18.5t20 -66.5q0 -34 -13.5 -63t-35.5 -52.5t-50.5 -41t-58.5 -28.5l-2 5q41 26 59 57.5t18 61.5q0 26 -12.5 49t-34.5 37q0 23 17 41.5t46 18.5zM293 790q27 0 47 -18.5t20 -66.5q0 -34 -13.5 -63t-35.5 -52.5t-50.5 -41t-58.5 -28.5l-2 5
q41 26 59 57.5t18 61.5q0 26 -12.5 49t-34.5 37q0 23 17 41.5t46 18.5z" />
    <glyph glyph-name="quotedblbase" unicode="&#x201e;" horiz-adv-x="410" 
d="M113 110q27 0 47 -18.5t20 -66.5q0 -34 -13.5 -63t-35.5 -52.5t-50.5 -41t-58.5 -28.5l-2 5q41 26 59 57.5t18 61.5q0 26 -12.5 49t-34.5 37q0 23 17 41.5t46 18.5zM293 110q27 0 47 -18.5t20 -66.5q0 -34 -13.5 -63t-35.5 -52.5t-50.5 -41t-58.5 -28.5l-2 5
q41 26 59 57.5t18 61.5q0 26 -12.5 49t-34.5 37q0 23 17 41.5t46 18.5z" />
    <glyph glyph-name="dagger" unicode="&#x2020;" horiz-adv-x="540" 
d="M510 410l-220 30l30 -590l-50 -80l-50 80l30 590l-220 -30v100l220 -30l-30 220h100l-30 -220l220 30v-100z" />
    <glyph glyph-name="daggerdbl" unicode="&#x2021;" horiz-adv-x="540" 
d="M510 410l-220 30l30 -200l-30 -200l220 30v-100l-220 30l30 -220h-100l30 220l-220 -30v100l220 -30l-30 200l30 200l-220 -30v100l220 -30l-30 220h100l-30 -220l220 30v-100z" />
    <glyph glyph-name="bullet" unicode="&#x2022;" horiz-adv-x="296" 
d="M148 265q-20 0 -38 7.5t-31.5 21t-21 31t-7.5 37.5t7.5 38t21 31.5t31.5 21t38 7.5t38 -7.5t31.5 -21t21 -31.5t7.5 -38t-7.5 -37.5t-21 -31t-31.5 -21t-38 -7.5z" />
    <glyph glyph-name="ellipsis" unicode="&#x2026;" horiz-adv-x="660" 
d="M110 -10q-25 0 -42.5 17.5t-17.5 42.5t17.5 42.5t42.5 17.5t42.5 -17.5t17.5 -42.5t-17.5 -42.5t-42.5 -17.5zM330 -10q-25 0 -42.5 17.5t-17.5 42.5t17.5 42.5t42.5 17.5t42.5 -17.5t17.5 -42.5t-17.5 -42.5t-42.5 -17.5zM550 -10q-25 0 -42.5 17.5t-17.5 42.5
t17.5 42.5t42.5 17.5t42.5 -17.5t17.5 -42.5t-17.5 -42.5t-42.5 -17.5z" />
    <glyph glyph-name="perthousand" unicode="&#x2030;" horiz-adv-x="1304" 
d="M402 507q0 -42 -13.5 -79t-37 -64.5t-55.5 -43.5t-70 -16t-70 16t-55.5 43.5t-37 64.5t-13.5 79t13.5 79t37 64.5t55.5 43.5t70 16t70 -16t55.5 -43.5t37 -64.5t13.5 -79zM660 700l-358 -700h-60l358 700h60zM226 344q24 0 40.5 13t26.5 35.5t14.5 52t4.5 62.5t-4.5 62.5
t-14.5 52t-26.5 35.5t-40.5 13t-40.5 -13t-26.5 -35.5t-14.5 -52t-4.5 -62.5t4.5 -62.5t14.5 -52t26.5 -35.5t40.5 -13zM676 396q38 0 70 -16t55.5 -43.5t37 -64.5t13.5 -79t-13.5 -79t-37 -64.5t-55.5 -43.5t-70 -16t-70 16t-55.5 43.5t-37 64.5t-13.5 79t13.5 79t37 64.5
t55.5 43.5t70 16zM1078 396q38 0 70 -16t55.5 -43.5t37 -64.5t13.5 -79t-13.5 -79t-37 -64.5t-55.5 -43.5t-70 -16t-70 16t-55.5 43.5t-37 64.5t-13.5 79t13.5 79t37 64.5t55.5 43.5t70 16zM676 30q24 0 40.5 13t26.5 35.5t14.5 52t4.5 62.5t-4.5 62.5t-14.5 52t-26.5 35.5
t-40.5 13t-40.5 -13t-26.5 -35.5t-14.5 -52t-4.5 -62.5t4.5 -62.5t14.5 -52t26.5 -35.5t40.5 -13zM1078 30q24 0 40.5 13t26.5 35.5t14.5 52t4.5 62.5t-4.5 62.5t-14.5 52t-26.5 35.5t-40.5 13t-40.5 -13t-26.5 -35.5t-14.5 -52t-4.5 -62.5t4.5 -62.5t14.5 -52t26.5 -35.5
t40.5 -13z" />
    <glyph glyph-name="guilsinglleft" unicode="&#x2039;" horiz-adv-x="270" 
d="M130 260l120 -200l-5 -5l-220 205l220 205l5 -5z" />
    <glyph glyph-name="guilsinglright" unicode="&#x203a;" horiz-adv-x="270" 
d="M245 260l-220 -205l-5 5l120 200l-120 200l5 5z" />
    <glyph glyph-name="fraction" unicode="&#x2044;" horiz-adv-x="385" 
d="M70 -60h-51l315 800h51z" />
    <glyph glyph-name="Euro" unicode="&#x20ac;" horiz-adv-x="800" 
d="M760 173q-24 -54 -56 -89.5t-68.5 -56t-74.5 -29t-74 -8.5q-57 0 -111.5 18.5t-100 53t-79 84.5t-47.5 114h-99l20 50h72q-1 9 -1.5 18t-0.5 18q0 14 1 27.5t3 26.5h-84l20 50h74q17 62 53.5 110.5t85.5 81.5t108 50.5t122 17.5q37 0 78.5 -6t81.5 -20l57 26v-235
l-129 173q-23 7 -46 9.5t-44 2.5q-101 0 -173.5 -53.5t-94.5 -156.5h367l-20 -50h-354q-1 -8 -1 -15v-15q0 -16 1 -31t3 -29h361l-20 -50h-330q26 -87 89.5 -138.5t157.5 -51.5q57 0 122.5 24t125.5 84z" />
    <glyph glyph-name="trademark" unicode="&#x2122;" horiz-adv-x="1121" 
d="M454 794v-136l-66 88h-112v-403l55 -41h-177l54 40v404h-111l-67 -88v136l61 -14h303zM1032 343l54 -41h-177l54 41v331l-182 -276l-183 263v-318l82 -41h-181l55 41v396l-55 41h94l202 -290l190 290h101l-54 -40v-397z" />
    <glyph glyph-name="oneeighth" unicode="&#x215b;" horiz-adv-x="988" 
d="M353 -60h-51l315 800h51zM313 270h-263l100 38v324l-93 35l156 53v-412zM854 234q18 -8 35 -18.5t30 -24t21 -32t8 -43.5q0 -31 -12.5 -55t-33.5 -39.5t-48.5 -23.5t-57.5 -8t-57 7t-47 21t-32 35t-12 49q0 43 25 72t63 49q-30 15 -51.5 37.5t-21.5 63.5q0 29 11 50.5
t30 36t44 22t52 7.5q57 0 94.5 -28t37.5 -77q0 -37 -22 -61.5t-56 -39.5zM798 409q-21 0 -35 -7.5t-22.5 -18.5t-11.5 -23.5t-3 -23.5q0 -34 27 -52.5t63 -33.5q29 16 43 38t14 46q0 12 -4 25.5t-12.5 24.5t-23 18t-35.5 7zM799 21q22 0 38 8t26 20.5t14.5 27.5t4.5 29
q0 23 -9.5 38.5t-25.5 27t-36 20t-41 16.5q-34 -21 -47 -45t-13 -51q0 -17 5 -33.5t16 -29t28 -20.5t40 -8z" />
    <glyph glyph-name="threeeighths" unicode="&#x215c;" horiz-adv-x="1047" 
d="M373 -60h-51l315 800h51zM247 530q34 -17 55 -46.5t21 -71.5q0 -36 -16.5 -64t-43 -47.5t-60 -30t-66.5 -10.5q-31 0 -55 8t-42 22l38 50l65 -49q24 0 46.5 7.5t40 21.5t27.5 33.5t10 43.5q0 32 -20 58t-61 38q-12 -5 -25.5 -10.5t-27.5 -10.5l-10 25q33 13 53.5 26
t32.5 25.5t16 25.5t4 25q0 27 -15.5 44t-49.5 17q-24 0 -56 -12.5t-65 -50.5l-3 3q51 110 146 110q54 0 79.5 -28t25.5 -66q0 -49 -44 -86zM874 234q18 -8 35 -18.5t30 -24t21 -32t8 -43.5q0 -31 -12.5 -55t-33.5 -39.5t-48.5 -23.5t-57.5 -8t-57 7t-47 21t-32 35t-12 49
q0 43 25 72t63 49q-30 15 -51.5 37.5t-21.5 63.5q0 29 11 50.5t30 36t44 22t52 7.5q57 0 94.5 -28t37.5 -77q0 -37 -22 -61.5t-56 -39.5zM818 409q-21 0 -35 -7.5t-22.5 -18.5t-11.5 -23.5t-3 -23.5q0 -34 27 -52.5t63 -33.5q29 16 43 38t14 46q0 12 -4 25.5t-12.5 24.5
t-23 18t-35.5 7zM819 21q22 0 38 8t26 20.5t14.5 27.5t4.5 29q0 23 -9.5 38.5t-25.5 27t-36 20t-41 16.5q-34 -21 -47 -45t-13 -51q0 -17 5 -33.5t16 -29t28 -20.5t40 -8z" />
    <glyph glyph-name="fiveeighths" unicode="&#x215d;" horiz-adv-x="1018" 
d="M353 -60h-51l315 800h51zM116 572q106 -10 157 -52.5t51 -108.5q0 -40 -18 -69t-45.5 -48t-61.5 -28t-67 -9t-58 8.5t-44 22.5l39 53l69 -53q25 0 48 7t41 20.5t29 33.5t11 47q0 24 -10 44.5t-33.5 37t-61 27.5t-93.5 16l36 180h216l-12 -57h-178zM854 234
q18 -8 35 -18.5t30 -24t21 -32t8 -43.5q0 -31 -12.5 -55t-33.5 -39.5t-48.5 -23.5t-57.5 -8t-57 7t-47 21t-32 35t-12 49q0 43 25 72t63 49q-30 15 -51.5 37.5t-21.5 63.5q0 29 11 50.5t30 36t44 22t52 7.5q57 0 94.5 -28t37.5 -77q0 -37 -22 -61.5t-56 -39.5zM798 409
q-21 0 -35 -7.5t-22.5 -18.5t-11.5 -23.5t-3 -23.5q0 -34 27 -52.5t63 -33.5q29 16 43 38t14 46q0 12 -4 25.5t-12.5 24.5t-23 18t-35.5 7zM799 21q22 0 38 8t26 20.5t14.5 27.5t4.5 29q0 23 -9.5 38.5t-25.5 27t-36 20t-41 16.5q-34 -21 -47 -45t-13 -51q0 -17 5 -33.5
t16 -29t28 -20.5t40 -8z" />
    <glyph glyph-name="seveneighths" unicode="&#x215e;" horiz-adv-x="927" 
d="M628 740l-315 -800h-51l315 800h51zM342 701q-38 -64 -65.5 -119.5t-45.5 -108t-27 -103.5t-9 -107h-66q4 56 18 107t35 98.5t45.5 91.5t49.5 84h-197l-50 -68v125h312zM814 234q18 -8 35 -18.5t30 -24t21 -32t8 -43.5q0 -31 -12.5 -55t-33.5 -39.5t-48.5 -23.5t-57.5 -8
t-57 7t-47 21t-32 35t-12 49q0 43 25 72t63 49q-30 15 -51.5 37.5t-21.5 63.5q0 29 11 50.5t30 36t44 22t52 7.5q57 0 94.5 -28t37.5 -77q0 -37 -22 -61.5t-56 -39.5zM686 336q0 -34 27 -52.5t63 -33.5q29 16 43 38t14 46q0 12 -4 25.5t-12.5 24.5t-23 18t-35.5 7t-35 -7.5
t-22.5 -18.5t-11.5 -23.5t-3 -23.5zM759 21q22 0 38 8t26 20.5t14.5 27.5t4.5 29q0 23 -9.5 38.5t-25.5 27t-36 20t-41 16.5q-34 -21 -47 -45t-13 -51q0 -17 5 -33.5t16 -29t28 -20.5t40 -8z" />
    <glyph glyph-name="arrowleft" unicode="&#x2190;" horiz-adv-x="800" 
d="M225 559l-100 -167h655v-65h-656l101 -168l-5 -5l-220 205l220 205z" />
    <glyph glyph-name="arrowup" unicode="&#x2191;" horiz-adv-x="490" 
d="M445 555l-167 100v-655h-65v656l-168 -101l-5 5l205 220l205 -220z" />
    <glyph glyph-name="arrowright" unicode="&#x2192;" horiz-adv-x="800" 
d="M800 349l-220 -205l-5 5l101 168h-656v65h655l-100 167l5 5z" />
    <glyph glyph-name="arrowdown" unicode="&#x2193;" horiz-adv-x="480" 
d="M240 -10l-205 220l5 5l168 -101v656h65v-655l167 100l5 -5z" />
    <glyph glyph-name="arrowboth" unicode="&#x2194;" horiz-adv-x="980" 
d="M980 349l-220 -205l-5 5l101 168h-732l101 -168l-5 -5l-220 205l220 205l5 -5l-100 -167h730l-100 167l5 5z" />
    <glyph glyph-name="arrowupdn" unicode="&#x2195;" horiz-adv-x="450" 
d="M425 215l5 -5l-205 -220l-205 220l5 5l168 -101v542l-168 -101l-5 5l205 220l205 -220l-5 -5l-167 100v-540z" />
    <glyph glyph-name="uni2196" unicode="&#x2196;" horiz-adv-x="584" 
d="M10 669l301 -10v-7l-190 -48l463 -464l-46 -46l-463 464l-47 -189h-7z" />
    <glyph glyph-name="uni2197" unicode="&#x2197;" horiz-adv-x="584" 
d="M566 369l-47 189l-463 -464l-46 46l463 464l-190 48v7l301 10l-11 -300h-7z" />
    <glyph glyph-name="uni2198" unicode="&#x2198;" horiz-adv-x="584" 
d="M584 88l-301 10v7l190 48l-463 464l46 46l463 -464l47 189h7z" />
    <glyph glyph-name="uni2199" unicode="&#x2199;" horiz-adv-x="584" 
d="M28 388l47 -189l463 464l46 -46l-463 -464l190 -48v-7l-301 -10l11 300h7z" />
    <glyph glyph-name="partialdiff" unicode="&#x2202;" horiz-adv-x="586" 
d="M172 780q206 -37 295.5 -174.5t70.5 -355.5q-6 -66 -30 -114.5t-60 -81t-82 -48.5t-96 -16q-47 0 -88 15.5t-71.5 44.5t-48 69.5t-17.5 90.5q0 59 22 106.5t58.5 82t85 53t101.5 18.5q77 0 130 -37q-20 121 -93 195t-200 112zM290 30q39 0 65.5 18.5t43 48t23.5 67
t7 75.5q0 41 -8 76t-24.5 60.5t-42.5 40t-61 14.5q-39 0 -65.5 -18t-43.5 -47t-24.5 -64.5t-7.5 -71.5q0 -42 10.5 -78.5t29 -63.5t43.5 -42t55 -15z" />
    <glyph glyph-name="emptyset" unicode="&#x2205;" horiz-adv-x="642" 
d="M529 444q32 -36 49.5 -81.5t17.5 -97.5q0 -57 -21.5 -107t-59 -87.5t-87.5 -59t-107 -21.5q-52 0 -97.5 17.5t-81.5 49.5l-68 -68l-29 29l68 68q-32 36 -49.5 81.5t-17.5 97.5q0 57 21.5 107t59 87.5t87.5 59t107 21.5q52 0 97.5 -17.5t81.5 -49.5l68 68l29 -29zM91 265
q0 -42 14 -80t39 -68l326 326q-30 26 -68 41.5t-81 15.5q-48 0 -89.5 -19t-73 -51t-49.5 -74.5t-18 -90.5zM551 265q0 42 -14 80t-39 68l-326 -326q30 -26 68 -41.5t81 -15.5q48 0 89.5 19t73 51t49.5 74.5t18 90.5z" />
    <glyph glyph-name="product" unicode="&#x220f;" horiz-adv-x="810" 
d="M695 -180l80 -60h-260l80 60v830h-380v-830l80 -60h-260l80 60v820l-80 60h740l-80 -60v-820z" />
    <glyph glyph-name="summation" unicode="&#x2211;" horiz-adv-x="660" 
d="M615 -21v-219h-580l320 470l-299 470h558v-179l-97 129h-309l247 -390l-281 -410h344z" />
    <glyph glyph-name="minus" unicode="&#x2212;" horiz-adv-x="590" 
d="M550 375v-50h-510v50h510z" />
    <glyph glyph-name="radical" unicode="&#x221a;" horiz-adv-x="586" 
d="M586 860l-292 -890h-6l-224 462l-64 48h151l150 -325l225 705h60z" />
    <glyph glyph-name="infinity" unicode="&#x221e;" horiz-adv-x="690" 
d="M501 501q34 0 61.5 -12.5t47 -33.5t30 -48t10.5 -56t-10.5 -56t-30 -48t-47 -33.5t-61.5 -12.5q-31 0 -56 10.5t-44 25.5t-33 32.5t-23 31.5q-9 -14 -23 -31.5t-33 -32.5t-44 -25.5t-56 -10.5q-34 0 -61.5 12.5t-47 33.5t-30 48t-10.5 56t10.5 56t30 48t47 33.5
t61.5 12.5q31 0 56 -10.5t44 -25.5t33 -32.5t23 -31.5q9 14 23 31.5t33 32.5t44 25.5t56 10.5zM191 246q39 0 68 25.5t63 79.5q-34 54 -63 79.5t-68 25.5q-46 0 -71 -30.5t-25 -74.5t25 -74.5t71 -30.5zM499 246q46 0 71 30.5t25 74.5t-25 74.5t-71 30.5q-39 0 -68 -25.5
t-63 -79.5q34 -54 63 -79.5t68 -25.5z" />
    <glyph glyph-name="integral" unicode="&#x222b;" horiz-adv-x="594" 
d="M513 780q40 0 73 -8t58 -22l-73 -87l-82 77q-54 -5 -84.5 -54t-37.5 -131l-47 -540q-6 -69 -28.5 -117t-55.5 -79t-73.5 -45t-81.5 -14q-40 0 -73 8t-58 22l73 87l82 -77q54 5 84.5 54t37.5 131l47 540q6 69 28.5 117t55.5 79t73.5 45t81.5 14z" />
    <glyph glyph-name="approxequal" unicode="&#x2248;" horiz-adv-x="590" 
d="M431 505q54 0 84.5 -24.5t34.5 -87.5h-5q-17 37 -43.5 47t-52.5 10q-30 0 -67 -6.5t-76 -14.5t-77 -14.5t-70 -6.5q-54 0 -84.5 24.5t-34.5 87.5h5q17 -37 43.5 -47t52.5 -10q30 0 67 6.5t76 14.5t77 14.5t70 6.5zM431 305q54 0 84.5 -24.5t34.5 -87.5h-5
q-17 37 -43.5 47t-52.5 10q-30 0 -67 -6.5t-76 -14.5t-77 -14.5t-70 -6.5q-54 0 -84.5 24.5t-34.5 87.5h5q17 -37 43.5 -47t52.5 -10q30 0 67 6.5t76 14.5t77 14.5t70 6.5z" />
    <glyph glyph-name="notequal" unicode="&#x2260;" horiz-adv-x="590" 
d="M372 425l-105 -150h283v-50h-318l-101 -144l-33 23l85 121h-143v50h178l105 150h-283v50h318l102 145l32 -24l-85 -121h143v-50h-178z" />
    <glyph glyph-name="lessequal" unicode="&#x2264;" horiz-adv-x="590" 
d="M550 585l-459 -225l459 -225v-50l-510 250v50l510 250v-50zM550 50v-50h-510v50h510z" />
    <glyph glyph-name="greaterequal" unicode="&#x2265;" horiz-adv-x="590" 
d="M550 385v-50l-510 -250v50l459 225l-459 225v50zM550 0h-510v50h510v-50z" />
    <glyph glyph-name="lozenge" unicode="&#x25ca;" horiz-adv-x="562" 
d="M281 -40l1 2l-247 388l247 388l-1 2l246 -390zM467 350l-186 295l-186 -295l186 -295z" />
    <glyph glyph-name="a.sc" horiz-adv-x="612" 
d="M622 0h-248l80 60l-63 137h-211l-61 -137l120 -60h-204l269 587h6l248 -539zM371 242l-86 188l-84 -188h170z" />
    <glyph glyph-name="aacute.sc" horiz-adv-x="612" 
d="M271 650l-5 5l90 195h110zM622 0h-248l80 60l-63 137h-211l-61 -137l120 -60h-204l269 587h6l248 -539zM371 242l-86 188l-84 -188h170z" />
    <glyph glyph-name="abreve.sc" horiz-adv-x="612" 
d="M305 670q-28 0 -55 12.5t-48.5 35.5t-35.5 56.5t-16 75.5l5 5q16 -34 34 -56.5t37 -35.5t39 -18t40 -5t40 5t39 18t37 35.5t34 56.5l5 -5q-2 -42 -16 -75.5t-35.5 -56.5t-48.5 -35.5t-55 -12.5zM622 0h-248l80 60l-63 137h-211l-61 -137l120 -60h-204l269 587h6l248 -539
zM371 242l-86 188l-84 -188h170z" />
    <glyph glyph-name="acircumflex.sc" horiz-adv-x="612" 
d="M145 640l-5 5l165 220l165 -220l-5 -5l-160 130zM622 0h-248l80 60l-63 137h-211l-61 -137l120 -60h-204l269 587h6l248 -539zM371 242l-86 188l-84 -188h170z" />
    <glyph glyph-name="adieresis.sc" horiz-adv-x="612" 
d="M205 686q-21 0 -36.5 15.5t-15.5 36.5q0 22 15.5 37t36.5 15q22 0 37 -15t15 -37q0 -21 -15 -36.5t-37 -15.5zM406 686q-21 0 -36.5 15.5t-15.5 36.5q0 22 15.5 37t36.5 15q22 0 37 -15t15 -37q0 -21 -15 -36.5t-37 -15.5zM622 0h-248l80 60l-63 137h-211l-61 -137
l120 -60h-204l269 587h6l248 -539zM371 242l-86 188l-84 -188h170z" />
    <glyph glyph-name="ae.sc" horiz-adv-x="850" 
d="M805 153v-153h-398v210h-170l-101 -150l120 -60h-221l345 517l-71 43h471v-153l-78 108h-200v-201h151l57 73v-190l-57 72h-151v-224h225zM407 255v209l-140 -209h140z" />
    <glyph glyph-name="agrave.sc" horiz-adv-x="612" 
d="M339 650l-195 200h110l90 -195zM622 0h-248l80 60l-63 137h-211l-61 -137l120 -60h-204l269 587h6l248 -539zM371 242l-86 188l-84 -188h170z" />
    <glyph glyph-name="amacron.sc" horiz-adv-x="612" 
d="M459 696h-306v65h306v-65zM622 0h-248l80 60l-63 137h-211l-61 -137l120 -60h-204l269 587h6l248 -539zM371 242l-86 188l-84 -188h170z" />
    <glyph glyph-name="aogonek.sc" horiz-adv-x="612" 
d="M622 0h-156q-45 -29 -59.5 -61t-14.5 -61q0 -36 14.5 -49.5t40.5 -13.5q32 0 65 23l5 -5q-4 -15 -12.5 -30t-21.5 -26.5t-30 -19t-40 -7.5q-46 0 -71 29t-25 74q0 20 6 43t22.5 48t45 50t72.5 49l-71 154h-212l-61 -137l120 -60h-204l269 587h6l248 -539zM371 242
l-86 188l-84 -188h170z" />
    <glyph glyph-name="aring.sc" horiz-adv-x="612" 
d="M622 0h-248l80 60l-63 137h-211l-61 -137l120 -60h-204l255 557q-22 3 -41.5 13.5t-34 26.5t-23 36.5t-8.5 42.5q0 25 10 47t26.5 38.5t38.5 26.5t47 10t47 -10t38.5 -26.5t26.5 -38.5t10 -47q0 -45 -30 -78t-73 -41l234 -509zM223 676q0 -35 23.5 -59.5t58.5 -24.5
t58.5 24.5t23.5 59.5q0 36 -23.5 61t-58.5 25t-58.5 -25t-23.5 -61zM371 242l-86 188l-84 -188h170z" />
    <glyph glyph-name="atilde.sc" horiz-adv-x="612" 
d="M233 673q-48 0 -72 36.5t-26 90.5h5q14 -34 36 -45.5t41 -11.5q21 0 39.5 9t37.5 19.5t39 19.5t44 9q48 0 72 -36.5t26 -90.5h-5q-14 34 -36 45.5t-41 11.5q-21 0 -39.5 -9t-37.5 -19.5t-39 -19.5t-44 -9zM622 0h-248l80 60l-63 137h-211l-61 -137l120 -60h-204l269 587
h6l248 -539zM371 242l-86 188l-84 -188h170z" />
    <glyph glyph-name="b.sc" horiz-adv-x="597" 
d="M417 289q64 -14 102 -46.5t38 -86.5q0 -72 -66.5 -114t-180.5 -42h-285l80 60v440l-80 60h282q101 0 161 -38t60 -104q0 -48 -30 -80.5t-81 -48.5zM200 515v-206h99q69 0 101.5 28.5t32.5 75.5q0 46 -32.5 74t-101.5 28h-99zM301 45q82 0 119 28t37 79t-37.5 81.5
t-118.5 30.5h-101v-219h101z" />
    <glyph glyph-name="backslash.sc" horiz-adv-x="359" 
d="M66 592l276 -704h-49l-276 704h49z" />
    <glyph glyph-name="braceleft.sc" horiz-adv-x="269" 
d="M234 655q-45 -12 -64.5 -45.5t-19.5 -75.5t11 -85t11 -85q0 -33 -11.5 -54.5t-39.5 -28.5q28 -8 39.5 -29.5t11.5 -55.5q0 -42 -11 -85t-11 -85t19.5 -75.5t64.5 -45.5v-4q-83 5 -120.5 42.5t-37.5 91.5q0 38 11 76.5t11 81.5q0 12 -1.5 26t-7 26t-15 21t-24.5 12v4
q15 3 24.5 12.5t15 21.5t7 25.5t1.5 25.5q0 43 -11 81.5t-11 75.5q0 55 37.5 92.5t120.5 42.5v-4z" />
    <glyph glyph-name="braceright.sc" horiz-adv-x="269" 
d="M35 659q83 -5 120.5 -42.5t37.5 -92.5q0 -37 -11 -75.5t-11 -81.5q0 -12 1.5 -25.5t7 -25.5t15 -21.5t24.5 -12.5v-4q-15 -3 -24.5 -12t-15 -21t-7 -26t-1.5 -26q0 -43 11 -81.5t11 -76.5q0 -54 -37.5 -91.5t-120.5 -42.5v4q45 12 64.5 45.5t19.5 75.5t-11 85t-11 85
q0 34 11.5 55.5t39.5 29.5q-28 7 -39.5 28.5t-11.5 54.5q0 42 11 85t11 85t-19.5 75.5t-64.5 45.5v4z" />
    <glyph glyph-name="bracketleft.sc" horiz-adv-x="305" 
d="M156 604v-640l114 -41v-4h-188v730h188v-4z" />
    <glyph glyph-name="bracketright.sc" horiz-adv-x="305" 
d="M223 -81h-188v4l114 41v640l-114 41v4h188v-730z" />
    <glyph glyph-name="c.sc" horiz-adv-x="599" 
d="M569 142q-20 -42 -47 -71t-58 -47t-65 -26t-67 -8q-55 0 -107.5 19.5t-93.5 56.5t-66 89.5t-25 118.5q0 68 27 122.5t72 93t104 59.5t124 21q32 0 67.5 -5.5t70.5 -16.5l46 21v-190l-96 134q-23 7 -45 9.5t-42 2.5q-50 0 -92 -15.5t-72 -44.5t-47 -72t-17 -98
q0 -52 15.5 -94.5t44 -72.5t69 -46.5t89.5 -16.5q48 0 101.5 18.5t104.5 63.5z" />
    <glyph glyph-name="cacute.sc" horiz-adv-x="599" 
d="M311 655l90 195h110l-195 -200zM569 142q-20 -42 -47 -71t-58 -47t-65 -26t-67 -8q-55 0 -107.5 19.5t-93.5 56.5t-66 89.5t-25 118.5q0 68 27 122.5t72 93t104 59.5t124 21q32 0 67.5 -5.5t70.5 -16.5l46 21v-190l-96 134q-23 7 -45 9.5t-42 2.5q-50 0 -92 -15.5
t-72 -44.5t-47 -72t-17 -98q0 -52 15.5 -94.5t44 -72.5t69 -46.5t89.5 -16.5q48 0 101.5 18.5t104.5 63.5z" />
    <glyph glyph-name="ccaron.sc" horiz-adv-x="599" 
d="M515 860l-165 -220l-165 220l5 5l160 -130l160 130zM569 142q-20 -42 -47 -71t-58 -47t-65 -26t-67 -8q-55 0 -107.5 19.5t-93.5 56.5t-66 89.5t-25 118.5q0 68 27 122.5t72 93t104 59.5t124 21q32 0 67.5 -5.5t70.5 -16.5l46 21v-190l-96 134q-23 7 -45 9.5t-42 2.5
q-50 0 -92 -15.5t-72 -44.5t-47 -72t-17 -98q0 -52 15.5 -94.5t44 -72.5t69 -46.5t89.5 -16.5q48 0 101.5 18.5t104.5 63.5z" />
    <glyph glyph-name="ccedilla.sc" horiz-adv-x="599" 
d="M569 142q-35 -74 -90 -108.5t-114 -41.5l-24 -59q54 -17 76 -41.5t22 -56.5q0 -42 -29.5 -63.5t-69.5 -21.5q-24 0 -42 7.5t-31 19.5t-20.5 26.5t-12.5 29.5l5 5q17 -12 37 -20t41 -8q20 0 33.5 10t13.5 33q0 18 -12.5 34t-53.5 33l28 70q-54 1 -105.5 21t-91.5 57
t-64.5 89t-24.5 117q0 68 27 122.5t72 93t104 59.5t124 21q32 0 67.5 -5.5t70.5 -16.5l46 21v-190l-96 134q-23 7 -45 9.5t-42 2.5q-50 0 -92 -15.5t-72 -44.5t-47 -72t-17 -98q0 -52 15.5 -94.5t44 -72.5t69 -46.5t89.5 -16.5q48 0 101.5 18.5t104.5 63.5z" />
    <glyph glyph-name="cdotaccent.sc" horiz-adv-x="599" 
d="M346 671q-25 0 -42.5 17.5t-17.5 42.5t17.5 42.5t42.5 17.5t42.5 -17.5t17.5 -42.5t-17.5 -42.5t-42.5 -17.5zM569 142q-20 -42 -47 -71t-58 -47t-65 -26t-67 -8q-55 0 -107.5 19.5t-93.5 56.5t-66 89.5t-25 118.5q0 68 27 122.5t72 93t104 59.5t124 21q32 0 67.5 -5.5
t70.5 -16.5l46 21v-190l-96 134q-23 7 -45 9.5t-42 2.5q-50 0 -92 -15.5t-72 -44.5t-47 -72t-17 -98q0 -52 15.5 -94.5t44 -72.5t69 -46.5t89.5 -16.5q48 0 101.5 18.5t104.5 63.5z" />
    <glyph glyph-name="com_infinity" horiz-adv-x="740" 
d="M540 556q41 0 74 -12t56.5 -34.5t36.5 -54t13 -70.5q0 -27 -10.5 -58t-32.5 -57t-56 -43.5t-81 -17.5q-31 0 -57 10t-47.5 26.5t-39.5 38.5t-35 45q-14 -24 -30 -45.5t-35.5 -38t-43 -26.5t-52.5 -10q-40 0 -73.5 12t-57 34.5t-36.5 54t-13 70.5q0 27 10.5 58t32.5 57
t56 43.5t81 17.5q32 0 58 -9.5t47 -25.5t38.5 -36.5t32.5 -43.5q15 23 32 44t36.5 37t43.5 25t52 9zM540 289q21 0 42 7t38 20t27.5 33t10.5 45q0 54 -32 83t-86 29q-48 0 -79.5 -31t-57.5 -74q14 -22 28.5 -42.5t31 -36t35.5 -24.5t42 -9zM200 259q22 0 40 9t34 24
t30.5 35.5t27.5 42.5q-15 21 -29.5 40t-30 34t-33.5 23.5t-39 8.5t-42 -7t-38 -20t-27.5 -32.5t-10.5 -45.5q0 -54 32 -83t86 -29z" />
    <glyph glyph-name="d.sc" horiz-adv-x="675" 
d="M336 560q59 0 113 -15.5t95 -48t66 -83t25 -121.5q0 -68 -25 -122.5t-66 -92t-95 -57.5t-113 -20h-311l80 60v440l-80 60h311zM327 45q47 0 85 16t65.5 47t42.5 75t15 100q0 118 -57.5 175t-150.5 57h-127v-470h127z" />
    <glyph glyph-name="dcaron.sc" horiz-adv-x="675" 
d="M347 640l-165 220l5 5l160 -130l160 130l5 -5zM336 560q59 0 113 -15.5t95 -48t66 -83t25 -121.5q0 -68 -25 -122.5t-66 -92t-95 -57.5t-113 -20h-311l80 60v440l-80 60h311zM327 45q47 0 85 16t65.5 47t42.5 75t15 100q0 118 -57.5 175t-150.5 57h-127v-470h127z" />
    <glyph glyph-name="dcroat.sc" horiz-adv-x="675" 
d="M336 560q59 0 113 -15.5t95 -48t66 -83t25 -121.5q0 -68 -25 -122.5t-66 -92t-95 -57.5t-113 -20h-311l80 60v216h-98v45h98v179l-80 60h311zM327 45q47 0 85 16t65.5 47t42.5 75t15 100q0 118 -57.5 175t-150.5 57h-127v-194h147v-45h-147v-231h127z" />
    <glyph glyph-name="dotlessi.sc" horiz-adv-x="315" 
d="M205 60l80 -60h-255l80 60v440l-80 60h255l-80 -60v-440z" />
    <glyph glyph-name="e.sc" horiz-adv-x="548" 
d="M503 153v-153h-478l80 60v440l-80 60h453v-153l-78 108h-200v-201h151l57 73v-190l-57 72h-151v-224h225z" />
    <glyph glyph-name="eacute.sc" horiz-adv-x="548" 
d="M244 650l-5 5l90 195h110zM503 153v-153h-478l80 60v440l-80 60h453v-153l-78 108h-200v-201h151l57 73v-190l-57 72h-151v-224h225z" />
    <glyph glyph-name="ecaron.sc" horiz-adv-x="548" 
d="M278 640l-165 220l5 5l160 -130l160 130l5 -5zM503 153v-153h-478l80 60v440l-80 60h453v-153l-78 108h-200v-201h151l57 73v-190l-57 72h-151v-224h225z" />
    <glyph glyph-name="ecircumflex.sc" horiz-adv-x="548" 
d="M118 640l-5 5l165 220l165 -220l-5 -5l-160 130zM503 153v-153h-478l80 60v440l-80 60h453v-153l-78 108h-200v-201h151l57 73v-190l-57 72h-151v-224h225z" />
    <glyph glyph-name="edieresis.sc" horiz-adv-x="548" 
d="M178 686q-21 0 -36.5 15.5t-15.5 36.5q0 22 15.5 37t36.5 15q22 0 37 -15t15 -37q0 -21 -15 -36.5t-37 -15.5zM379 686q-21 0 -36.5 15.5t-15.5 36.5q0 22 15.5 37t36.5 15q22 0 37 -15t15 -37q0 -21 -15 -36.5t-37 -15.5zM503 153v-153h-478l80 60v440l-80 60h453v-153
l-78 108h-200v-201h151l57 73v-190l-57 72h-151v-224h225z" />
    <glyph glyph-name="edotaccent.sc" horiz-adv-x="548" 
d="M274 671q-25 0 -42.5 17.5t-17.5 42.5t17.5 42.5t42.5 17.5t42.5 -17.5t17.5 -42.5t-17.5 -42.5t-42.5 -17.5zM503 153v-153h-478l80 60v440l-80 60h453v-153l-78 108h-200v-201h151l57 73v-190l-57 72h-151v-224h225z" />
    <glyph glyph-name="egrave.sc" horiz-adv-x="548" 
d="M312 650l-195 200h110l90 -195zM503 153v-153h-478l80 60v440l-80 60h453v-153l-78 108h-200v-201h151l57 73v-190l-57 72h-151v-224h225z" />
    <glyph glyph-name="eight.dnom" horiz-adv-x="420" 
d="M266 234q18 -8 35 -18.5t30 -24t21 -32t8 -43.5q0 -31 -12.5 -55t-33.5 -39.5t-48.5 -23.5t-57.5 -8t-57 7t-47 21t-32 35t-12 49q0 43 25 72t63 49q-30 15 -51.5 37.5t-21.5 63.5q0 29 11 50.5t30 36t44 22t52 7.5q57 0 94.5 -28t37.5 -77q0 -37 -22 -61.5t-56 -39.5z
M210 409q-21 0 -35 -7.5t-22.5 -18.5t-11.5 -23.5t-3 -23.5q0 -34 27 -52.5t63 -33.5q29 16 43 38t14 46q0 12 -4 25.5t-12.5 24.5t-23 18t-35.5 7zM211 21q22 0 38 8t26 20.5t14.5 27.5t4.5 29q0 23 -9.5 38.5t-25.5 27t-36 20t-41 16.5q-34 -21 -47 -45t-13 -51
q0 -17 5 -33.5t16 -29t28 -20.5t40 -8z" />
    <glyph glyph-name="eight.numr" horiz-adv-x="420" 
d="M266 505q19 -9 36 -19t30 -24t20.5 -32.5t7.5 -43.5q0 -31 -12.5 -55t-33.5 -39.5t-48.5 -23.5t-57.5 -8t-57 7t-47 21t-32 35t-12 49q0 43 25 72t63 49q-30 15 -51.5 37.5t-21.5 63.5q0 29 11 50.5t30 36t44 22t52 7.5q57 0 94.5 -28t37.5 -77q0 -37 -22 -61.5
t-56 -38.5zM210 679q-21 0 -35 -7.5t-22.5 -18.5t-11.5 -23.5t-3 -23.5q0 -17 7.5 -30t20 -22.5t29 -17.5t34.5 -15q29 15 42.5 37.5t13.5 45.5q0 12 -4 25.5t-12.5 24.5t-23 18t-35.5 7zM211 291q22 0 38 8t26 20.5t14.5 27.5t4.5 29q0 23 -9.5 38.5t-25.5 27t-36 20
t-41 16.5q-34 -21 -47 -45t-13 -51q0 -17 5 -33.5t16 -29t28 -20.5t40 -8z" />
    <glyph glyph-name="eight.osf" horiz-adv-x="570" 
d="M376 381q29 -13 56 -29.5t47.5 -39t33 -52t12.5 -68.5q0 -50 -19.5 -88t-53 -63.5t-77.5 -38t-93 -12.5q-48 0 -91 11t-75.5 33.5t-51.5 56t-19 78.5q0 34 11 62.5t30 52.5t45 43.5t56 35.5q-24 12 -45.5 26.5t-37 34t-25 44t-9.5 57.5q0 45 18 80t48 58t69.5 35t83.5 12
q45 0 83.5 -11.5t67 -33.5t44.5 -52.5t16 -69.5q0 -60 -35 -99t-89 -63zM286 660q-34 0 -56.5 -11.5t-35.5 -29t-18.5 -37.5t-5.5 -38q0 -28 12 -48t32 -36t46 -28.5t55 -24.5q47 24 68.5 60t21.5 74q0 20 -6 41t-20 38t-36.5 28.5t-56.5 11.5zM288 40q35 0 60 13t41 32.5
t23.5 44t7.5 46.5q0 36 -15.5 61.5t-40.5 43.5t-57.5 32t-65.5 27q-54 -34 -75 -72.5t-21 -81.5q0 -27 8.5 -53t25.5 -47t44.5 -33.5t64.5 -12.5z" />
    <glyph glyph-name="eight.sc" horiz-adv-x="535" 
d="M348 305q25 -10 48 -23.5t40.5 -31.5t28 -42t10.5 -56q0 -40 -16.5 -70.5t-45.5 -50t-67.5 -29.5t-82.5 -10q-43 0 -80 10t-64.5 29t-43 46.5t-15.5 62.5q0 53 32 88.5t82 58.5q-39 20 -66 49t-27 80q0 37 15 65.5t41 47.5t60.5 29t73.5 10q40 0 73.5 -10.5t57.5 -28.5
t37 -43.5t13 -55.5q0 -46 -29 -76t-75 -49zM267 523q-27 0 -46 -8t-31 -21t-17.5 -28.5t-5.5 -30.5q0 -23 10.5 -39.5t28 -29t41 -22.5t48.5 -19q38 20 55.5 49.5t17.5 58.5q0 16 -5.5 32t-17.5 29t-31 21t-47 8zM267 37q31 0 52.5 9t35 23.5t19.5 32t6 35.5
q0 29 -13.5 48.5t-35 34t-49.5 25t-57 21.5q-38 -24 -54.5 -53.5t-16.5 -62.5q0 -21 6.5 -41.5t20.5 -36.5t35.5 -25.5t50.5 -9.5z" />
    <glyph glyph-name="emacron.sc" horiz-adv-x="548" 
d="M432 696h-306v65h306v-65zM503 153v-153h-478l80 60v440l-80 60h453v-153l-78 108h-200v-201h151l57 73v-190l-57 72h-151v-224h225z" />
    <glyph glyph-name="emdash.sc" horiz-adv-x="663" 
d="M646 239v-39h-629v39h629z" />
    <glyph glyph-name="endash.sc" horiz-adv-x="471" 
d="M454 239v-39h-437v39h437z" />
    <glyph glyph-name="eng.sc" horiz-adv-x="722" 
d="M632 500v-479q0 -89 -38.5 -138.5t-107.5 -74.5l-4 4q23 19 41 39.5t30 45t18.5 55t7.5 70.5l-404 398v-360l120 -60h-260l80 60v440l-80 60h134l403 -402v342l-120 60h260z" />
    <glyph glyph-name="eogonek.sc" horiz-adv-x="548" 
d="M534 -167q-4 -15 -12.5 -30t-21.5 -26.5t-30.5 -19t-40.5 -7.5q-44 0 -69.5 26.5t-25.5 67.5q0 43 25 80.5t86 75.5h-420l80 60v440l-80 60h453v-153l-78 108h-200v-201h151l57 73v-190l-57 72h-151v-224h225l78 108v-153q-94 -61 -94 -129q0 -31 16 -43.5t40 -12.5
q31 0 64 23z" />
    <glyph glyph-name="eth.sc" horiz-adv-x="675" 
d="M336 560q59 0 113 -15.5t95 -48t66 -83t25 -121.5q0 -68 -25 -122.5t-66 -92t-95 -57.5t-113 -20h-311l80 60v216h-98v45h98v179l-80 60h311zM327 45q47 0 85 16t65.5 47t42.5 75t15 100q0 118 -57.5 175t-150.5 57h-127v-194h147v-45h-147v-231h127z" />
    <glyph glyph-name="exclam.sc" horiz-adv-x="290" 
d="M162 177h-33l-31 423h94zM145 -8q-21 0 -36.5 15t-15.5 36t15.5 35.5t36.5 14.5q22 0 37 -14.5t15 -35.5t-15 -36t-37 -15z" />
    <glyph glyph-name="exclamdown.sc" horiz-adv-x="290" 
d="M145 395q22 0 37 -15t15 -36t-15 -35.5t-37 -14.5q-21 0 -36.5 14.5t-15.5 35.5t15.5 36t36.5 15zM98 -213l31 423h33l30 -423h-94z" />
    <glyph glyph-name="f.sc" horiz-adv-x="505" 
d="M470 407l-78 108h-192v-226h179l62 79v-204l-62 80h-179v-184l120 -60h-295l80 60v440l-80 60h445v-153z" />
    <glyph glyph-name="f_f" horiz-adv-x="630" 
d="M606 740q-54 -5 -80 -54t-26 -131v-75h160l-31 -60h-129v-360l120 -60h-290l80 60v360h-210v-360l80 -60h-250l80 60v360h-100l100 75v10q0 69 21.5 117t57.5 79t82 45t95 14q35 0 69 -6t60 -17q28 23 62 33t69 10q40 0 74 -8t60 -22l-65 -87zM410 480v45q0 71 20 122
l-84 73q-69 -5 -107.5 -54t-38.5 -131v-55h210z" />
    <glyph glyph-name="f_f_i" horiz-adv-x="900" 
d="M880 0h-250l80 60v360h-210v-360l80 -60h-250l80 60v360h-210v-360l80 -60h-250l80 60v360h-100l100 75v10q0 69 21.5 117t57.5 79t82 45t95 14q38 0 76.5 -7.5t64.5 -20.5q35 25 76 36.5t83 11.5q40 0 74 -8t60 -22l-65 -87l-89 77q-30 -2 -57 -16t-46.5 -38t-31 -57
t-11.5 -74v-75h300v-420zM410 480v45q0 35 6.5 64.5t17.5 54.5l-88 76q-69 -5 -107.5 -54t-38.5 -131v-55h210z" />
    <glyph glyph-name="f_f_l" horiz-adv-x="900" 
d="M880 0h-250l80 60v622l-80 58q-27 -2 -50.5 -16t-41 -38t-28 -57t-10.5 -74v-75h130l-31 -60h-99v-360l80 -60h-250l80 60v360h-210v-360l80 -60h-250l80 60v360h-100l100 75v10q0 69 21.5 117t57.5 79t82 45t95 14q38 0 74.5 -7.5t63.5 -19.5q32 25 70.5 36t75.5 11
q40 0 82 -8t68 -22v-690zM410 525q0 35 6 65t17 55l-87 75q-69 -5 -107.5 -54t-38.5 -131v-55h210v45z" />
    <glyph glyph-name="five.dnom" horiz-adv-x="394" 
d="M116 305q106 -10 157 -52.5t51 -108.5q0 -40 -18 -69t-45.5 -48t-61.5 -28t-67 -9t-58 8.5t-44 22.5l39 53l69 -53q25 0 48 7t41 20.5t29 33.5t11 47q0 24 -10 44.5t-33.5 37t-61 27.5t-93.5 16l36 180h216l-12 -57h-178z" />
    <glyph glyph-name="five.numr" horiz-adv-x="394" 
d="M116 572q106 -10 157 -52.5t51 -108.5q0 -40 -18 -69t-45.5 -48t-61.5 -28t-67 -9t-58 8.5t-44 22.5l39 53l69 -53q25 0 48 7t41 20.5t29 33.5t11 47q0 24 -10 44.5t-33.5 37t-61 27.5t-93.5 16l36 180h216l-12 -57h-178z" />
    <glyph glyph-name="five.osf" horiz-adv-x="515" 
d="M153 274q169 -15 255.5 -84t86.5 -173q0 -64 -28.5 -110.5t-73 -77t-99 -45t-106.5 -14.5q-53 0 -93 13.5t-70 36.5l63 84l110 -84q40 0 77 10.5t66 32t46.5 54t17.5 75.5q0 38 -18 71.5t-57 59.5t-101.5 44t-151.5 25l59 288h345l-19 -90h-285z" />
    <glyph glyph-name="five.sc" horiz-adv-x="502" 
d="M143 393q146 -14 217.5 -68.5t71.5 -139.5q0 -49 -21.5 -85.5t-56.5 -61t-80 -36.5t-92 -12t-86.5 14t-65.5 37l58 60l86 -71q35 0 66.5 8t55.5 25t38.5 41.5t14.5 57.5q0 30 -14.5 56.5t-46.5 47t-83.5 34.5t-125.5 20l51 240h298l-16 -78h-249z" />
    <glyph glyph-name="four.dnom" horiz-adv-x="403" 
d="M293 111v-73l50 -38h-182l75 38v73h-191l-25 20l216 307l57 12v-289h70l-10 -50h-60zM236 161v222l-156 -222h156z" />
    <glyph glyph-name="four.numr" horiz-adv-x="403" 
d="M293 381v-73l50 -38h-182l75 38v73h-191l-25 20l216 307l57 12v-289h70l-10 -50h-60zM236 431v222l-156 -222h156z" />
    <glyph glyph-name="four.osf" horiz-adv-x="560" 
d="M524 0h-97v-220h-90v220h-297l-40 33l337 450l90 20v-428h113zM337 75v324l-241 -324h241z" />
    <glyph glyph-name="four.sc" horiz-adv-x="534" 
d="M397 140v-95l64 -45h-251l97 49v91h-254l-33 26l287 391l90 18v-363h97l-15 -72h-82zM307 212v276l-201 -276h201z" />
    <glyph glyph-name="g.sc" horiz-adv-x="619" 
d="M574 -2l-47 25q-40 -17 -83 -25t-83 -8q-65 0 -123.5 19t-102.5 56t-69.5 90t-25.5 122q0 71 27 125.5t72 91.5t103.5 56.5t121.5 19.5q35 0 71.5 -6t70.5 -17l49 22v-180l-96 124q-24 7 -46 9.5t-42 2.5q-51 0 -93 -14.5t-72.5 -43t-47.5 -71t-17 -97.5
q0 -57 17.5 -103.5t49 -80t74 -52t92.5 -18.5q20 0 50.5 4t64.5 15v137l-147 65h232v-268z" />
    <glyph glyph-name="gbreve.sc" horiz-adv-x="619" 
d="M498 850q-2 -42 -16 -75.5t-35.5 -56.5t-48.5 -35.5t-55 -12.5t-55 12.5t-48.5 35.5t-35.5 56.5t-16 75.5l5 5q16 -34 34 -56.5t37 -35.5t39 -18t40 -5t40 5t39 18t37 35.5t34 56.5zM574 -2l-47 25q-40 -17 -83 -25t-83 -8q-65 0 -123.5 19t-102.5 56t-69.5 90t-25.5 122
q0 71 27 125.5t72 91.5t103.5 56.5t121.5 19.5q35 0 71.5 -6t70.5 -17l49 22v-180l-96 124q-24 7 -46 9.5t-42 2.5q-51 0 -93 -14.5t-72.5 -43t-47.5 -71t-17 -97.5q0 -57 17.5 -103.5t49 -80t74 -52t92.5 -18.5q20 0 50.5 4t64.5 15v137l-147 65h232v-268z" />
    <glyph glyph-name="gcommaaccent.sc" horiz-adv-x="619" 
d="M574 -2l-47 25q-40 -17 -83 -25t-83 -8q-65 0 -123.5 19t-102.5 56t-69.5 90t-25.5 122q0 71 27 125.5t72 91.5t103.5 56.5t121.5 19.5q35 0 71.5 -6t70.5 -17l49 22v-180l-96 124q-24 7 -46 9.5t-42 2.5q-51 0 -93 -14.5t-72.5 -43t-47.5 -71t-17 -97.5
q0 -57 17.5 -103.5t49 -80t74 -52t92.5 -18.5q20 0 50.5 4t64.5 15v137l-147 65h232v-268zM344 -65q20 0 35 -14.5t15 -49.5q0 -26 -10 -48t-26.5 -39.5t-37.5 -30.5t-44 -21l-2 4q31 20 44.5 43t13.5 46q0 20 -9.5 37t-25.5 28q0 17 12.5 31t34.5 14z" />
    <glyph glyph-name="gdotaccent.sc" horiz-adv-x="619" 
d="M339 671q-25 0 -42.5 17.5t-17.5 42.5t17.5 42.5t42.5 17.5t42.5 -17.5t17.5 -42.5t-17.5 -42.5t-42.5 -17.5zM574 -2l-47 25q-40 -17 -83 -25t-83 -8q-65 0 -123.5 19t-102.5 56t-69.5 90t-25.5 122q0 71 27 125.5t72 91.5t103.5 56.5t121.5 19.5q35 0 71.5 -6t70.5 -17
l49 22v-180l-96 124q-24 7 -46 9.5t-42 2.5q-51 0 -93 -14.5t-72.5 -43t-47.5 -71t-17 -97.5q0 -57 17.5 -103.5t49 -80t74 -52t92.5 -18.5q20 0 50.5 4t64.5 15v137l-147 65h232v-268z" />
    <glyph glyph-name="germandbls.sc" horiz-adv-x="579" 
d="M387 354q44 -10 76.5 -29t53.5 -43.5t31.5 -53.5t10.5 -59q0 -38 -15 -70.5t-41 -56t-60.5 -37t-72.5 -13.5q-27 0 -56 6.5t-52 20.5v86l113 -79q21 4 37 16t27 29.5t16.5 38.5t5.5 42q0 47 -28 82t-93 53l-35 -50l-50 37l170 241h-250v-455l80 -60h-255l80 60v440
l-80 60h531z" />
    <glyph glyph-name="h.sc" horiz-adv-x="721" 
d="M616 60l80 -60h-255l80 60v223h-321v-223l80 -60h-255l80 60v440l-80 60h255l-80 -60v-172h321v172l-80 60h255l-80 -60v-440z" />
    <glyph glyph-name="hbar.sc" horiz-adv-x="741" 
d="M616 60l80 -60h-255l80 60v223h-321v-223l80 -60h-255l80 60v338h-48v45h48v57l-80 60h255l-80 -60v-57h321v57l-80 60h255l-80 -60v-57h79v-45h-79v-338zM521 328v70h-321v-70h321z" />
    <glyph glyph-name="hyphen.sc" horiz-adv-x="350" 
d="M322 255l4 -47l-296 -24l-4 47z" />
    <glyph glyph-name="i.loclTRK" horiz-adv-x="295" 
d="M144 591q-25 0 -42.5 17.5t-17.5 42.5t17.5 42.5t42.5 17.5t42.5 -17.5t17.5 -42.5t-17.5 -42.5t-42.5 -17.5zM275 0h-250l80 60v308l-70 52l160 70v-430z" />
    <glyph glyph-name="i.sc" horiz-adv-x="315" 
d="M205 60l80 -60h-255l80 60v440l-80 60h255l-80 -60v-440z" />
    <glyph glyph-name="i.sc.loclTRK" horiz-adv-x="315" 
d="M153 671q-25 0 -42.5 17.5t-17.5 42.5t17.5 42.5t42.5 17.5t42.5 -17.5t17.5 -42.5t-17.5 -42.5t-42.5 -17.5zM205 60l80 -60h-255l80 60v440l-80 60h255l-80 -60v-440z" />
    <glyph glyph-name="iacute.sc" horiz-adv-x="315" 
d="M123 650l-5 5l90 195h110zM205 500v-440l80 -60h-255l80 60v440l-80 60h255z" />
    <glyph glyph-name="icircumflex.sc" horiz-adv-x="315" 
d="M322 645l-5 -5l-160 130l-160 -130l-5 5l165 220zM205 500v-440l80 -60h-255l80 60v440l-80 60h255z" />
    <glyph glyph-name="idieresis.sc" horiz-adv-x="315" 
d="M109 738q0 -21 -15 -36.5t-37 -15.5q-21 0 -36.5 15.5t-15.5 36.5q0 22 15.5 37t36.5 15q22 0 37 -15t15 -37zM258 790q22 0 37 -15t15 -37q0 -21 -15 -36.5t-37 -15.5q-21 0 -36.5 15.5t-15.5 36.5q0 22 15.5 37t36.5 15zM205 500v-440l80 -60h-255l80 60v440l-80 60
h255z" />
    <glyph glyph-name="igrave.sc" horiz-adv-x="315" 
d="M191 650l-195 200h110l90 -195zM205 60l80 -60h-255l80 60v440l-80 60h255l-80 -60v-440z" />
    <glyph glyph-name="imacron.sc" horiz-adv-x="315" 
d="M311 761v-65h-306v65h306zM205 500v-440l80 -60h-255l80 60v440l-80 60h255z" />
    <glyph glyph-name="iogonek.sc" horiz-adv-x="315" 
d="M174 0q-35 -30 -56 -63t-21 -62q0 -35 16.5 -47.5t39.5 -12.5q31 0 64 23l5 -5q-4 -15 -12.5 -30t-21.5 -26.5t-30.5 -19t-40.5 -7.5q-45 0 -70 27t-25 70q0 42 33 80t87 73h-112l80 60v440l-80 60h255l-80 -60v-440l80 -60h-111z" />
    <glyph glyph-name="j.sc" horiz-adv-x="300" 
d="M200 500v-489q0 -82 -41.5 -129.5t-116.5 -73.5l-4 4q34 40 50.5 84t16.5 112v492l-80 60h255z" />
    <glyph glyph-name="k.sc" horiz-adv-x="634" 
d="M200 60l80 -60h-255l80 60v440l-80 60h255l-80 -60v-440zM356 313q49 -69 85.5 -121t69.5 -89.5t67.5 -62.5t80.5 -40v-5q-66 -6 -111.5 3.5t-87 42.5t-87.5 93t-113 154l233 221l-76 51h200z" />
    <glyph glyph-name="kcommaaccent.sc" horiz-adv-x="634" 
d="M200 60l80 -60h-255l80 60v440l-80 60h255l-80 -60v-440zM356 313q49 -69 85.5 -121t69.5 -89.5t67.5 -62.5t80.5 -40v-5q-66 -6 -111.5 3.5t-87 42.5t-87.5 93t-113 154l233 221l-76 51h200zM354 -65q20 0 35 -14.5t15 -49.5q0 -26 -10 -48t-26.5 -39.5t-37.5 -30.5
t-44 -21l-2 4q31 20 44.5 43t13.5 46q0 20 -9.5 37t-25.5 28q0 17 12.5 31t34.5 14z" />
    <glyph glyph-name="l.sc" horiz-adv-x="502" 
d="M492 155v-155h-477l80 60v440l-80 60h255l-80 -60v-455h223z" />
    <glyph glyph-name="lacute.sc" horiz-adv-x="502" 
d="M130 650l-5 5l90 195h110zM492 155v-155h-477l80 60v440l-80 60h255l-80 -60v-455h223z" />
    <glyph glyph-name="lcaron.sc" horiz-adv-x="543" 
d="M386 391q33 22 48 47.5t15 50.5q0 22 -10.5 41t-28.5 30q0 19 14 34.5t38 15.5q23 0 39.5 -15.5t16.5 -54.5q0 -28 -11 -52t-29.5 -43.5t-42 -34t-48.5 -23.5zM413 45l79 110v-155h-477l80 60v440l-80 60h255l-80 -60v-455h223z" />
    <glyph glyph-name="lcommaaccent.sc" horiz-adv-x="502" 
d="M492 155v-155h-477l80 60v440l-80 60h255l-80 -60v-455h223zM295 -71q20 0 35 -14.5t15 -49.5q0 -26 -10 -48t-26.5 -39.5t-37.5 -30.5t-44 -21l-2 4q31 20 44.5 43t13.5 46q0 20 -9.5 37t-25.5 28q0 17 12.5 31t34.5 14z" />
    <glyph glyph-name="long_f" horiz-adv-x="330" 
d="M200 480h240l-31 -60h-209v-360l120 -60h-290l80 60v360h-100l100 75v30q0 69 18.5 117t48.5 79t69 45t80 14q40 0 74 -8t60 -22l-65 -87l-89 77q-54 -5 -80 -54t-26 -131v-75z" />
    <glyph glyph-name="lslash.sc" horiz-adv-x="522" 
d="M512 155v-155h-477l80 60v128l-85 -57v60l85 56v253l-80 60h255l-80 -60v-195l190 127v-60l-190 -126v-201h223z" />
    <glyph glyph-name="m.sc" horiz-adv-x="820" 
d="M715 60l80 -60h-255l80 60v377l-227 -331l-228 317v-363l120 -60h-260l80 60v440l-80 60h156l234 -326l223 326h157l-80 -60v-440z" />
    <glyph glyph-name="n.sc" horiz-adv-x="737" 
d="M632 500v-526h-5l-452 446v-360l120 -60h-260l80 60v440l-80 60h134l403 -402v342l-120 60h260z" />
    <glyph glyph-name="nacute.sc" horiz-adv-x="737" 
d="M340 650l-5 5l90 195h110zM632 500v-526h-5l-452 446v-360l120 -60h-260l80 60v440l-80 60h134l403 -402v342l-120 60h260z" />
    <glyph glyph-name="ncaron.sc" horiz-adv-x="737" 
d="M374 640l-165 220l5 5l160 -130l160 130l5 -5zM632 500v-526h-5l-452 446v-360l120 -60h-260l80 60v440l-80 60h134l403 -402v342l-120 60h260z" />
    <glyph glyph-name="ncommaaccent.sc" horiz-adv-x="737" 
d="M632 500v-526h-5l-452 446v-360l120 -60h-260l80 60v440l-80 60h134l403 -402v342l-120 60h260zM375 -65q20 0 35 -14.5t15 -49.5q0 -26 -10 -48t-26.5 -39.5t-37.5 -30.5t-44 -21l-2 4q31 20 44.5 43t13.5 46q0 20 -9.5 37t-25.5 28q0 17 12.5 31t34.5 14z" />
    <glyph glyph-name="nine.dnom" horiz-adv-x="395" 
d="M253 181q-39 -16 -76.5 -16t-67 14t-47 42t-17.5 68q0 29 11 54.5t31.5 44.5t48.5 30t61 11q63 0 105.5 -42t42.5 -131q0 -52 -18 -100t-51.5 -87t-82.5 -67.5t-112 -41.5l-9 25q104 29 156 92.5t52 166.5q0 44 -7.5 73.5t-20 47.5t-28.5 25.5t-32 7.5q-19 0 -33.5 -8.5
t-25 -23t-16 -33.5t-5.5 -39q0 -61 36.5 -83t94.5 -5z" />
    <glyph glyph-name="nine.numr" horiz-adv-x="395" 
d="M253 462q-39 -16 -76.5 -16t-67 14t-47 42t-17.5 68q0 29 11 54.5t31.5 44.5t48.5 30t61 11q63 0 105.5 -42t42.5 -131q0 -52 -18 -100t-51.5 -87t-82.5 -67t-112 -42l-9 25q104 29 156 92.5t52 166.5q0 44 -7.5 73.5t-20 47.5t-28.5 25.5t-32 7.5q-19 0 -33.5 -8.5
t-25 -23t-16 -33.5t-5.5 -39q0 -61 36.5 -83t94.5 -5z" />
    <glyph glyph-name="nine.osf" horiz-adv-x="570" 
d="M377 94q-63 -26 -122.5 -26t-106 22.5t-75 67t-28.5 108.5q0 47 18 88t50 71t76.5 47.5t98.5 17.5q51 0 94 -16.5t75 -50.5t50 -86.5t18 -123.5q0 -84 -28.5 -160.5t-82.5 -138.5t-132.5 -107.5t-178.5 -66.5l-15 40q166 48 249 148.5t83 266.5q0 71 -12.5 118t-32 75
t-44.5 40t-51 12q-30 0 -53.5 -14t-40 -37t-25.5 -53t-9 -62q0 -48 15.5 -81t43.5 -50.5t66.5 -19.5t84.5 11z" />
    <glyph glyph-name="nine.sc" horiz-adv-x="508" 
d="M324 245q-55 -19 -106 -18t-89 20.5t-61 55.5t-23 86q0 39 14.5 72t41 57.5t63.5 38t82 13.5q42 0 80.5 -13t67.5 -40t46.5 -69t17.5 -101q0 -67 -24 -127.5t-70 -110.5t-113 -86t-154 -53l-12 32q140 38 209 119t69 211q0 54 -11 91t-28.5 59.5t-39.5 32.5t-43 10
q-25 0 -44 -11t-31.5 -30t-18.5 -43t-6 -50q0 -75 47 -104t125 -9z" />
    <glyph glyph-name="ntilde.sc" horiz-adv-x="737" 
d="M302 673q-48 0 -72 36.5t-26 90.5h5q14 -34 36 -45.5t41 -11.5q21 0 39.5 9t37.5 19.5t39 19.5t44 9q48 0 72 -36.5t26 -90.5h-5q-14 34 -36 45.5t-41 11.5q-21 0 -39.5 -9t-37.5 -19.5t-39 -19.5t-44 -9zM632 500v-526h-5l-452 446v-360l120 -60h-260l80 60v440l-80 60
h134l403 -402v342l-120 60h260z" />
    <glyph glyph-name="numbersign.sc" horiz-adv-x="572" 
d="M441 383l-20 -206h94l-4 -39h-93l-13 -138h-53l13 138h-184l-13 -138h-52l13 138h-94l3 39h94l19 206h-93l3 39h93l13 138h53l-13 -138h184l13 138h53l-13 -138h93l-3 -39h-93zM388 383h-184l-20 -206h184z" />
    <glyph glyph-name="o.sc" horiz-adv-x="678" 
d="M341 570q58 0 111.5 -19t95 -55.5t66 -90.5t24.5 -123t-25 -123.5t-66.5 -92t-96 -57t-113.5 -19.5q-58 0 -111.5 19t-94.5 55.5t-66 90.5t-25 123t25 123.5t66.5 92t96 57t113.5 19.5zM353 35q84 0 132 60.5t48 169.5q0 64 -16.5 112.5t-45 81.5t-66.5 49.5t-81 16.5
q-83 0 -131 -60t-48 -170q0 -63 16.5 -111.5t44.5 -81.5t66 -50t81 -17z" />
    <glyph glyph-name="oacute.sc" horiz-adv-x="678" 
d="M300 655l90 195h110l-195 -200zM341 570q58 0 111.5 -19t95 -55.5t66 -90.5t24.5 -123t-25 -123.5t-66.5 -92t-96 -57t-113.5 -19.5q-58 0 -111.5 19t-94.5 55.5t-66 90.5t-25 123t25 123.5t66.5 92t96 57t113.5 19.5zM353 35q84 0 132 60.5t48 169.5q0 64 -16.5 112.5
t-45 81.5t-66.5 49.5t-81 16.5q-83 0 -131 -60t-48 -170q0 -63 16.5 -111.5t44.5 -81.5t66 -50t81 -17z" />
    <glyph glyph-name="ocircumflex.sc" horiz-adv-x="678" 
d="M504 645l-5 -5l-160 130l-160 -130l-5 5l165 220zM341 570q58 0 111.5 -19t95 -55.5t66 -90.5t24.5 -123t-25 -123.5t-66.5 -92t-96 -57t-113.5 -19.5q-58 0 -111.5 19t-94.5 55.5t-66 90.5t-25 123t25 123.5t66.5 92t96 57t113.5 19.5zM353 35q84 0 132 60.5t48 169.5
q0 64 -16.5 112.5t-45 81.5t-66.5 49.5t-81 16.5q-83 0 -131 -60t-48 -170q0 -63 16.5 -111.5t44.5 -81.5t66 -50t81 -17z" />
    <glyph glyph-name="odieresis.sc" horiz-adv-x="678" 
d="M239 686q-21 0 -36.5 15.5t-15.5 36.5q0 22 15.5 37t36.5 15q22 0 37 -15t15 -37q0 -21 -15 -36.5t-37 -15.5zM440 686q-21 0 -36.5 15.5t-15.5 36.5q0 22 15.5 37t36.5 15q22 0 37 -15t15 -37q0 -21 -15 -36.5t-37 -15.5zM341 570q58 0 111.5 -19t95 -55.5t66 -90.5
t24.5 -123t-25 -123.5t-66.5 -92t-96 -57t-113.5 -19.5q-58 0 -111.5 19t-94.5 55.5t-66 90.5t-25 123t25 123.5t66.5 92t96 57t113.5 19.5zM353 35q84 0 132 60.5t48 169.5q0 64 -16.5 112.5t-45 81.5t-66.5 49.5t-81 16.5q-83 0 -131 -60t-48 -170q0 -63 16.5 -111.5
t44.5 -81.5t66 -50t81 -17z" />
    <glyph glyph-name="oe.sc" horiz-adv-x="877" 
d="M832 153v-153h-493q-58 0 -112.5 19.5t-95.5 56t-66 90t-25 121.5q0 71 25 122.5t66 85t95.5 49.5t112.5 16h468v-153l-78 108h-200v-201h151l57 73v-190l-57 72h-151v-224h225zM434 515h-86q-93 0 -150.5 -58.5t-57.5 -176.5q0 -56 15 -99.5t42.5 -73.5t66 -46t84.5 -16
h86v470z" />
    <glyph glyph-name="ograve.sc" horiz-adv-x="678" 
d="M178 850h110l90 -195l-5 -5zM341 570q58 0 111.5 -19t95 -55.5t66 -90.5t24.5 -123t-25 -123.5t-66.5 -92t-96 -57t-113.5 -19.5q-58 0 -111.5 19t-94.5 55.5t-66 90.5t-25 123t25 123.5t66.5 92t96 57t113.5 19.5zM353 35q84 0 132 60.5t48 169.5q0 64 -16.5 112.5
t-45 81.5t-66.5 49.5t-81 16.5q-83 0 -131 -60t-48 -170q0 -63 16.5 -111.5t44.5 -81.5t66 -50t81 -17z" />
    <glyph glyph-name="ohungarumlaut.sc" horiz-adv-x="678" 
d="M240 655l70 195h100l-165 -200zM410 655l70 195h100l-165 -200zM341 570q58 0 111.5 -19t95 -55.5t66 -90.5t24.5 -123t-25 -123.5t-66.5 -92t-96 -57t-113.5 -19.5q-58 0 -111.5 19t-94.5 55.5t-66 90.5t-25 123t25 123.5t66.5 92t96 57t113.5 19.5zM353 35
q84 0 132 60.5t48 169.5q0 64 -16.5 112.5t-45 81.5t-66.5 49.5t-81 16.5q-83 0 -131 -60t-48 -170q0 -63 16.5 -111.5t44.5 -81.5t66 -50t81 -17z" />
    <glyph glyph-name="omacron.sc" horiz-adv-x="678" 
d="M493 761v-65h-306v65h306zM341 570q58 0 111.5 -19t95 -55.5t66 -90.5t24.5 -123t-25 -123.5t-66.5 -92t-96 -57t-113.5 -19.5q-58 0 -111.5 19t-94.5 55.5t-66 90.5t-25 123t25 123.5t66.5 92t96 57t113.5 19.5zM353 35q84 0 132 60.5t48 169.5q0 64 -16.5 112.5
t-45 81.5t-66.5 49.5t-81 16.5q-83 0 -131 -60t-48 -170q0 -63 16.5 -111.5t44.5 -81.5t66 -50t81 -17z" />
    <glyph glyph-name="one.dnom" horiz-adv-x="353" 
d="M313 0h-263l100 38v324l-93 35l156 53v-412z" />
    <glyph glyph-name="one.numr" horiz-adv-x="353" 
d="M313 270h-263l100 38v324l-93 35l156 53v-412z" />
    <glyph glyph-name="one.osf" horiz-adv-x="375" 
d="M235 60l80 -60h-250l80 60v360l-80 60h250l-80 -60v-360z" />
    <glyph glyph-name="one.sc" horiz-adv-x="440" 
d="M400 0h-350l128 49v413l-119 41l212 72v-526z" />
    <glyph glyph-name="oslash.sc" horiz-adv-x="678" 
d="M528 511q50 -37 80 -94t30 -135q0 -69 -25 -123.5t-66.5 -92t-96 -57t-113.5 -19.5q-89 0 -163 43l-38 -51l-33 23l38 51q-46 37 -73.5 92.5t-27.5 129.5q0 69 25 123.5t66.5 92t96 57t113.5 19.5q82 0 153 -37l33 44l32 -25zM145 295q0 -54 12 -97t33 -75l263 354
q-26 24 -59 36t-70 12q-83 0 -131 -60t-48 -170zM353 35q84 0 132 60.5t48 169.5q0 59 -14 104.5t-38 77.5l-265 -357q57 -55 137 -55z" />
    <glyph glyph-name="otilde.sc" horiz-adv-x="678" 
d="M411 800q48 0 72 -36.5t26 -90.5h-5q-14 34 -36 45.5t-41 11.5q-21 0 -39.5 -9t-37.5 -19.5t-39 -19.5t-44 -9q-48 0 -72 36.5t-26 90.5h5q14 -34 36 -45.5t41 -11.5q21 0 39.5 9t37.5 19.5t39 19.5t44 9zM341 570q58 0 111.5 -19t95 -55.5t66 -90.5t24.5 -123
t-25 -123.5t-66.5 -92t-96 -57t-113.5 -19.5q-58 0 -111.5 19t-94.5 55.5t-66 90.5t-25 123t25 123.5t66.5 92t96 57t113.5 19.5zM353 35q84 0 132 60.5t48 169.5q0 64 -16.5 112.5t-45 81.5t-66.5 49.5t-81 16.5q-83 0 -131 -60t-48 -170q0 -63 16.5 -111.5t44.5 -81.5
t66 -50t81 -17z" />
    <glyph glyph-name="p.sc" horiz-adv-x="550" 
d="M210 229v-169l120 -60h-295l80 60v440l-80 60h270q51 0 93.5 -9t72.5 -27.5t47 -47.5t17 -69t-17 -73t-47 -56t-72.5 -36t-93.5 -13h-95zM210 268h84q69 0 105 35t36 95t-36 91.5t-105 31.5h-84v-253z" />
    <glyph glyph-name="parenleft.sc" horiz-adv-x="296" 
d="M261 658q-73 -83 -102.5 -176t-29.5 -198t29.5 -198t102.5 -176l-5 -4q-102 73 -154 166.5t-52 211.5t52 211.5t154 166.5z" />
    <glyph glyph-name="parenright.sc" horiz-adv-x="296" 
d="M40 662q102 -73 154 -166.5t52 -211.5t-52 -211.5t-154 -166.5l-5 4q73 83 102.5 176t29.5 198t-29.5 198t-102.5 176z" />
    <glyph glyph-name="q.sc" horiz-adv-x="678" 
d="M425 1q11 -25 31 -48t46.5 -42t58 -33.5t65.5 -21.5v-4q-99 -5 -172 29t-128 109q-56 2 -108 21.5t-91.5 56.5t-63 89.5t-23.5 120.5q0 69 25 123.5t66.5 92t96 57t113.5 19.5q58 0 111.5 -19t95 -55.5t66 -90.5t24.5 -123q0 -56 -16.5 -102.5t-45.5 -82t-67.5 -60
t-83.5 -36.5zM145 295q0 -63 16.5 -111.5t44.5 -81.5t66 -50t81 -17q84 0 132 60.5t48 169.5q0 64 -16.5 112.5t-45 81.5t-66.5 49.5t-81 16.5q-83 0 -131 -60t-48 -170z" />
    <glyph glyph-name="question.sc" horiz-adv-x="432" 
d="M176 177q-7 38 -1.5 66.5t18.5 52.5t30.5 44.5t33 40.5t26 42t10.5 49q0 44 -29 72t-78 33l-97 -78l-58 61q33 23 77.5 36t94.5 13q37 0 70 -7.5t57.5 -23t39 -40t14.5 -57.5q0 -31 -13 -56t-32.5 -47t-42 -42.5t-42 -43.5t-32.5 -51t-13 -64h-33zM194 -8q-22 0 -37 15
t-15 36t15 35.5t37 14.5t37 -14.5t15 -35.5t-15 -36t-37 -15z" />
    <glyph glyph-name="questiondown.sc" horiz-adv-x="378" 
d="M225 396q22 0 37 -15t15 -36t-15 -35.5t-37 -14.5t-37 14.5t-15 35.5t15 36t37 15zM243 211q7 -37 1.5 -66t-18.5 -53t-30.5 -44.5t-33 -40.5t-26 -42t-10.5 -49q0 -44 29 -72t78 -33l97 78l58 -61q-33 -23 -77.5 -36t-94.5 -13q-37 0 -69.5 7.5t-57.5 23t-39.5 40
t-14.5 57.5q0 31 13 56t32.5 47t42 42.5t42 43.5t32.5 51t13 64h33z" />
    <glyph glyph-name="r.sc" horiz-adv-x="597" 
d="M373 261q31 -47 59.5 -87.5t58 -73.5t61.5 -58t70 -42v-5q-67 -6 -114.5 7.5t-88 48.5t-80 92.5t-89.5 139.5q49 3 81.5 14t52 27.5t27.5 38t8 45.5q0 56 -35 81.5t-97 25.5h-87v-455l80 -60h-255l80 60v440l-80 60h273q48 0 88.5 -8.5t70 -25.5t46 -44t16.5 -64
q0 -58 -40 -98t-106 -59z" />
    <glyph glyph-name="racute.sc" horiz-adv-x="597" 
d="M263 650l-5 5l90 195h110zM373 261q31 -47 59.5 -87.5t58 -73.5t61.5 -58t70 -42v-5q-67 -6 -114.5 7.5t-88 48.5t-80 92.5t-89.5 139.5q49 3 81.5 14t52 27.5t27.5 38t8 45.5q0 56 -35 81.5t-97 25.5h-87v-455l80 -60h-255l80 60v440l-80 60h273q48 0 88.5 -8.5
t70 -25.5t46 -44t16.5 -64q0 -58 -40 -98t-106 -59z" />
    <glyph glyph-name="rcaron.sc" horiz-adv-x="597" 
d="M297 640l-165 220l5 5l160 -130l160 130l5 -5zM373 261q31 -47 59.5 -87.5t58 -73.5t61.5 -58t70 -42v-5q-67 -6 -114.5 7.5t-88 48.5t-80 92.5t-89.5 139.5q49 3 81.5 14t52 27.5t27.5 38t8 45.5q0 56 -35 81.5t-97 25.5h-87v-455l80 -60h-255l80 60v440l-80 60h273
q48 0 88.5 -8.5t70 -25.5t46 -44t16.5 -64q0 -58 -40 -98t-106 -59z" />
    <glyph glyph-name="rcommaaccent.sc" horiz-adv-x="597" 
d="M373 261q31 -47 59.5 -87.5t58 -73.5t61.5 -58t70 -42v-5q-67 -6 -114.5 7.5t-88 48.5t-80 92.5t-89.5 139.5q49 3 81.5 14t52 27.5t27.5 38t8 45.5q0 56 -35 81.5t-97 25.5h-87v-455l80 -60h-255l80 60v440l-80 60h273q48 0 88.5 -8.5t70 -25.5t46 -44t16.5 -64
q0 -58 -40 -98t-106 -59zM344 -65q20 0 35 -14.5t15 -49.5q0 -26 -10 -48t-26.5 -39.5t-37.5 -30.5t-44 -21l-2 4q31 20 44.5 43t13.5 46q0 20 -9.5 37t-25.5 28q0 17 12.5 31t34.5 14z" />
    <glyph glyph-name="s.sc" horiz-adv-x="499" 
d="M149 434q0 -28 23 -46t57.5 -33t74.5 -31t74.5 -38.5t57.5 -55t23 -82.5q0 -38 -16 -67.5t-44 -49.5t-66 -30.5t-81 -10.5q-39 0 -74 8t-67 21l-51 -26v178l79 -107q26 -14 52 -21.5t55 -7.5q37 0 60.5 9t37.5 23t19.5 30t5.5 31q0 34 -22.5 54.5t-56.5 36.5t-73.5 30.5
t-73.5 36t-56.5 52.5t-22.5 80q0 34 14 62t40.5 48t63 31t81.5 11q32 0 60.5 -6.5t57.5 -17.5l45 22v-178l-89 121q-34 14 -68 14q-36 0 -59 -8.5t-36.5 -22t-19 -29.5t-5.5 -31z" />
    <glyph glyph-name="sacute.sc" horiz-adv-x="499" 
d="M215 655l90 195h110l-195 -200zM149 434q0 -28 23 -46t57.5 -33t74.5 -31t74.5 -38.5t57.5 -55t23 -82.5q0 -38 -16 -67.5t-44 -49.5t-66 -30.5t-81 -10.5q-39 0 -74 8t-67 21l-51 -26v178l79 -107q26 -14 52 -21.5t55 -7.5q37 0 60.5 9t37.5 23t19.5 30t5.5 31
q0 34 -22.5 54.5t-56.5 36.5t-73.5 30.5t-73.5 36t-56.5 52.5t-22.5 80q0 34 14 62t40.5 48t63 31t81.5 11q32 0 60.5 -6.5t57.5 -17.5l45 22v-178l-89 121q-34 14 -68 14q-36 0 -59 -8.5t-36.5 -22t-19 -29.5t-5.5 -31z" />
    <glyph glyph-name="scaron.sc" horiz-adv-x="499" 
d="M419 860l-165 -220l-165 220l5 5l160 -130l160 130zM149 434q0 -28 23 -46t57.5 -33t74.5 -31t74.5 -38.5t57.5 -55t23 -82.5q0 -38 -16 -67.5t-44 -49.5t-66 -30.5t-81 -10.5q-39 0 -74 8t-67 21l-51 -26v178l79 -107q26 -14 52 -21.5t55 -7.5q37 0 60.5 9t37.5 23
t19.5 30t5.5 31q0 34 -22.5 54.5t-56.5 36.5t-73.5 30.5t-73.5 36t-56.5 52.5t-22.5 80q0 34 14 62t40.5 48t63 31t81.5 11q32 0 60.5 -6.5t57.5 -17.5l45 22v-178l-89 121q-34 14 -68 14q-36 0 -59 -8.5t-36.5 -22t-19 -29.5t-5.5 -31z" />
    <glyph glyph-name="scedilla.sc" horiz-adv-x="499" 
d="M459 148q0 -36 -15 -64.5t-40.5 -49t-60.5 -31.5t-75 -13l-23 -57q54 -17 76 -41.5t22 -56.5q0 -42 -29.5 -63.5t-69.5 -21.5q-24 0 -42 7.5t-31 19.5t-20.5 26.5t-12.5 29.5l5 5q17 -12 37 -20t41 -8q20 0 33.5 10t13.5 33q0 18 -12.5 34t-53.5 33l28 71
q-32 2 -61.5 9.5t-57.5 18.5l-51 -26v178l79 -107q26 -14 52 -21.5t55 -7.5q37 0 60.5 9t37.5 23t19.5 30t5.5 31q0 34 -22.5 54.5t-56.5 36.5t-73.5 30.5t-73.5 36t-56.5 52.5t-22.5 80q0 34 14 62t40.5 48t63 31t81.5 11q32 0 60.5 -6.5t57.5 -17.5l45 22v-178l-89 121
q-34 14 -68 14q-36 0 -59 -8.5t-36.5 -22t-19 -29.5t-5.5 -31q0 -28 23 -46t57.5 -33t74.5 -31t74.5 -38.5t57.5 -55t23 -82.5z" />
    <glyph glyph-name="scommaaccent.sc" horiz-adv-x="499" 
d="M149 434q0 -28 23 -46t57.5 -33t74.5 -31t74.5 -38.5t57.5 -55t23 -82.5q0 -38 -16 -67.5t-44 -49.5t-66 -30.5t-81 -10.5q-39 0 -74 8t-67 21l-51 -26v178l79 -107q26 -14 52 -21.5t55 -7.5q37 0 60.5 9t37.5 23t19.5 30t5.5 31q0 34 -22.5 54.5t-56.5 36.5t-73.5 30.5
t-73.5 36t-56.5 52.5t-22.5 80q0 34 14 62t40.5 48t63 31t81.5 11q32 0 60.5 -6.5t57.5 -17.5l45 22v-178l-89 121q-34 14 -68 14q-36 0 -59 -8.5t-36.5 -22t-19 -29.5t-5.5 -31zM255 -65q20 0 35 -14.5t15 -49.5q0 -26 -10 -48t-26.5 -39.5t-37.5 -30.5t-44 -21l-2 4
q31 20 44.5 43t13.5 46q0 20 -9.5 37t-25.5 28q0 17 12.5 31t34.5 14z" />
    <glyph glyph-name="seven.dnom" horiz-adv-x="362" 
d="M342 438q-38 -64 -65.5 -119.5t-45.5 -108t-27 -103.5t-9 -107h-66q4 56 18 107t35 98.5t45.5 91.5t49.5 84h-197l-50 -68v125h312z" />
    <glyph glyph-name="seven.numr" horiz-adv-x="362" 
d="M342 701q-38 -64 -65.5 -119.5t-45.5 -108t-27 -103.5t-9 -107h-66q4 56 18 107t35 98.5t45.5 91.5t49.5 84h-197l-50 -68v125h312z" />
    <glyph glyph-name="seven.osf" horiz-adv-x="525" 
d="M525 480q-61 -102 -105.5 -191t-73.5 -172.5t-43 -165.5t-14 -171h-105q6 89 28.5 171t55.5 158t73 146t79 135h-303l-82 -109v199h490z" />
    <glyph glyph-name="seven.sc" horiz-adv-x="477" 
d="M457 560q-52 -82 -89 -153t-61.5 -138t-36.5 -132.5t-13 -136.5h-97q5 69 24 133t46.5 124t62 116t71.5 108h-268l-66 -92v171h427z" />
    <glyph glyph-name="six.dnom" horiz-adv-x="395" 
d="M143 231q39 16 76.5 15.5t66.5 -15.5t46.5 -43t17.5 -66q0 -57 -39 -94.5t-105 -37.5q-32 0 -60.5 10.5t-49.5 31.5t-33.5 53.5t-12.5 77.5q0 53 18 100.5t52 86.5t83 67.5t111 41.5l9 -25q-103 -30 -155 -93t-52 -167q0 -44 8.5 -73.5t22 -47t30.5 -25t33 -7.5
q19 0 33 9t23.5 23t14 32.5t4.5 37.5q0 59 -38.5 79.5t-94.5 3.5z" />
    <glyph glyph-name="six.numr" horiz-adv-x="395" 
d="M143 513q39 16 76.5 15.5t66.5 -15.5t46.5 -43t17.5 -66q0 -57 -39 -94.5t-105 -37.5q-32 0 -60.5 10.5t-49.5 31.5t-33.5 53.5t-12.5 77.5q0 53 18 100.5t52 86.5t83 67.5t111 41.5l9 -25q-103 -30 -155 -93t-52 -167q0 -44 8.5 -73.5t22 -47t30.5 -25t33 -7.5
q19 0 33 9t23.5 23t14 32.5t4.5 37.5q0 59 -38.5 79.5t-94.5 3.5z" />
    <glyph glyph-name="six.osf" horiz-adv-x="570" 
d="M193 376q63 26 123 25t106.5 -25t74.5 -68.5t28 -105.5q0 -46 -16.5 -84.5t-46.5 -67t-72.5 -44.5t-95.5 -16q-52 0 -97 16.5t-79 50.5t-53.5 86.5t-19.5 123.5q0 84 28.5 160.5t82.5 138.5t132.5 107.5t178.5 66.5l15 -40q-166 -48 -249 -148.5t-83 -266.5
q0 -70 14 -117.5t35.5 -75.5t48.5 -40t52 -12q30 0 52.5 14t37.5 37t22.5 52t7.5 60q0 47 -16 78.5t-44.5 48t-67.5 18t-84 -11.5z" />
    <glyph glyph-name="six.sc" horiz-adv-x="508" 
d="M184 307q56 20 106.5 17.5t88.5 -22t61 -55.5t23 -84q0 -38 -14.5 -69.5t-41 -54.5t-63.5 -36t-81 -13q-43 0 -81.5 13t-67.5 40.5t-46.5 70t-17.5 100.5q0 66 24 127t69.5 110.5t112.5 85.5t154 53l13 -32q-278 -76 -278 -330q0 -54 11 -91t28.5 -59.5t39.5 -32.5
t43 -10q25 0 44 11t31.5 29.5t19 42t6.5 48.5q0 70 -47.5 99t-125.5 9z" />
    <glyph glyph-name="slash.sc" horiz-adv-x="359" 
d="M66 -112h-49l276 704h49z" />
    <glyph glyph-name="t.sc" horiz-adv-x="583" 
d="M558 575v-168l-78 108h-141v-455l80 -60h-255l80 60v455h-141l-78 -108v168l70 -15h393z" />
    <glyph glyph-name="tbar.sc" horiz-adv-x="593" 
d="M558 575v-168l-78 108h-141v-210h123v-45h-123v-200l80 -60h-255l80 60v200h-122v45h122v210h-141l-78 -108v168l70 -15h393z" />
    <glyph glyph-name="tcaron.sc" horiz-adv-x="583" 
d="M292 640l-165 220l5 5l160 -130l160 130l5 -5zM558 575v-168l-78 108h-141v-455l80 -60h-255l80 60v455h-141l-78 -108v168l70 -15h393z" />
    <glyph glyph-name="thorn.sc" horiz-adv-x="615" 
d="M330 474q54 0 99 -11.5t77.5 -34t50.5 -57t18 -81.5t-18 -83.5t-50.5 -61t-77.5 -37.5t-99 -13h-120v-35l80 -60h-255l80 60v440l-80 60h255l-80 -60v-26h120zM319 140q75 0 115.5 38t40.5 107t-40.5 106.5t-115.5 37.5h-109v-289h109z" />
    <glyph glyph-name="three.dnom" horiz-adv-x="403" 
d="M247 260q34 -17 55 -46.5t21 -71.5q0 -36 -16.5 -64t-43 -47.5t-60 -30t-66.5 -10.5q-31 0 -55 8t-42 22l38 50l65 -49q24 0 46.5 7.5t40 21.5t27.5 33.5t10 43.5q0 31 -20 57.5t-60 38.5q-24 -10 -54 -21l-10 25q33 13 53.5 26t32.5 25.5t16 25.5t4 25q0 27 -15.5 44
t-49.5 17q-24 0 -56 -12.5t-65 -50.5l-3 3q51 110 146 110q54 0 79.5 -28t25.5 -66q0 -49 -44 -86z" />
    <glyph glyph-name="three.numr" horiz-adv-x="403" 
d="M247 530q34 -17 55 -46.5t21 -71.5q0 -36 -16.5 -64t-43 -47.5t-60 -30t-66.5 -10.5q-31 0 -55 8t-42 22l38 50l65 -49q24 0 46.5 7.5t40 21.5t27.5 33.5t10 43.5q0 32 -20 58t-61 38q-12 -5 -25.5 -10.5t-27.5 -10.5l-10 25q33 13 53.5 26t32.5 25.5t16 25.5t4 25
q0 27 -15.5 44t-49.5 17q-24 0 -56 -12.5t-65 -50.5l-3 3q51 110 146 110q54 0 79.5 -28t25.5 -66q0 -49 -44 -86z" />
    <glyph glyph-name="three.osf" horiz-adv-x="573" 
d="M371 202q54 -28 88 -74.5t34 -113.5q0 -58 -26.5 -103t-69 -76.5t-95.5 -48t-107 -16.5q-50 0 -88 13t-67 35l60 80l105 -78q39 0 75 12.5t63 34.5t43.5 53t16.5 69q0 51 -31.5 93t-97.5 62q-38 -17 -86 -34l-15 40q53 20 86 40.5t51.5 41t25 41t6.5 40.5q0 43 -24.5 70
t-78.5 27q-39 0 -90 -20.5t-104 -79.5l-5 5q41 88 98 131.5t136 43.5q43 0 74.5 -12t52.5 -32.5t31 -47.5t10 -58q0 -40 -17 -74t-54 -64z" />
    <glyph glyph-name="three.sc" horiz-adv-x="516" 
d="M334 331q45 -23 73.5 -60t28.5 -91q0 -46 -22 -81.5t-57.5 -59.5t-81 -36.5t-93.5 -12.5q-47 0 -81.5 14t-60.5 37l58 60l86 -71q33 0 64 8t54 24t37 39.5t14 53.5q0 42 -28.5 75t-85.5 53l-28 -10t-29 -10l-12 32q43 15 70.5 30.5t43.5 32t22 33t6 32.5q0 35 -21.5 56.5
t-67.5 21.5q-35 0 -77 -16.5t-87 -63.5l-4 4q34 72 83 108.5t118 36.5q37 0 64 -10t45 -27t27 -39.5t9 -47.5q0 -66 -67 -115z" />
    <glyph glyph-name="two.dnom" horiz-adv-x="390" 
d="M330 112v-112h-300q69 65 113.5 112.5t69.5 84t34.5 63.5t9.5 51q0 40 -22 60t-60 20q-36 0 -67.5 -18.5t-55.5 -59.5l-3 3q16 63 56 95.5t97 32.5t87 -29.5t30 -80.5q0 -33 -13 -65t-37 -65.5t-58 -70t-76 -77.5h153z" />
    <glyph glyph-name="two.numr" horiz-adv-x="390" 
d="M330 378v-112h-300q69 65 113.5 112.5t69.5 84t34.5 63.5t9.5 51q0 40 -22 60t-60 20q-36 0 -67.5 -18.5t-55.5 -59.5l-3 3q16 63 56 95.5t97 32.5t87 -29.5t30 -80.5q0 -33 -13 -65t-37 -65.5t-58 -70t-76 -77.5h153z" />
    <glyph glyph-name="two.osf" horiz-adv-x="490" 
d="M465 85l-17 -85h-433q98 71 159 120t95 84.5t46.5 62.5t12.5 54q0 47 -26.5 65.5t-69.5 18.5q-105 0 -191 -105l-5 5q29 87 89.5 136t145.5 49q76 0 116.5 -38.5t40.5 -99.5q0 -44 -19 -81t-50.5 -69.5t-72 -61t-82.5 -55.5h261z" />
    <glyph glyph-name="two.sc" horiz-adv-x="505" 
d="M445 156v-156h-415q90 77 149 135.5t94 104.5t49.5 82.5t14.5 69.5q0 51 -29 76.5t-80 25.5q-49 0 -92 -24t-76 -76l-4 4q21 83 76 127.5t136 44.5q77 0 118.5 -39t41.5 -106q0 -81 -62 -162t-180 -184h203z" />
    <glyph glyph-name="u.sc" horiz-adv-x="679" 
d="M594 500v-263q0 -123 -63.5 -185t-175.5 -62q-53 0 -100 14.5t-82.5 44t-56.5 74.5t-21 106v271l-80 60h255l-80 -60v-263q0 -102 45.5 -149.5t126.5 -47.5q82 0 127 48t45 149v263l-120 60h260z" />
    <glyph glyph-name="uacute.sc" horiz-adv-x="679" 
d="M321 650l-5 5l90 195h110zM594 500v-263q0 -123 -63.5 -185t-175.5 -62q-53 0 -100 14.5t-82.5 44t-56.5 74.5t-21 106v271l-80 60h255l-80 -60v-263q0 -102 45.5 -149.5t126.5 -47.5q82 0 127 48t45 149v263l-120 60h260z" />
    <glyph glyph-name="ucircumflex.sc" horiz-adv-x="679" 
d="M195 640l-5 5l165 220l165 -220l-5 -5l-160 130zM594 500v-263q0 -123 -63.5 -185t-175.5 -62q-53 0 -100 14.5t-82.5 44t-56.5 74.5t-21 106v271l-80 60h255l-80 -60v-263q0 -102 45.5 -149.5t126.5 -47.5q82 0 127 48t45 149v263l-120 60h260z" />
    <glyph glyph-name="udieresis.sc" horiz-adv-x="679" 
d="M255 686q-21 0 -36.5 15.5t-15.5 36.5q0 22 15.5 37t36.5 15q22 0 37 -15t15 -37q0 -21 -15 -36.5t-37 -15.5zM456 686q-21 0 -36.5 15.5t-15.5 36.5q0 22 15.5 37t36.5 15q22 0 37 -15t15 -37q0 -21 -15 -36.5t-37 -15.5zM594 500v-263q0 -123 -63.5 -185t-175.5 -62
q-53 0 -100 14.5t-82.5 44t-56.5 74.5t-21 106v271l-80 60h255l-80 -60v-263q0 -102 45.5 -149.5t126.5 -47.5q82 0 127 48t45 149v263l-120 60h260z" />
    <glyph glyph-name="ugrave.sc" horiz-adv-x="679" 
d="M389 650l-195 200h110l90 -195zM594 500v-263q0 -123 -63.5 -185t-175.5 -62q-53 0 -100 14.5t-82.5 44t-56.5 74.5t-21 106v271l-80 60h255l-80 -60v-263q0 -102 45.5 -149.5t126.5 -47.5q82 0 127 48t45 149v263l-120 60h260z" />
    <glyph glyph-name="uhungarumlaut.sc" horiz-adv-x="679" 
d="M261 650l-5 5l70 195h100zM426 655l70 195h100l-165 -200zM594 500v-263q0 -123 -63.5 -185t-175.5 -62q-53 0 -100 14.5t-82.5 44t-56.5 74.5t-21 106v271l-80 60h255l-80 -60v-263q0 -102 45.5 -149.5t126.5 -47.5q82 0 127 48t45 149v263l-120 60h260z" />
    <glyph glyph-name="umacron.sc" horiz-adv-x="679" 
d="M509 696h-306v65h306v-65zM594 500v-263q0 -123 -63.5 -185t-175.5 -62q-53 0 -100 14.5t-82.5 44t-56.5 74.5t-21 106v271l-80 60h255l-80 -60v-263q0 -102 45.5 -149.5t126.5 -47.5q82 0 127 48t45 149v263l-120 60h260z" />
    <glyph glyph-name="uni0163.sc" horiz-adv-x="583" 
d="M558 575v-168l-78 108h-141v-455l80 -60h-109l-27 -67q54 -17 76 -41.5t22 -56.5q0 -42 -29.5 -63.5t-69.5 -21.5q-24 0 -42 7.5t-31 19.5t-20.5 26.5t-12.5 29.5l5 5q17 -12 37 -20t41 -8q20 0 33.5 10t13.5 33q0 18 -12.5 34t-53.5 33l32 80h-108l80 60v455h-141
l-78 -108v168l70 -15h393z" />
    <glyph glyph-name="uni021B.sc" horiz-adv-x="583" 
d="M558 575v-168l-78 108h-141v-455l80 -60h-255l80 60v455h-141l-78 -108v168l70 -15h393zM293 -65q20 0 35 -14.5t15 -49.5q0 -26 -10 -48t-26.5 -39.5t-37.5 -30.5t-44 -21l-2 4q31 20 44.5 43t13.5 46q0 20 -9.5 37t-25.5 28q0 17 12.5 31t34.5 14z" />
    <glyph glyph-name="uni0430.sc" horiz-adv-x="612" 
d="M622 0h-248l80 60l-63 137h-211l-61 -137l120 -60h-204l269 587h6l248 -539zM371 242l-86 188l-84 -188h170z" />
    <glyph glyph-name="uni0431.sc" horiz-adv-x="582" 
d="M312 331q51 0 93.5 -10t72.5 -30t47 -50t17 -70t-17 -72t-47 -54t-72.5 -33.5t-93.5 -11.5h-287l80 60v440l-80 60h473v-147l-78 101h-220v-183h112zM301 46q69 0 105 30t36 90t-36 89.5t-105 29.5h-101v-239h101z" />
    <glyph glyph-name="uni0432.sc" horiz-adv-x="597" 
d="M417 289q64 -14 102 -46.5t38 -86.5q0 -72 -66.5 -114t-180.5 -42h-285l80 60v440l-80 60h282q101 0 161 -38t60 -104q0 -48 -30 -80.5t-81 -48.5zM200 515v-206h99q69 0 101.5 28.5t32.5 75.5q0 46 -32.5 74t-101.5 28h-99zM301 45q82 0 119 28t37 79t-37.5 81.5
t-118.5 30.5h-101v-219h101z" />
    <glyph glyph-name="uni0433.sc" horiz-adv-x="495" 
d="M470 407l-78 108h-192v-455l120 -60h-295l80 60v440l-80 60h445v-153z" />
    <glyph glyph-name="uni0434.sc" horiz-adv-x="658" 
d="M553 45h65v-205l-85 160h-413l-85 -160v205h59q30 30 51.5 80t35.5 112t21 131.5t9 138.5l-70 53h492l-80 -60v-455zM463 45v470h-201q-2 -152 -19 -273.5t-61 -196.5h281z" />
    <glyph glyph-name="uni0435.sc" horiz-adv-x="548" 
d="M503 153v-153h-478l80 60v440l-80 60h453v-153l-78 108h-200v-201h151l57 73v-190l-57 72h-151v-224h225z" />
    <glyph glyph-name="uni0436.sc" horiz-adv-x="817" 
d="M347 298q-57 -96 -97.5 -158t-79.5 -96t-84 -44.5t-111 -4.5v5q46 15 80 40.5t65 64t62.5 90.5t71.5 121l-237 244h210l-86 -51zM451 60l80 -60h-245l80 60v440l-80 60h245l-80 -60v-440zM563 316q40 -69 71.5 -121t62.5 -90.5t65 -64t80 -40.5v-5q-66 -6 -111 4.5
t-84 44.5t-79.5 96t-97.5 158l206 211l-85 51h209z" />
    <glyph glyph-name="uni0437.sc" horiz-adv-x="494" 
d="M318 296q59 -13 97.5 -51.5t38.5 -95.5q0 -38 -17 -67.5t-46 -50t-66.5 -31t-78.5 -10.5q-87 0 -144.5 44.5t-81.5 117.5l5 5q54 -57 103.5 -74.5t92.5 -17.5q67 0 100 26t33 69q0 26 -12 48t-35 37.5t-56 22.5t-76 1v61q42 -8 73.5 -3t52 19t31 35t10.5 45q0 39 -29 68
t-92 29q-36 0 -72 -12l-95 -132v190l49 -22q65 21 131 21q98 0 152 -39t54 -103q0 -45 -29.5 -79t-92.5 -51z" />
    <glyph glyph-name="uni0438.sc" horiz-adv-x="732" 
d="M627 60l80 -60h-255l80 60v410l-332 -470h-175l80 60v440l-80 60h255l-80 -60v-410l332 470h175l-80 -60v-440z" />
    <glyph glyph-name="uni0439.sc" horiz-adv-x="732" 
d="M375 630q-32 0 -59.5 12t-48 32.5t-33 47.5t-14.5 58l5 5q32 -47 67 -66t83 -19t83 19t67 66l5 -5q-2 -31 -14.5 -58t-33 -47.5t-48 -32.5t-59.5 -12zM627 60l80 -60h-255l80 60v410l-332 -470h-175l80 60v440l-80 60h255l-80 -60v-410l332 470h175l-80 -60v-440z" />
    <glyph glyph-name="uni043A.sc" horiz-adv-x="634" 
d="M200 60l80 -60h-255l80 60v440l-80 60h255l-80 -60v-440zM356 313q49 -69 85.5 -121t69.5 -89.5t67.5 -62.5t80.5 -40v-5q-66 -6 -111.5 3.5t-87 42.5t-87.5 93t-113 154l233 221l-76 51h200z" />
    <glyph glyph-name="uni043B.sc" horiz-adv-x="610" 
d="M505 60l80 -60h-255l80 60v461h-202q-3 -144 -8 -245t-22.5 -164t-50.5 -92t-92 -30v95q30 3 52 23.5t37 68.5t23.5 128.5t11.5 202.5l-69 52h495l-80 -60v-440z" />
    <glyph glyph-name="uni043C.sc" horiz-adv-x="820" 
d="M715 60l80 -60h-255l80 60v377l-227 -331l-228 317v-363l120 -60h-260l80 60v440l-80 60h156l234 -326l223 326h157l-80 -60v-440z" />
    <glyph glyph-name="uni043D.sc" horiz-adv-x="721" 
d="M616 60l80 -60h-255l80 60v223h-321v-223l80 -60h-255l80 60v440l-80 60h255l-80 -60v-172h321v172l-80 60h255l-80 -60v-440z" />
    <glyph glyph-name="uni043E.sc" horiz-adv-x="678" 
d="M341 570q58 0 111.5 -19t95 -55.5t66 -90.5t24.5 -123t-25 -123.5t-66.5 -92t-96 -57t-113.5 -19.5q-58 0 -111.5 19t-94.5 55.5t-66 90.5t-25 123t25 123.5t66.5 92t96 57t113.5 19.5zM353 35q84 0 132 60.5t48 169.5q0 64 -16.5 112.5t-45 81.5t-66.5 49.5t-81 16.5
q-83 0 -131 -60t-48 -170q0 -63 16.5 -111.5t44.5 -81.5t66 -50t81 -17z" />
    <glyph glyph-name="uni043F.sc" horiz-adv-x="716" 
d="M611 60l80 -60h-255l80 60v455h-316v-455l80 -60h-255l80 60v440l-80 60h666l-80 -60v-440z" />
    <glyph glyph-name="uni0440.sc" horiz-adv-x="550" 
d="M210 229v-169l120 -60h-295l80 60v440l-80 60h270q51 0 93.5 -9t72.5 -27.5t47 -47.5t17 -69t-17 -73t-47 -56t-72.5 -36t-93.5 -13h-95zM210 268h84q69 0 105 35t36 95t-36 91.5t-105 31.5h-84v-253z" />
    <glyph glyph-name="uni0441.sc" horiz-adv-x="599" 
d="M569 142q-20 -42 -47 -71t-58 -47t-65 -26t-67 -8q-55 0 -107.5 19.5t-93.5 56.5t-66 89.5t-25 118.5q0 68 27 122.5t72 93t104 59.5t124 21q32 0 67.5 -5.5t70.5 -16.5l46 21v-190l-96 134q-23 7 -45 9.5t-42 2.5q-50 0 -92 -15.5t-72 -44.5t-47 -72t-17 -98
q0 -52 15.5 -94.5t44 -72.5t69 -46.5t89.5 -16.5q48 0 101.5 18.5t104.5 63.5z" />
    <glyph glyph-name="uni0442.sc" horiz-adv-x="583" 
d="M558 575v-168l-78 108h-141v-455l80 -60h-255l80 60v455h-141l-78 -108v168l70 -15h393z" />
    <glyph glyph-name="uni0443.sc" horiz-adv-x="616" 
d="M359 60l80 -60h-255l80 60v184l-190 264l-69 52h251l-73 -55l152 -210l151 215l-99 50h234l-77 -58l-185 -260v-182z" />
    <glyph glyph-name="uni0444.sc" horiz-adv-x="702" 
d="M393 81v-31l80 -60h-245l80 60v31h-64q-51 0 -93.5 13t-72.5 38t-46.5 61t-16.5 82q0 45 16.5 82.5t46.5 64.5t72.5 42t93.5 15h64v31l-80 60h245l-80 -60v-31h65q51 0 93 -13t72.5 -38t47 -61t16.5 -82q0 -45 -16.5 -82.5t-47 -64.5t-72.5 -42t-93 -15h-65zM308 440h-54
q-69 0 -106.5 -44t-37.5 -116t37.5 -116t106.5 -44h54v320zM393 120h55q68 0 106 44t38 116t-38 116t-106 44h-55v-320z" />
    <glyph glyph-name="uni0445.sc" horiz-adv-x="600" 
d="M620 0h-258l73 54l-142 182l-144 -181l80 -55h-224l77 58l177 222l-176 226l-72 54h256l-73 -54l132 -170l136 169l-80 55h224l-78 -58l-168 -210l181 -233z" />
    <glyph glyph-name="uni0446.sc" horiz-adv-x="674" 
d="M584 45h64v-205l-85 160h-548l80 60v440l-80 60h255l-80 -60v-455h299v455l-80 60h255l-80 -60v-455z" />
    <glyph glyph-name="uni0447.sc" horiz-adv-x="662" 
d="M557 60l80 -60h-295l120 60v178q-38 -11 -76 -17.5t-82 -6.5q-112 0 -165.5 41.5t-53.5 132.5v112l-80 60h255l-80 -60v-99q0 -36 6.5 -62.5t22 -44t43 -26.5t69.5 -9q35 0 71 6t70 17v218l-80 60h255l-80 -60v-440z" />
    <glyph glyph-name="uni0448.sc" horiz-adv-x="957" 
d="M852 60l80 -60h-907l80 60v440l-80 60h255l-80 -60v-455h231v455l-80 60h255l-80 -60v-455h231v455l-80 60h255l-80 -60v-440z" />
    <glyph glyph-name="uni0449.sc" horiz-adv-x="957" 
d="M852 45h65v-205l-84 160h-808l80 60v440l-80 60h255l-80 -60v-455h231v455l-80 60h255l-80 -60v-455h231v455l-80 60h255l-80 -60v-455z" />
    <glyph glyph-name="uni044A.sc" horiz-adv-x="686" 
d="M441 331q51 0 93.5 -10t72.5 -30t47 -50t17 -70t-17 -72t-47 -54t-72.5 -33.5t-93.5 -11.5h-287l80 60v455h-131l-78 -108v153h424l-120 -60v-169h112zM430 46q69 0 105 30t36 90t-36 89.5t-105 29.5h-101v-239h101z" />
    <glyph glyph-name="uni044B.sc" horiz-adv-x="872" 
d="M312 331q51 0 93.5 -10t72.5 -30t47 -50t17 -70t-17 -72t-47 -54t-72.5 -33.5t-93.5 -11.5h-287l80 60v440l-80 60h295l-120 -60v-169h112zM762 60l80 -60h-255l80 60v440l-80 60h255l-80 -60v-440zM301 46q69 0 105 30t36 90t-36 89.5t-105 29.5h-101v-239h101z" />
    <glyph glyph-name="uni044C.sc" horiz-adv-x="557" 
d="M312 331q51 0 93.5 -10t72.5 -30t47 -50t17 -70t-17 -72t-47 -54t-72.5 -33.5t-93.5 -11.5h-287l80 60v440l-80 60h295l-120 -60v-169h112zM301 46q69 0 105 30t36 90t-36 89.5t-105 29.5h-101v-239h101z" />
    </font>
</defs>
</svg>
